<?xml version="1.0" standalone="no"?>
<!DOCTYPE svg PUBLIC "-//W3C//DTD SVG 1.1//EN" "http://www.w3.org/Graphics/SVG/1.1/DTD/svg11.dtd" >
<svg xmlns="http://www.w3.org/2000/svg" xmlns:xlink="http://www.w3.org/1999/xlink" version="1.1">
<metadata>
Created by FontForge 20200314 at Sun Sep  7 15:05:57 2014
 By Unknown
Copyright (c) 2011 by Gilles Le Corre. All rights reserved.
</metadata>
<defs>
<font id="1756DutchW01-Normal" horiz-adv-x="336" >
  <font-face 
    font-family="1756DutchW01-Normal"
    font-weight="400"
    font-stretch="normal"
    units-per-em="1000"
    panose-1="2 10 6 2 6 0 0 2 0 0"
    ascent="800"
    descent="-200"
    x-height="384"
    cap-height="582"
    bbox="-173 -224 950 807"
    underline-thickness="50"
    underline-position="-175"
    unicode-range="U+0020-2122"
  />
<missing-glyph horiz-adv-x="335" 
d="M305 357q-1 -5 -1 -15.5v-27.5q0 -29 1 -67t2 -72.5t2.5 -59.5t1.5 -28l7 -25q2 -5 2 -9v-9q0 -15 -28 -26t-90 -11q-36 0 -50 7q-12 -3 -29 -3h-39.5t-39.5 1q-5 -1 -13 -1q-16 0 -17 10q8 27 8 84q0 7 1 12.5l2 11t2 12.5t1 18q0 14 -0.5 32.5t-1.5 43.5l-4 101
q2 5 3.5 14.5t1.5 20.5q0 64 -3 192q0 7 0.5 15.5t0.5 19.5q0 20 -2.5 40.5t-7.5 54.5q0 32 80 32q27 0 45 -3q8 7 30 7q11 0 25.5 -1.5t31.5 -6.5q28 5 42 5q40 0 40 -26q0 -31 -0.5 -50.5t-1 -34t-2 -28.5t-3.5 -34l3 -45q0 -6 -3 -19t-3 -20l5 -25q-1 -8 -1 -15.5v-16.5
q0 -12 0.5 -26t1.5 -29zM62 357q-1 -5 -1 -15.5v-27.5q0 -29 1 -67t2 -72.5t2.5 -59.5t1.5 -28q1 -11 49 -11q10 0 22 1t24 1q2 0 4 -0.5t4 -0.5l37 -6q16 -3 26.5 -5t15.5 -1q10 0 14.5 11.5t6 26.5t1 31t-0.5 25q0 14 -0.5 32.5t-1.5 43.5l-3 101l2.5 15t1.5 20
q0 64 -3 192q1 7 1 15.5v19.5v23t-1 26q-1 2 -16.5 3.5t-34.5 2.5q-22 1 -49 1q-10 5 -21 5q-19 0 -34 -4.5t-25.5 -10.5t-16 -12t-5.5 -9l-6 -70l3 -45q0 -6 -3 -19t-3 -20l5 -25q-1 -8 -1 -15.5v-16.5q0 -12 0.5 -26t1.5 -29z" />
    <glyph glyph-name=".notdef" horiz-adv-x="335" 
d="M305 357q-1 -5 -1 -15.5v-27.5q0 -29 1 -67t2 -72.5t2.5 -59.5t1.5 -28l7 -25q2 -5 2 -9v-9q0 -15 -28 -26t-90 -11q-36 0 -50 7q-12 -3 -29 -3h-39.5t-39.5 1q-5 -1 -13 -1q-16 0 -17 10q8 27 8 84q0 7 1 12.5l2 11t2 12.5t1 18q0 14 -0.5 32.5t-1.5 43.5l-4 101
q2 5 3.5 14.5t1.5 20.5q0 64 -3 192q0 7 0.5 15.5t0.5 19.5q0 20 -2.5 40.5t-7.5 54.5q0 32 80 32q27 0 45 -3q8 7 30 7q11 0 25.5 -1.5t31.5 -6.5q28 5 42 5q40 0 40 -26q0 -31 -0.5 -50.5t-1 -34t-2 -28.5t-3.5 -34l3 -45q0 -6 -3 -19t-3 -20l5 -25q-1 -8 -1 -15.5v-16.5
q0 -12 0.5 -26t1.5 -29zM62 357q-1 -5 -1 -15.5v-27.5q0 -29 1 -67t2 -72.5t2.5 -59.5t1.5 -28q1 -11 49 -11q10 0 22 1t24 1q2 0 4 -0.5t4 -0.5l37 -6q16 -3 26.5 -5t15.5 -1q10 0 14.5 11.5t6 26.5t1 31t-0.5 25q0 14 -0.5 32.5t-1.5 43.5l-3 101l2.5 15t1.5 20
q0 64 -3 192q1 7 1 15.5v19.5v23t-1 26q-1 2 -16.5 3.5t-34.5 2.5q-22 1 -49 1q-10 5 -21 5q-19 0 -34 -4.5t-25.5 -10.5t-16 -12t-5.5 -9l-6 -70l3 -45q0 -6 -3 -19t-3 -20l5 -25q-1 -8 -1 -15.5v-16.5q0 -12 0.5 -26t1.5 -29z" />
    <glyph glyph-name="glyph1" horiz-adv-x="0" 
 />
    <glyph glyph-name="glyph1" horiz-adv-x="0" 
 />
    <glyph glyph-name="nonmarkingreturn" horiz-adv-x="333" 
 />
    <glyph glyph-name="space" unicode=" " horiz-adv-x="333" 
 />
    <glyph glyph-name="exclam" unicode="!" horiz-adv-x="316" 
d="M235 567q0 -5 -3 -23.5t-8 -50.5l3 -25q-9 -9 -9 -72q0 -14 0.5 -29.5t1 -28.5t1 -22l0.5 -9q-1 -3 -1 -14v-12.5t1 -15.5q0 -2 -2 -8.5t-4 -14t-4 -13t-2 -4.5q0 -6 1 -20t0.5 -29t-5.5 -28.5t-17 -17.5q-48 21 -48 81v6.5t1 9.5v16q0 18 -3 32v44q-17 60 -17 65v55
q2 12 3 21.5t1 17.5q0 28 -15 72v2q0 4 3 9.5t7.5 10t9.5 8t8 3.5q5 -1 10.5 -1h12.5q12 5 22 5q15 0 52 -19v-1zM239 -23q-11 -19 -18.5 -26.5t-12.5 -7.5h-3q-2 0 -3 -2.5t-2 -6t-3.5 -6t-6.5 -2.5q-3 0 -8 2t-8 2l-2 -1q-59 39 -59 58q0 15 21 36l18 17q10 21 28 21
q17 0 26.5 -12t32.5 -35q9 -9 9 -15q0 -9 -9 -22z" />
    <glyph glyph-name="quotedbl" unicode="&#x22;" horiz-adv-x="477" 
d="M388 556q0 -24 -7.5 -55.5t-18.5 -59t-23.5 -47t-21.5 -19.5q-10 0 -16 3t-10 13.5t-7 29.5t-7 51q0 2 -0.5 3.5t-0.5 3.5q1 7 1 17t2 24l3 23v4q0 6 -1 13.5t-3 16.5l24 14q14 -5 29 -5.5t28 -2.5t21 -7.5t8 -19.5zM228 574q5 -8 5 -27q0 -24 -5.5 -52t-13.5 -51
t-18.5 -38.5t-19.5 -15.5q-10 0 -16 3t-10.5 13.5t-7.5 29.5t-7 51q0 2 -2 9t-5 15t-5 15.5t-2 11.5q0 10 8.5 19.5t8.5 20.5q0 3 -0.5 6t-1.5 7l25 15q56 -18 67 -32z" />
    <glyph glyph-name="numbersign" unicode="#" horiz-adv-x="586" 
d="M402 413q-33 0 -81 3q0 -8 -3 -25t-3 -26q0 -21 14 -32l46 -3q59 -2 59 -20q0 -2 -3.5 -7.5t-10 -11.5t-16.5 -11t-23 -5q-7 0 -22.5 2.5t-22.5 2.5q-15 0 -23 -7q2 -9 4 -23t2 -32q0 -23 -6.5 -34.5t-15.5 -11.5q-8 0 -15 5.5t-12 14t-8.5 18t-3.5 17.5t3 22l3 24
l-12 12q-5 5 -14 5q-7 0 -23.5 -4t-23.5 -4q-2 0 -8 -8.5t-8 -8.5v-37q-2 -25 -13 -41.5t-23 -16.5q-17 0 -17 36q0 14 1.5 31.5t3.5 37.5q-50 -9 -70 -9q-22 0 -32.5 8.5t-10.5 19.5q0 7 8 15q0 2 -0.5 2.5t-0.5 2.5q0 11 12.5 15.5t23.5 4.5q7 0 21 -4.5t25 -4.5
q1 0 5.5 1t9 2.5l9 3t5.5 1.5l2 20q0 4 0.5 15.5t-1 23.5t-7 21.5t-17.5 9.5q-4 0 -11.5 -3.5t-15.5 -7.5l-15 -7.5t-10 -3.5q-22 0 -32 8.5t-10 18.5l2 7t5.5 15.5t7.5 15.5t9 7q43 -22 51 -22q1 0 6.5 1.5t12.5 1.5q1 0 10 7.5t11 6.5q-4 25 -6 43t-2 30q0 23 6 33.5
t12 10.5q7 0 16 -10q4 1 11 1q17 0 19 -11q-3 -11 -3 -23q0 -5 1 -12.5t1.5 -16.5t1.5 -17t1 -14q4 -4 9 -14q29 1 45 1h21q-1 3 -1 9q0 10 6.5 21t8.5 17l2 39q1 27 9 27q-1 0 3.5 -1.5t10.5 -5t11.5 -8t6.5 -10.5q-3 -11 -3 -23q0 -5 1 -12.5t1.5 -16.5t1.5 -17t1 -13
q6 -4 10 -10h47q24 0 41.5 -12t17.5 -23q0 -17 -36 -17zM268 345q6 4 6 11q0 3 -3.5 13t-3.5 18l-5 21l-25 11q-8 3 -12 3t-13.5 -3t-17.5 -3l-8 -16l3 -54q19 -14 64 -16z" />
    <glyph glyph-name="dollar" unicode="$" horiz-adv-x="399" 
d="M156 354q2 21 3.5 36t1.5 23q0 33 -17 65q-56 -3 -56 -39q0 -13 4 -26q-2 -8 -2 -12q0 -19 24 -31zM197 45q5 -18 5 -35q0 -22 -10 -22q-8 0 -18 12q-5 -1 -13 -1q-17 0 -18 10q2 8 2 9q0 8 -7.5 11.5t-18 5t-21.5 1.5t-19 1q-42 5 -66 23q-10 7 -10 49q0 28 11.5 43.5
t31.5 15.5q5 0 8.5 -11t6.5 -25t5.5 -27t5.5 -17q13 -25 45 -26l12 6l20 15q0 13 1 36.5t2.5 49.5t3 49.5t1.5 37.5q-6 0 -24 6t-38 15t-37 18.5t-22 15.5v2q0 4 -4.5 10.5t-10 13.5t-10 14t-4.5 12q0 10 -1.5 18.5t-0.5 16.5q0 58 28 77l86 45h21l9 5q-4 9 -4 19
q0 17 10.5 27.5t22.5 10.5q18 0 18 -19v-36l15 1q18 -8 79 -17l8 6l17 -3q22 -21 22 -51q0 -5 -2.5 -20t-7.5 -38l-12 -9q-11 1 -19 9t-15 18t-13.5 19.5t-12.5 12.5q-12 32 -25 32q-5 0 -23 -5l-13 -17q-1 -37 -3 -68.5t-4 -57.5l18 -3q10 -12 18 -15t16.5 -4.5t17.5 -6
t22 -19.5q9 -10 15 -14.5t12 -7.5t12.5 -6t17.5 -9l11 -36q18 -35 18 -43q0 -17 -22 -49q-5 -41 -46 -63l-76 -24q1 0 -24 6zM195 111q10 -15 16 -15t11.5 7.5t9.5 17t6.5 19t4.5 12.5q5 12 5 17q0 14 -7 23.5t-15.5 15.5t-15 9t-4.5 3q-9 0 -16 -16q5 -28 5 -46v-47z" />
    <glyph glyph-name="percent" unicode="%" horiz-adv-x="569" 
d="M302 226q-4 -5 -16.5 -26.5t-29 -51t-33.5 -62.5t-31.5 -60t-23 -43.5t-6.5 -13.5q-14 -18 -39 -18q-18 0 -18 19q0 -1 8 12t19.5 32.5t24.5 41.5t24 40t18 29t6 7q4 4 17 30.5t30 59t35.5 64t35.5 46.5q1 1 4 9.5t6 18.5t5 17.5l2 7.5q18 39 50 39q14 0 14 -15
q0 -7 -2.5 -14.5t-9 -19.5t-19 -30.5t-32.5 -47.5q-38 -53 -39 -71zM408 162q-26 0 -41 -14.5t-17 -31.5l-9 -16q-1 -5 -1 -9.5v-9.5q0 -35 14 -56t38 -21q19 0 30 11.5t16.5 27.5t7 32.5t1.5 25.5q0 27 -13 40zM440 191q16 0 28.5 -16t20 -37t11.5 -42.5t4 -32.5
q0 -10 -4 -26t-12 -31t-21.5 -26t-32.5 -11h-12q-5 -1 -17.5 -7.5t-15.5 -6.5q-11 2 -11 11l-16 5q-9 5 -13 12q-2 0 -2.5 -0.5t-1.5 -0.5q-7 0 -14.5 11.5t-14 26.5t-10.5 29t-4 19q0 6 2 16t5 22t5.5 25t3.5 25q8 4 14.5 16t32.5 23q6 2 10.5 4t7.5 4q4 2 5 3
q1 0 9.5 -2.5t18.5 -5t17.5 -5t6.5 -2.5zM110 332q-25 0 -41 -14.5t-17 -31.5l-9 -16q-1 -5 -1 -10v-10q0 -36 14.5 -56t37.5 -20q19 0 30 11.5t16.5 27.5t7 32.5t1.5 25.5q0 27 -13 40zM142 361q14 -1 25.5 -14.5t20 -33t13.5 -41t5 -39.5q0 -9 -3.5 -24.5t-11 -30.5
t-18.5 -26.5t-26 -12.5h-23q-5 -1 -17.5 -8t-15.5 -7q-11 2 -11 12l-16 5q-9 5 -13 12q-2 0 -2.5 -0.5t-1.5 -0.5q-7 0 -14.5 11.5t-14 26t-10.5 28.5t-4 20q0 5 2 15t5 22t5.5 25.5t3.5 25.5q7 4 14 16t33 23q20 8 22 11q-1 0 7.5 -2.5t19 -5t19 -5t7.5 -2.5z" />
    <glyph glyph-name="ampersand" unicode="&#x26;" horiz-adv-x="672" 
d="M641 59q4 -9 4 -20q0 -29 -38.5 -45t-102.5 -16q-44 0 -66 7q-29 25 -40.5 39t-13.5 36q-2 15 -9 19l-15 -13q-3 -1 -14.5 -11.5t-25.5 -22.5t-29.5 -22t-26.5 -10q-43 0 -66 1.5t-27 1.5q-11 2 -33 10t-56 22l-23 23q-14 14 -14 25v2q-4 1 -11 9.5t-14 19.5t-13.5 22.5
t-9.5 19.5v40q2 4 3.5 13.5t3 20t3 19.5t2.5 12t12.5 14t25.5 24.5t27 25t17 14.5l48 14q5 18 5 27q0 4 -16 46q-21 22 -21 39q0 5 3.5 20t3.5 27q20 27 61 51q1 8 11 13.5t25 9.5t31.5 5.5t30.5 1.5q16 0 28 -6t21 -13t14.5 -14t8.5 -8q29 -18 29 -44q0 -12 -7 -25.5
t-18.5 -27t-27 -25.5t-32.5 -21q-6 -3 -15 -14.5t-9 -19.5q0 -3 5 -7.5t12 -8.5t13 -7.5t9 -6.5q2 -2 8 -12t15 -22t20.5 -24.5t24.5 -20.5q3 -1 4.5 -6.5t3.5 -12t6 -11.5t12 -5q20 0 26 44l3 63q1 8 10.5 19t11.5 16q20 0 67 30q6 0 14.5 0.5t18.5 1.5t19 1.5t15 0.5
q29 0 49.5 -11.5t20.5 -40.5q0 -30 -25 -42q-14 2 -25 3t-21 1h-16.5t-17 -9t-32.5 -31.5t-62 -66.5q-14 -23 -14 -42q0 -29 28.5 -53t86.5 -28q19 0 25.5 1t11.5 -0.5t14 -8t35 -20.5zM274 465q7 8 7 19q0 17 -17 32t-36 15q-21 0 -31.5 -11.5t-10.5 -27.5q0 -42 47 -89
l21 4q5 9 10 23.5t10 34.5zM169 317q-11 -1 -24.5 -11t-25 -27t-19 -39.5t-7.5 -46.5q0 -56 31 -74q25 -14 49 -21t43.5 -10t33.5 -4t19 -3q12 3 32 26q16 6 20 13l1 16q1 37 -60 109q-25 29 -40.5 42t-25.5 18.5t-16 6t-11 5.5z" />
    <glyph glyph-name="quotesingle" unicode="'" horiz-adv-x="311" 
d="M233 555q0 -18 -11 -42t-28.5 -46t-40 -37.5t-45.5 -18.5q-20 -5 -20 -16q0 -4 5 -12q-4 -7 -15 -7q-16 0 -22.5 10.5t-6.5 23.5q0 40 35 55q16 1 26 9.5t15 19.5t7 22.5t2 18.5q0 35 -41 38q-5 0 -12.5 4.5t-14 11.5t-11.5 16t-5 19l12 48q8 17 25.5 30t40.5 13
q19 0 36 -6t29.5 -16t20 -23.5t7.5 -28.5q0 -3 -0.5 -5.5t-0.5 -5.5q0 -10 6.5 -27t6.5 -39v-9z" />
    <glyph glyph-name="parenleft" unicode="(" horiz-adv-x="500" 
d="M77 267l2 -28q-3 -9 -3 -23q0 -11 1.5 -25.5t1.5 -23.5q0 -5 -0.5 -8t-0.5 -6q7 -21 7 -40q5 -6 11.5 -19t12.5 -26t11 -24.5t7 -14.5q7 -12 16 -20t17 -12.5t14 -7t9 -4.5q1 -11 7 -20.5t12 -17t11.5 -13t7.5 -8.5q16 -6 19 -12t7 -12t14 -11.5t39 -9.5q28 -16 28 -46
q0 -13 -9 -28t-26 -15q-4 0 -9 2.5t-9.5 5t-7.5 4.5t-2 1q-32 13 -57 30t-44 33.5t-33.5 30.5t-24.5 21q-3 8 -18 35t-41 74q-45 79 -45 113q0 5 1.5 18.5t3.5 29t3.5 30t1.5 20.5q0 8 -2 18q1 14 3 30t5 33q4 5 11.5 22.5t16 37.5t18.5 38.5t21 26.5q9 7 19.5 17.5
t21.5 23.5l39 42q1 0 17 10t35.5 21t37.5 20.5t24 9.5q5 0 8 -3q34 -25 34 -50q0 -11 -6 -21t-15 -18t-20.5 -12.5t-22.5 -4.5h-5q-24 0 -94 -93q-62 -82 -81 -121z" />
    <glyph glyph-name="parenright" unicode=")" horiz-adv-x="485" 
d="M449 257q-1 -2 -2.5 -18t-5.5 -40t-10.5 -53t-17.5 -57v-33q0 -25 -2 -29l-121 -154q-6 -1 -12 -1t-12.5 -3t-15 -10.5t-19.5 -22.5q-7 -11 -13 -14.5t-11 -3.5q-16 3 -29.5 22t-13.5 38q0 8 1 13t5.5 9.5t15 8t29.5 8.5q19 4 27 30q4 6 10 14q5 7 12.5 17t18.5 24
q41 54 49 81v35q4 3 8 8.5t7.5 16t5.5 27t2 41.5q-7 32 -14.5 63t-16.5 62q-4 3 -14 17.5t-23 33.5t-28.5 38t-30.5 31q-14 3 -30 12t-29.5 20.5t-22 25t-8.5 25.5q0 11 10 23.5t31 12.5q48 0 70 -16q6 -5 14 -18.5t15 -17.5q65 -41 86 -93q2 -5 8.5 -12.5t13.5 -15.5
t13.5 -15.5t8.5 -11.5q1 -7 2 -16t3 -21q13 -26 36 -81z" />
    <glyph glyph-name="asterisk" unicode="*" horiz-adv-x="500" 
d="M305 554q0 -35 -15 -75q16 -9 31 -15q6 8 8 11t7.5 6.5t18 11.5t39.5 26l38 -37q0 -3 2.5 -9t5.5 -13.5t5 -15t2 -11.5q0 -13 -22.5 -25t-76.5 -24l4 -34q0 -5 4 -5q1 0 5.5 3t10 6t10.5 6t8 3q1 0 13.5 -7t40.5 -17l-3 -54l-20 -24q-16 -19 -26 -19q-29 0 -97 73
q0 -8 -10 -13t-10 -9q0 -2 3 -8.5t6.5 -14t6 -14t2.5 -9.5v-2l-3 -23v-4q0 -13 4 -29l-54 -15q-18 2 -29.5 4t-18 7t-9.5 14t-3 24q0 29 14 73l-1 -1q-5 0 -11.5 7t-8.5 6q-2 -2 -18.5 -12t-36.5 -14q-3 0 -19 -15q-39 6 -39 37q0 2 0.5 3.5t0.5 3.5l-9 21q-7 13 -7 21
q0 11 18 14.5t39.5 5.5t39.5 6.5t18 17.5q0 11 -27 13l-33 2q-8 8 -52 23l-10 52q40 45 57 45q9 0 23 -8t28 -19.5t24.5 -25t12.5 -25.5q0 2 6 5.5t12.5 7.5t12.5 6.5t6 3.5q0 2 -3 9.5t-6.5 16t-6 16t-2.5 10.5v2l3 23v6q0 11 -3 28l25 13q2 -1 36 -4q26 -2 32.5 -10.5
t6.5 -32.5z" />
    <glyph glyph-name="plus" unicode="+" horiz-adv-x="531" 
d="M406 177q-7 0 -24.5 1t-38.5 2t-42.5 2t-35.5 1h-16v-10q0 -3 0.5 -17.5t0 -35t-2 -43.5t-6 -42.5t-12 -32.5t-19.5 -13q-17 0 -17 36q0 10 1.5 31.5t3 45.5t3 46t1.5 32l-50 -6q-50 -6 -79 -6q-47 0 -47 14q0 6 10 15q-1 5 -1 13q0 17 10 18q35 1 73.5 1h80.5l-4 47
q-2 23 -3.5 42.5t-1.5 33.5q0 53 14 53q7 0 16 -10q4 1 11 1q17 0 19 -11l-2 -155q4 0 12 0.5t21 0.5q7 0 21.5 0.5t32.5 0t37 -2t34.5 -5.5t25.5 -11.5t10 -18.5q0 -17 -36 -17z" />
    <glyph glyph-name="comma" unicode="," horiz-adv-x="263" 
d="M187 87q11 -30 11 -56q0 -12 -0.5 -22t-4 -20.5t-11 -22t-20.5 -27.5q-9 -10 -11.5 -18.5t-6 -16.5t-11.5 -16.5t-27 -18.5q-21 -11 -31.5 -12.5t-13.5 -4.5q-14 -12 -26.5 -14t-22.5 -3q-9 17 -16.5 24t-7.5 15t9 16l47 27q17 10 27.5 22.5t10.5 26.5q0 16 -20 35
t-45 32q-2 5 -9 18t-7 25l1.5 5.5t4 13t4.5 14t3 7.5l15 23q6 9 14.5 13t16.5 4q3 0 13.5 -1t25 -4t31 -9t31.5 -16q5 -10 26 -39z" />
    <glyph glyph-name="hyphen" unicode="-" horiz-adv-x="308" 
d="M237 120q-4 -2 -5 -2q-4 0 -11.5 4t-10.5 4h1q0 -1 -59 -3q-26 5 -64 6q-3 -1 -11 -8t-18 -7q-23 0 -30.5 8.5t-17.5 29.5v3v16.5t5 31.5t18.5 30.5t39.5 13.5h5l21 -9q24 -11 37 -10h43q3 1 10 1q11 0 20.5 -7t16.5 -18.5t11 -26t4 -29.5q0 -16 -5 -28z" />
    <glyph glyph-name="period" unicode="." horiz-adv-x="249" 
d="M195 72q-18 -22 -28 -39t-16.5 -29t-13 -20t-17.5 -11l-38 5q-5 6 -16.5 18t-23.5 25t-21.5 25.5t-9.5 19.5q0 12 5.5 17.5t14 11t19 14t21.5 26.5l3 14q5 15 22 15q13 -5 24 -10q10 -5 19 -12t14 -15q4 -12 8.5 -15t9.5 -5.5t11 -9t13 -25.5z" />
    <glyph glyph-name="slash" unicode="/" horiz-adv-x="351" 
d="M163 202q-6 -6 -14.5 -23t-18.5 -39t-19.5 -46t-17.5 -43.5t-13 -31.5t-4 -11q-16 -22 -30 -22q-10 8 -17 16q-6 6 -11 12t-5 8q0 1 10.5 17.5t28.5 45.5t41.5 69t50.5 89q104 192 117 236q0 33 17 51t37 18q15 0 15 -15q0 -10 -8 -26q-3 -8 -87 -159q-69 -126 -72 -146z
" />
    <glyph glyph-name="zero" unicode="0" horiz-adv-x="464" 
d="M208 317q-27 0 -49.5 -7t-39 -18.5t-26.5 -26.5t-13 -31l-19 -28q-1 -8 -1.5 -16.5t-0.5 -16.5q0 -63 32 -100.5t83 -37.5q40 0 63.5 20.5t36 48.5t16.5 57t4 46q0 46 -29 72zM239 359q17 -1 33.5 -12t29.5 -33l44 -75q0 -4 1 -14t1.5 -21.5t1.5 -22.5t1 -16
q0 -38 -15 -53q-1 -9 -7.5 -25t-18 -31.5t-27 -27.5t-35.5 -13h-41q-3 0 -11.5 -4t-18.5 -8t-18.5 -7.5t-9.5 -3.5q-5 1 -12.5 7t-7.5 11q-23 5 -33 10t-18 16h-5q-17 0 -22.5 11t-10.5 23q-44 59 -44 98q0 7 4 23t8.5 35.5t9 40t6.5 37.5q17 8 46 44q1 2 12.5 7t25 10
t25 10t13.5 8q-1 0 14 -4t33 -8.5t32.5 -8t13.5 -3.5z" />
    <glyph glyph-name="one" unicode="1" horiz-adv-x="335" 
d="M202 33q1 -1 1 -6q0 -8 -8.5 -17.5t-21.5 -10.5q-7 2 -15.5 4t-18.5 3q-29 -17 -69 -17q-25 0 -47 7t-22 15q15 11 27 24q11 11 19.5 25t8.5 28v37.5t-1 32.5t-2 38t-3 53q6 7 6 23q0 12 -4 25t-11.5 24t-18 19t-22.5 11q0 30 40 30q8 0 18.5 -1t21.5 -3q5 1 19.5 7
t28.5 6q9 0 20.5 -3t22 -7.5t18 -10.5t7.5 -12q0 -12 -32 -23q-4 -7 -4 -41q0 -11 0.5 -19.5t0.5 -14.5q0 -7 -0.5 -10.5t-0.5 -4.5l-15 -86v-2q0 -2 2 -8.5t5 -14t5.5 -14t3.5 -9.5q-1 -5 -1.5 -12t-0.5 -16q0 -4 -1.5 -6.5t1 -7t12 -12.5t31.5 -23z" />
    <glyph glyph-name="two" unicode="2" horiz-adv-x="511" 
d="M338 0l-17 -8q0 -14 -11.5 -22.5t-25.5 -8.5q-11 0 -16.5 4.5t-5.5 20.5q0 3 0.5 6t0.5 5q0 16 -10 16l-14 -1.5t-36 -3.5t-49 -4.5t-52.5 -4.5t-45.5 -3.5t-29 -1.5q-30 0 -35 5t-5 13q0 26 38 62q37 14 57 22t32 14.5t19 14t17 21.5q8 1 16 13l13 17q15 8 22.5 17.5
t10.5 18.5t3 17v12q0 14 -11 25l-36 27l-17 5q-10 8 -20 8q-7 0 -19.5 -7.5t-25.5 -17t-24 -17t-15 -7.5q-9 0 -16 10.5t-7 20.5q0 5 4 10.5t9 11t9 9l4 3.5q5 18 12 25q17 7 42 14t57 15q11 -2 28 -3t40 -1q15 -13 29 -25t25.5 -24t18.5 -24.5t7 -26.5q0 -7 -1 -12t-4 -12
t-9 -19t-17 -32t-15.5 -29t-8 -12t-8.5 -2.5t-15 -0.5q-11 -2 -16.5 -7t-5.5 -11q0 -22 22 -25q3 2 10.5 6.5t16.5 9.5t18.5 9t17.5 4h7l22 -3q5 1 10 1.5t10 0.5q31 0 31 -23q0 -22 -27 -58q-6 -8 -6 -22v-6q0 -22 -3 -29z" />
    <glyph glyph-name="three" unicode="3" horiz-adv-x="437" 
d="M183 134q1 -1 8 -1.5t15.5 -2.5t16 -5.5t9.5 -10.5q4 -14 8.5 -27.5t11.5 -24.5q-1 -1 -1 -5q0 -18 6 -33.5t6 -24.5q0 -26 -8 -42t-17.5 -25t-18 -12.5t-9.5 -4.5q-4 -18 -23 -30.5t-44 -31.5q-5 -8 -14 -14t-29 -6q-24 0 -44 5.5t-20 16.5q0 5 17.5 15.5t38.5 20.5
t37.5 17t14.5 5q18 19 18 51q0 61 -47 99q-1 1 -3 1q-1 0 -11 -5t-23 -10.5t-25 -10.5t-17 -5q-7 0 -14 4.5t-7 15.5q0 14 50 49q53 38 53 51q27 27 41 71q-3 17 -5 29.5t-6 21t-12.5 13t-24.5 4.5q-31 0 -59 -18q-5 -4 -11 -4q-15 0 -15 25q0 22 12 34q2 16 8.5 27.5
t13.5 11.5q3 0 7 -1t7 -1q2 0 11 6.5t17 6.5h63q7 0 18 -6t22 -13.5t21 -14t16 -8.5q8 -2 12 -23t9 -51q-2 -1 -5 -15t-16 -48q-2 -2 -11 -10t-19.5 -17.5t-19 -20t-9.5 -18.5z" />
    <glyph glyph-name="four" unicode="4" horiz-adv-x="526" 
d="M385 21q7 -7 7 -14q0 -8 -11.5 -9.5t-26.5 -2.5t-29.5 -5t-20.5 -16q-6 -14 -10 -25.5t-3 -22.5q0 -8 3.5 -23.5t3.5 -24.5q0 -8 -2.5 -18t-7.5 -19t-12.5 -15t-16.5 -6q-1 0 -9 5t-17 14t-16.5 22t-7.5 30q0 8 2 26t2 28v9t-2.5 14.5t-8 13.5t-15.5 6q-25 0 -43.5 -2
t-30.5 -5q1 0 -7.5 1.5t-26.5 3.5h-9q-6 0 -17 -0.5t-22 1.5t-20 7.5t-11 17.5q3 8 10 20.5t15.5 26.5t16.5 29t11 28q4 18 4 23t3 12t14.5 22.5t40.5 53.5q19 18 37 44.5t37 48.5l45 53q2 2 11 6.5t20 4.5q18 0 34.5 -29.5t16.5 -87.5q0 -18 -2.5 -42t-7.5 -53
q-1 -4 -1 -13q0 -11 3.5 -24.5t3.5 -30.5q0 -10 -5 -21.5t-5 -14.5q0 -2 3 -7.5t8 -5.5t18 13l24 23q25 -7 30 -70zM220 274q0 5 -8 5q-10 0 -21 -24l-11 -23l-34 -36q-20 -27 -23 -47q-13 -3 -20.5 -17t-12 -28.5t-5.5 -26t-1 -10.5q4 -6 12.5 -9.5t19 -5t21 -1.5h19.5
q34 0 45 17t11 52q0 23 -1.5 37.5t-1.5 20.5q0 2 0.5 3t0.5 2q11 30 11 66v12t-1 13z" />
    <glyph glyph-name="five" unicode="5" horiz-adv-x="436" 
d="M343 366q-31 -28 -41.5 -48t-15.5 -25h1q-6 1 -14 1h-17t-24 1l-3 11q-47 32 -75 32q-3 0 -10.5 -1.5t-15 -5t-13 -10.5t-5.5 -19q0 -2 2 -4q-2 -4 -2 -7q0 -11 8 -21.5t16 -10.5l15 -29q10 -19 20 -24v-3q0 -8 5 -18t11 -20t11 -18.5t5 -13.5t-1.5 -12.5t-3 -14t-3 -12
t-1.5 -6.5q0 -5 1 -14.5t1 -22.5q0 -17 -6 -35t-13.5 -34t-14.5 -28t-10 -16q-27 -42 -77 -68q-12 -6 -13.5 -16t-13.5 -21q0 1 -10.5 1t-23 1.5t-23 7t-10.5 17.5q0 9 4 20l24 24l11 1q74 80 74 142q0 3 -0.5 6t-0.5 6l-7 7q3 7 3 18q0 17 -6.5 41.5t-16.5 47t-21.5 40
t-20.5 21.5q-17 17 -17 36q0 18 17.5 42t37.5 49h-1q0 2 12 10.5t29.5 18t38 17t37.5 7.5q22 0 44 -8q13 1 24 6q5 -1 9.5 -1.5t9.5 -0.5q10 0 18 3q19 39 39 39q28 0 28 -54q0 -14 -5 -32zM138 -5q-4 -4 -12 -14.5t-16.5 -22.5t-14.5 -22t-6 -13q0 -2 1 -2l11 1q6 6 16 21
q12 1 20.5 11.5t8.5 21.5t-8 19zM72 -99q-3 -5 -3 -9q0 -5 5 -5q9 0 9 7q0 2 -3 7h-8z" />
    <glyph glyph-name="six" unicode="6" horiz-adv-x="487" 
d="M169 283q-42 0 -62 -20t-24 -43l-15 -23q-1 -8 -1.5 -14.5t-0.5 -13.5q0 -51 24.5 -82.5t65.5 -31.5q63 0 81 56q20 62 20 91q0 33 -30 47q-46 21 -58 34zM310 440q-13 0 -29.5 -9.5t-31.5 -20.5t-26 -20.5t-12 -10.5q-10 -17 -21 -25t-11 -15q0 -4 6 -9.5t13 -12t13 -13
t7 -11.5q6 1 11 1h10q17 -1 27.5 -2.5t21 -8.5t23.5 -22.5t36 -43.5q0 -3 1 -12t1.5 -20.5t1.5 -22t1 -16.5q0 -37 -15 -50q-2 -16 -9.5 -32.5t-23 -30t-39 -22t-56.5 -8.5q-3 0 -11.5 -3.5t-18 -7.5t-17.5 -7t-9 -3q-5 0 -13 5.5t-8 11.5q-25 6 -34 10t-16 14h-5
q-17 0 -22.5 11t-10.5 22q-47 61 -47 106q0 9 3.5 26t7.5 36.5t7.5 39t4.5 33.5q14 8 18 14t8 14t13 21t33 35q18 15 23 33q11 5 19 12.5t14.5 15t12 12.5t11.5 5q5 0 11 -0.5t12 -0.5q13 0 19.5 3.5t23.5 26.5q19 25 29 25q3 0 9 -2t12.5 -5t13 -5t10.5 -2q6 0 11 3
q28 18 55 18q25 0 25 -22q0 -8 -8 -15.5t-19.5 -14.5t-24.5 -12t-24 -6zM85 301q-1 0 -1.5 0.5t-2.5 0.5q-5 0 -10 -6t-5 -12q0 -5 5 -7q8 0 14 24z" />
    <glyph glyph-name="seven" unicode="7" horiz-adv-x="482" 
d="M361 314q-18 -6 -18 -13v-20q-6 -5 -16 -12t-19.5 -14.5t-17.5 -15.5t-9 -15q-4 -19 -5.5 -26.5t-5.5 -12.5t-13.5 -13.5t-28.5 -28.5q-35 -35 -34 -48v-2q-15 -25 -23.5 -41t-13 -29.5t-5.5 -27t-1 -31.5q0 -110 4 -114q-5 -7 -8.5 -15.5t-8 -15.5t-11 -11.5t-15.5 -4.5
q-10 0 -32 5l-19 -5q-2 1 -8.5 11t-13 22.5t-11.5 25.5t-5 21q1 9 5 19.5t15 21.5l33 34q2 14 12.5 44t27.5 75l27 77q10 24 19.5 37.5t16.5 20.5t11 10.5t4 8.5q0 11 -11.5 20.5t-24.5 9.5q-12 0 -18 -9h-8q-18 8 -27 8h-4.5t-4.5 -2t-8.5 -6t-14.5 -11q-20 -16 -33 -16
q-11 0 -18.5 10.5t-7.5 21.5q0 2 0.5 3t0.5 3q-5 9 -7 22q5 11 8 22t12 16q1 0 1 -1t-1 -1q-2 1 -4 9q6 9 6 21q0 6 -2 17.5t-2 17.5q0 13 12 26t35 13q8 0 15 -8t12.5 -18t9.5 -19t6 -10l63 6q28 3 63 18q10 -5 23 -5q9 0 15 3q20 -1 38 -3q15 -2 28.5 -3t16.5 -2
q6 -20 6 -29v1q-2 0 -8 -42zM190 338l-7 -7q3 -6 8 -6q10 0 10 9q0 4 -7 4h-4z" />
    <glyph glyph-name="eight" unicode="8" horiz-adv-x="469" 
d="M267 -66q-3 -4 -7 -9.5t-10.5 -11t-17.5 -9.5t-27 -6q-17 -2 -33.5 -10.5t-21.5 -8.5q-3 0 -9 2.5t-12.5 6t-13.5 6t-11 2.5q-16 0 -26.5 14t-19.5 28q-3 5 -12.5 6.5t-10.5 5.5q-14 51 -14 84q0 18 3 36q1 9 54 50q52 40 52 56q0 12 -30 17l-56 58q-18 19 -26.5 34
t-9.5 26q0 1 0.5 3t1 6.5t1 13.5t1.5 24q1 17 4.5 26.5t10.5 16.5t18 15t26 22q33 30 51 41q18 0 33.5 4t29.5 4q4 0 11.5 -3t16 -7t16.5 -7.5t14 -3.5q20 -11 23 -33q47 -29 47 -91q0 -35 -13 -70q-9 -6 -17 -14t-15 -15.5t-13.5 -12.5t-13.5 -5h-7q-3 1 -7 1
q-10 0 -26 -25q4 -11 13.5 -20t21 -16.5t21.5 -14t14 -10.5q5 -6 12 -16t13 -23t10.5 -28t4.5 -29q0 -7 -4 -18t-5 -16l-2 -39q-1 -23 -16 -34zM250 333q11 14 11 29q0 13 -8 27t-20.5 25.5t-27.5 18.5t-30 7q-19 0 -34 -7t-23 -14q-4 -4 -10 -15.5l-12 -23t-10 -20t-4 -6.5
q0 -19 9 -36.5t20.5 -31.5t21 -24t9.5 -14q7 -6 17 -6q13 0 28.5 6t29 18t23 29t10.5 38zM199 139q-10 13 -22 13q-11 0 -25.5 -13.5t-28 -32t-23.5 -38.5t-12 -33q-1 -6 -1.5 -11t-0.5 -10q-1 -17 6 -28.5t19 -22.5l46 -39l21 4q2 0 4.5 -0.5t4.5 -0.5q54 0 54 91
q0 14 -0.5 24t-3 19.5t-8.5 19t-18 21.5q-12 13 -12 32v5z" />
    <glyph glyph-name="nine" unicode="9" horiz-adv-x="475" 
d="M365 137q-10 -26 -10 -43v-4q-3 0 -8 -8.5t-10 -19t-8.5 -18.5t-2.5 -7q-17 -25 -56.5 -62.5t-100.5 -88.5q-23 -7 -39.5 -13.5t-20.5 -23.5q-6 0 -15.5 2.5t-14.5 2.5t-11.5 -3.5t-13.5 -7t-13.5 -7t-11.5 -3.5q-14 0 -27 18.5t-13 38.5q0 28 28 29l7 -5q34 0 56.5 2.5
t39 11t30.5 24.5t32 43q17 6 17 17q0 23 -36 41l12 18q4 6 14.5 12t21.5 10.5t20 7t10 3.5q19 11 27 25t8 39q0 7 -0.5 15t-0.5 17l-20 40q-7 14 -13.5 19t-13.5 5q-18 21 -48 21q-35 0 -64 -22v-20q-5 -12 -5 -18q0 -3 2 -7q-1 -11 -1 -21v-18q0 -35 8.5 -56t30.5 -36
q0 -4 0.5 -7t0.5 -5q0 -34 -31 -34q-17 0 -37.5 11t-38.5 27.5t-30 37t-12 40.5q0 12 5 25q-2 10 -3 17.5t-1 13.5q0 2 0.5 3t0.5 3l10 34q10 21 40 57q12 0 23 3q9 2 16.5 7.5t8.5 16.5q7 9 13 14t15 7.5t22.5 3t35.5 0.5q2 -1 12 -4t28 -7q19 -5 27 -13t12.5 -16t11 -14
t24.5 -6l8 -15q14 -27 22 -42.5t13 -29.5t8.5 -31t9.5 -47zM68 196q-4 -8 -4 -13q0 -15 10 -20q3 6 3 15q0 7 -3 18h-6zM176 -74q8 10 8 17q0 11 -17 13l-4 -2v-6q0 -23 9 -23q1 0 2 0.5t2 0.5zM127 -92l-19 -3q1 -7 9 -7q10 0 10 8v2z" />
    <glyph glyph-name="colon" unicode=":" horiz-adv-x="334" 
d="M207 283l-8 -14q-5 -8 -10 -11t-9 -3q-7 0 -17 12l-26 27l-23 11q-10 7 -10 23q0 30 22 43l46 20q11 -6 26 -11h4q23 0 35.5 -15.5t12.5 -32.5q0 -10 -17 -27zM236 96q16 -16 16 -45q0 -39 -35 -59q-1 -5 -6 -16.5t-22 -13.5h-29q-11 7 -18 24l-12 24q-6 5 -18.5 18
t-12.5 28q0 10 2.5 17.5t10.5 16.5t22 21t37 30q4 3 8 3t13 -7t18.5 -16t16.5 -16.5t9 -8.5z" />
    <glyph glyph-name="semicolon" unicode=";" horiz-adv-x="387" 
d="M290 326q0 -5 -3 -15l-9 -18q-13 -7 -31 -23q-13 -12 -20 -18.5t-11 -9.5t-5.5 -3.5t-4.5 -0.5q-7 0 -20 11.5t-25.5 25t-22 24.5t-9.5 10q0 12 7 24.5t15.5 22.5t14.5 15.5t4 4.5q7 7 20 15t27 8q9 0 17 -14l19 -28q16 -7 37 -27v-4zM307 27q0 -19 -2 -42.5t-22 -59.5
q2 -5 4 -18q-20 -59 -49 -66q-4 2 -8 2q-9 0 -17.5 -5t-11.5 -12q-19 -4 -32 -4q-17 0 -22 14t-5 28q0 13 6.5 19t16.5 9t21 4.5t21 5t16.5 11.5t6.5 23q0 4 -4.5 12t-9.5 16.5t-10 16t-5 9.5h-7q-8 -8 -19 -8t-22.5 5.5t-21 13.5t-16 18.5t-6.5 20.5q0 6 8.5 19.5t20.5 28
t25.5 25.5t24.5 11q6 0 36 -12l26 -4q31 -15 47 -40q-1 -2 -1 -6q0 -8 5.5 -20.5t5.5 -14.5zM225 302q3 6 3 11q0 8 -9 13q-5 -3 -5 -10q0 -14 11 -14z" />
    <glyph glyph-name="less" unicode="&#x3c;" horiz-adv-x="458" 
d="M271 72q-8 -10 -8 -16q0 -4 3 -10.5t3 -9.5q0 -9 -9.5 -15t-39.5 -8q-76 38 -206 153q-3 3 -3 13q0 5 1 13t1 13q0 8 -2 9q11 7 20.5 17.5t21 23t27.5 25.5t40 25q6 0 23.5 9.5t37 20.5t37 20.5t22.5 9.5q22 0 22 -25q0 -11 -9.5 -22t-23 -20t-27.5 -14.5t-23 -5.5
q-44 -32 -64 -48t-20 -30q0 -41 97 -89q27 -14 33 -13q5 0 8 1z" />
    <glyph glyph-name="equal" unicode="=" horiz-adv-x="586" 
d="M32 110q-1 5 -1 12q0 16 10 19q9 -3 20 -3q5 0 13.5 1t17.5 2.5t17.5 2.5t14.5 1q10 0 21.5 -3t13.5 -3q3 0 3 1t-3 3t-2 2l5 1q10 0 64 -1.5t153 -3.5q24 -1 41.5 -11.5t17.5 -22.5q0 -18 -36 -18q-8 0 -44.5 1.5t-102.5 5.5q-20 -3 -61 -3h-6q-9 0 -26.5 -2.5
t-36.5 -5.5t-36.5 -5.5t-26.5 -2.5q-20 0 -29.5 5.5t-9.5 12.5q0 6 9 15zM35 244q-1 5 -1 13q0 17 10 18q9 -3 20 -3q5 0 13.5 1t17.5 2.5t17.5 3t14.5 1.5q5 0 10 -1t10 -3t12 -3q4 0 6 2q0 1 -3 3t-2 2h5h12q22 0 73 -1t132 -3q24 -1 41.5 -12t17.5 -23q0 -17 -36 -17
q-17 0 -147 6l-61 -3h-8q-9 0 -25 -2.5t-33.5 -5.5t-34 -5.5t-26.5 -2.5q-22 0 -33 6t-11 12q0 7 9 15z" />
    <glyph glyph-name="greater" unicode="&#x3e;" horiz-adv-x="427" 
d="M297 217q-3 -2 -3 -9q0 -5 1.5 -13t1.5 -13q0 -10 -3 -13q-131 -116 -206 -152q-17 1 -27 3t-15 5t-6.5 6.5t-1.5 7.5q0 3 3 9.5t3 10.5q0 8 -7 16l38 27q2 -1 8 -1q7 0 33 13q97 48 97 89q0 13 -19.5 29.5t-64.5 48.5q-9 0 -23.5 6t-27.5 15t-22.5 20t-9.5 22
q0 24 22 24q5 0 22.5 -9.5t37 -20.5t37 -20.5t23.5 -9.5q24 -12 39.5 -25t27 -25.5t21 -23t21.5 -17.5z" />
    <glyph glyph-name="question" unicode="?" horiz-adv-x="452" 
d="M392 460q1 -1 1 -5q0 -5 -2 -14t-4.5 -17.5t-4.5 -15t-2 -5.5l-9 -50q-4 -12 -14.5 -23t-12.5 -16l-12 -46q-16 -7 -32.5 -17t-30 -21.5t-22 -24t-8.5 -24.5q0 -11 10 -25q-9 -29 -35 -29q-19 0 -36 15.5t-17 35.5q0 6 3 14q-3 1 -3 7.5v11.5q0 13 3 21t9 14.5t14.5 14
t19.5 19.5q13 17 15.5 25t6.5 12q39 40 39 54q6 7 11.5 21t10.5 28t8.5 25.5t5.5 13.5q0 8 -6 22l-12 38l-17 12q-16 11 -23 11q-10 0 -17 -10q-3 3 -6 3q-6 0 -16 -10l-17 -14q6 -20 21 -102q-33 -37 -65 -37q-7 0 -16 7.5t-17 19t-13.5 24.5t-5.5 24q0 23 34 85q1 3 8 4
l25 24q16 14 24 14h1q13 8 34 8q20 0 31 -0.5t17.5 -1t10.5 -2t10 -4.5l24 -12q49 -15 79 -102zM293 29q7 -6 7 -16q0 -8 -3 -14t-11 -13.5t-21 -19.5t-32 -31q-5 -3 -11 -3q-9 0 -20 8t-20.5 20.5t-16 26.5t-6.5 26q0 7 2 10.5t4.5 6t6 4t6.5 5.5q1 1 6 8.5t11.5 16.5
t13.5 16t12 7q11 0 28.5 -16.5t43.5 -41.5zM158 389q9 0 9 8q0 10 -12 15q-10 -1 -10 -10q0 -14 7 -14q3 0 4 1h2z" />
    <glyph glyph-name="at" unicode="@" horiz-adv-x="574" 
d="M398 495q21 -20 32 -32t16.5 -21t7 -17.5t2.5 -21.5q9 -14 9 -23q0 -12 5 -18.5t10.5 -13t10.5 -15t5 -24.5q0 -26 -8 -52t-19.5 -48.5t-25.5 -39.5t-26 -24q-11 -7 -35.5 -12t-66.5 -13h-8q-9 0 -13.5 2t-7 6t-5 10t-8.5 14h-2q-7 0 -13.5 -7t-9.5 -8q-17 -8 -54 -18
q-4 0 -6 0.5t-4 0.5h-3q0 1 1 1q-4 -1 -7 -1.5t-7 -0.5q-7 0 -17 3.5t-19.5 10t-16 16t-6.5 21.5q0 10 5 23.5t20 21.5l16 4q12 4 12 13q2 0 9 3.5t20 9.5q3 0 15 6t16 7t14 2.5t20 4.5t17.5 7t7.5 9q0 9 -5 20t-5 16v6q0 4 -4.5 8.5t-10.5 8t-12 5.5t-9 2t-8.5 -5t-11 -12
t-9.5 -13t-4 -8q0 -3 2.5 -9.5t2.5 -10.5t-6 -6.5t-13.5 -4t-13.5 -2t-7 -0.5q-16 0 -29 6.5t-13 32.5q0 13 16.5 32t54.5 24q5 -2 12 -4t13 -2q10 0 21 3.5t24 3.5q49 0 78 -23q4 -10 16 -26q0 -11 0.5 -19.5t0.5 -14.5t-0.5 -9.5t-0.5 -5.5v-35q0 -5 -1.5 -15t-1.5 -22
q0 -16 12 -32l46 15q6 4 34 54q15 0 15 13q0 11 -14 33q-5 37 -7.5 56.5t-3.5 23.5q-12 46 -47 69q-15 22 -25 35t-18 20t-16 8.5t-19 1.5q-16 0 -35 -6q-7 2 -16.5 4t-22.5 4q-8 0 -32.5 -6.5t-64.5 -15.5q-89 -48 -89 -130q0 -4 0.5 -8t0.5 -8q0 -3 -3.5 -18t-8 -31.5
t-8 -28.5t-3.5 -10l14 -77q10 -39 43 -69q64 -94 200 -94q31 0 60 6q17 -23 17 -36q0 -23 -38 -23h-8.5t-9.5 1l-68 15q-39 16 -84 30q-8 1 -28 13t-41 27.5t-37.5 30.5t-16.5 23q0 3 2 10t2 11q0 11 -15 22q-2 16 -4 33.5t-12 26.5q-2 5 -3 12.5t-1 18.5q0 34 9 102
q1 8 9 20t10 17q0 6 1.5 14.5t3.5 19.5l21 27q3 13 18 36l58 52q17 14 34 22t33 8q6 0 20 -2.5t30.5 -5.5t31.5 -5.5t21 -2.5q20 0 31 9l34 -25q5 -2 12 -6.5t17 -10.5zM271 222q-1 4 -14 4q-6 -1 -14.5 -4t-16.5 -7.5t-14 -10t-6 -10.5t9.5 -11.5t28.5 -6.5q15 0 23.5 8
t8.5 21q0 9 -5 17z" />
    <glyph glyph-name="A" unicode="A" horiz-adv-x="598" 
d="M548 18q-2 -9 -9.5 -13t-15 -5.5t-14 -2t-7.5 -1.5q-8 2 -20.5 3t-29.5 1t-39 -2t-49 -2q-15 0 -25 10t-10 24q0 7 8 17t17 19t17 14.5l8 5.5q0 1 0.5 1.5t0.5 1.5q0 11 -5 19t-3 7l-16 63q0 7 -3 20t-9.5 25.5t-17 22t-24.5 9.5q-4 0 -7 -1.5t-5 -1.5q-6 0 -14 2t-10 2
q-4 0 -12 -0.5t-20 -1.5l-13 -3q-6 8 -16 8q-11 0 -19 -6.5t-8 -17.5q0 -3 1 -5q-24 -35 -34.5 -64.5t-10.5 -57.5q0 -4 -4 -14.5t-4 -16.5q0 -13 14 -19.5t26 -12.5l16 -19q-2 -4 -2 -11q0 -6 3 -7q-4 -3 -9 -7.5t-13 -9.5q-24 6 -80 6q-5 0 -8.5 0.5t-7.5 -0.5t-9 -3
t-14 -7h-6q-9 0 -17 1.5t-14 6.5t-9 14t-3 25q0 6 7.5 13.5t16 15.5t16 16t7.5 16v3q13 22 31.5 63t41.5 102q3 5 6 15.5t5 21t3.5 19t3.5 11.5q43 77 49 130q18 3 18 20q0 2 -0.5 3.5t-0.5 3.5q19 22 19 33q0 6 -12.5 14t-15.5 17q1 11 39 28q8 3 9 14t2.5 22.5t7.5 20.5
t24 9q21 0 38 -15q0 -3 3.5 -9.5t7.5 -13t8 -11.5t4 -6q4 -11 8.5 -22.5t13 -32.5t22.5 -55.5t36 -89.5q7 -33 12 -48t9.5 -25t8 -21t7.5 -35q7 -23 12.5 -39.5t11 -32t11.5 -34t15 -43.5q7 -30 47 -64q5 -5 5 -15q0 -5 -2 -15zM321 315q1 -2 -2.5 8t-9.5 26t-13.5 35
t-15.5 35t-14.5 27t-10.5 11q-15 0 -24 -62q-5 -4 -11 -12t-10.5 -17.5t-7.5 -19t-3 -16.5q0 -5 2 -11v-3q0 -8 5 -12t13 -6t18 -2h19q55 0 65 19z" />
    <glyph glyph-name="B" unicode="B" horiz-adv-x="476" 
d="M412 110q1 -5 1 -14q0 -23 -12.5 -41.5t-33 -32t-48 -21t-57.5 -7.5q-24 0 -39 4h-19.5t-40.5 -1t-46 -4t-36 -9q-1 -1 -5 -1q-10 0 -24 14h-4q-19 0 -19 14q-1 5 2 11.5t8 17.5l12 26q9 21 9 55q0 4 -0.5 14.5t-1 21.5t-1 21t-0.5 15q0 11 1 17.5t2 13.5t2 16t1 26
q0 22 -2 59.5t-4.5 73.5t-4.5 62.5t-3 28.5q-2 3 -9 8t-15 10.5t-14.5 12t-6.5 13.5q0 11 11.5 18t26 11.5t28 7t17.5 3.5q6 2 9 2q6 0 13.5 -2t15 -5t14 -5t9.5 -2q10 0 23 2.5t26 5.5t24.5 5.5t18.5 2.5q40 0 101 -40h6q25 0 39 -31.5t14 -78.5q0 -28 -2.5 -47.5t-9 -34
t-18.5 -24.5t-30 -19q-20 -10 -25 -24q3 -3 15 -8t27 -13.5t30.5 -20t25.5 -27.5q2 -21 5 -35.5t3 -18.5q0 -7 -9 -46zM253 494q-26 29 -46 29q-7 0 -14 -3q-7 10 -15 10q-9 0 -23 -20q0 -8 0.5 -18.5t0.5 -22.5q0 -13 -0.5 -27t-0.5 -31l-7 -10q3 -22 4 -43.5t5 -40t12 -32
t24 -18.5l9 15q22 0 41.5 15t32.5 50v11q11 19 11 55q0 8 -0.5 17t-1.5 20zM288 195q-7 26 -30.5 41.5t-50.5 15.5q-65 0 -65 -69q0 -14 3.5 -25t3.5 -31q0 -7 -0.5 -17t-0.5 -23q0 -38 20 -52.5t42 -14.5q18 0 35.5 9t31.5 24t22.5 34.5t8.5 40.5q0 12 -3 23q3 7 3 15
q0 6 -1 9z" />
    <glyph glyph-name="C" unicode="C" horiz-adv-x="606" 
d="M551 427q-6 -10 -11.5 -21t-14.5 -11q-11 0 -21 22l-15 33q-20 32 -39 49t-37 26t-37 14t-39 13l-5 -5h-4q-12 0 -18 -7q-10 5 -16 5t-14 -5t-16 -11.5t-15 -12.5t-11 -7q-7 -1 -15.5 -1.5t-18.5 -6t-20 -17.5t-20 -36q-16 -10 -22 -24t-13 -20q-1 -7 -2.5 -21.5t-3 -30
t-2.5 -30t-1 -21.5q0 -9 2.5 -21.5t5.5 -25t5.5 -22.5t2.5 -13q5 -9 10.5 -25.5t15.5 -36t28 -40t49 -36.5q30 -15 44 -26h9q14 -10 41 -10q43 0 43 1q17 0 39 13t41.5 30t33 32.5t13.5 21.5q0 15 8.5 19.5t13.5 4.5q17 0 17 -39q0 -21 -5 -36v-7q0 -16 -4 -31.5t-11 -27.5
t-15.5 -19.5t-18.5 -7.5q-16 0 -33 17h-3q-9 0 -26 -7l-32 -12q-12 -2 -40.5 -3.5t-73.5 -1.5q-201 0 -272 230q-4 12 -4 28q0 12 3 34t3 34q0 14 -4 25q10 17 13 28.5t5 23.5t7 26.5t19 37.5q16 25 16 37q72 66 107 66h4q43 28 117 28q14 0 42 -5t57.5 -11t53 -11t29.5 -5
q2 0 8.5 2t14 4.5t15.5 4.5t14 2t10.5 -5.5t7.5 -13.5t4.5 -17t1.5 -17q0 -5 -0.5 -14t-1.5 -19.5t-1.5 -20t-0.5 -13.5q0 -14 3 -24zM121 424q10 7 10 21q0 17 -13 17q-18 0 -18 -17q0 -22 15 -22q4 0 6 1z" />
    <glyph glyph-name="D" unicode="D" horiz-adv-x="600" 
d="M420 63q-25 -13 -46 -24q-18 -9 -35 -17t-22 -8q-27 -2 -57 -7t-62 -13h-3q-5 0 -18 2.5t-27 5t-26 5t-14 2.5q-6 0 -15 -2t-18.5 -4t-18 -4t-14.5 -2q-22 0 -41 16q1 12 16 22q16 10 21 25t5 42q-1 8 -1 15.5v12.5q0 13 1 16l3 13q-4 15 -4 31q0 10 3 19q0 17 -0.5 42
t-1.5 59q4 4 4 17q0 4 -1 11.5l-2 15t-2 14t-1 9.5l8 13q-2 25 -4.5 49t-6.5 42t-11.5 29t-19.5 11q-4 0 -12 -2l-12 8q-1 1 -1 5q0 15 42 40q2 2 8 2q5 0 8 -1l17 -4q7 2 22.5 4.5t32.5 2.5q3 0 8 -3q3 3 9 3q3 0 9.5 -1.5t13.5 -3.5t13.5 -3.5t9.5 -1.5q1 0 13.5 3t29 7
t32.5 7t25 3q19 0 35.5 -6t26.5 -10l10 1q177 -89 177 -270q0 -24 -5 -59t-16 -69t-30.5 -61.5t-47.5 -36.5zM457 187q-4 -4 -4 -12q0 -10 6 -10q13 0 13 11t-12 11h-3zM424 304q0 162 -97 194q-2 2 -10 8.5t-18.5 13.5t-20.5 12.5t-16 5.5q-10 0 -16.5 -1t-9.5 -1
q-11 0 -20.5 2t-17.5 2q-53 0 -53 -55q0 -34 2.5 -59t2.5 -33q0 -33 -3 -79q1 -5 1 -15q0 -5 -1 -12.5t-2 -15.5t-2 -15.5t-1 -11.5q0 -10 3 -16q0 -5 -1.5 -18t-3 -28t-2.5 -29t-1 -20q0 -60 41 -80q9 -4 21 -16q4 2 10 2q5 0 9 -0.5t9 -0.5q6 0 8 1l10 -3q98 35 114 47
q20 16 32 44.5t30 76.5q4 8 4 14t-4 10q0 3 3 18t3 23t-3 11v24z" />
    <glyph glyph-name="E" unicode="E" horiz-adv-x="484" 
d="M427 5q-5 -6 -14 -6q-5 0 -10 8.5t-13 8.5q-4 0 -12.5 -10t-10.5 -11q-3 0 -6.5 0.5t-7.5 0.5q-6 0 -13.5 -0.5t-15.5 -1.5q-3 -2 -7 -4q-6 -3 -12 -3q-3 0 -15.5 6t-36.5 6h-88h-70h7h8.5t12.5 1q-40 -2 -45 -11q-15 -4 -27 -4q-6 0 -14.5 3t-16 8t-12.5 12t-5 15
q0 5 9.5 11.5t21 15t21 17.5t9.5 18q2 8 2.5 24.5t1.5 41.5q-2 8 -7 27t-5 42q0 7 1 18t3 26l-2 45l2 57q1 15 -1 37.5t-4 51.5q1 5 1.5 14t0.5 22q-1 16 -8 16q-2 0 -2.5 -0.5t-2.5 -0.5q-15 0 -27.5 13.5t-12.5 28.5q0 26 29 26q18 0 39.5 -5t48.5 -5q8 0 17 2t18 5l18 -3
q8 1 24 2.5t39 4.5q-1 0 9 -3t30 -3q17 0 32 1.5t21 1.5q9 0 21.5 -2t24 -6.5t19.5 -11t8 -15.5q0 -22 -5 -48.5t-16 -50.5q-14 3 -32 15q-1 4 -4 13t-11 20t-29 19.5t-39 17.5q1 0 -3 -0.5l-12 -1.5q-5 1 -13 1h-18q-4 -1 -8 -1h-3q0 -1 2 -1q-6 8 -13 8q-6 0 -12 -6.5
t-11.5 -15t-10 -17.5t-6.5 -15q-2 -8 -2 -12q0 -6 1.5 -11.5t1.5 -7.5q0 -12 -2.5 -25t-2.5 -27t1.5 -29t3.5 -31l6.5 -3.5t17 -8t24 -8t27.5 -3.5q22 0 35 3t19 21q28 27 37 27h5t6 -3.5t5 -12.5t2 -28q0 -11 -2 -18.5t-2 -15.5t2.5 -24t2.5 -24q0 -17 -8 -31.5t-24 -14.5
q-8 0 -13 10t-9.5 22.5t-9 23t-10.5 12.5q-17 12 -43 12q-35 0 -66 -16q-3 -9 -3 -22q0 -6 0.5 -12.5t1.5 -14.5q5 -5 5 -22q0 -5 -0.5 -10.5t-0.5 -10.5q0 -14 2 -20q-10 -3 -10 -23q0 -4 -0.5 -11t2 -14.5t9.5 -13.5t23 -9q13 -15 23 -15h96q25 0 39 7t19 24l15 14
l4.5 4.5t7.5 7t8.5 6.5t7.5 3q6 0 10.5 -8t7.5 -19t4.5 -23t1.5 -20q0 -26 -7 -44z" />
    <glyph glyph-name="F" unicode="F" horiz-adv-x="435" 
d="M379 454q-5 3 -10 10t-10.5 15t-10.5 15t-9 10q-1 0 -7 3t-14 6.5t-17 6t-15 2.5h-4q-8 11 -16 11q-4 0 -30 -13q-8 1 -13.5 1.5t-10.5 0.5q-13 0 -21 -7.5t-13 -19.5t-7 -26.5t-2 -27.5q0 -8 3 -23.5t3 -23.5q0 -6 -1.5 -21.5t-1.5 -23.5q0 -37 31 -37q2 0 3.5 0.5
t3.5 0.5q2 -2 22 -4t42 -2q14 0 19.5 11t9 24t10 24t22.5 11q17 0 17 -27q0 -3 -0.5 -6.5t-0.5 -7.5v2q2 0 2 -64q0 -8 -10 -58l-20 3q-11 3 -17 9l-2 24l-9 9q-39 4 -58.5 5.5t-20.5 1.5q-17 0 -30.5 -2t-15.5 -22l-4 -131q0 -4 -1 -12.5t-1 -12.5q0 -12 11.5 -19t25 -14
t25 -15.5t11.5 -24.5q0 -9 -15 -13.5t-30 -4.5h-17q-23 0 -30 -3l3 -4q-2 0 -8.5 0.5t-15 1t-16.5 1t-14 0.5q-21 0 -35 -7q-23 3 -43 18t-20 31q0 9 9 20l35 6l8 -9l14 9q11 44 11 143l-9 21l2 53q1 30 2 41.5t2 15t1.5 4.5t0.5 10q0 6 -2 16.5t-2 17.5q0 6 2 11t2 10
q0 8 -6 21t-6 23q0 3 1.5 10t4 15t4 14.5t1.5 9.5q0 8 -5 14.5t-17 6.5q-8 0 -16 -1t-11 -1q-12 0 -18 8.5t-6 19.5q0 21 16 28q7 -1 14.5 -1h17.5q23 0 54.5 1.5t73.5 5.5q19 -8 28 -8h3l31 3l10 -5q10 0 26.5 5t23.5 5q14 0 27 -16q-1 0 8.5 5t21.5 12t23.5 12.5t14.5 5.5
q13 0 13 -51q0 -71 -10 -88zM97 284q7 0 7 7q0 15 -11 15t-11 -9q0 -14 10 -14q2 0 2.5 0.5t2.5 0.5z" />
    <glyph glyph-name="G" unicode="G" horiz-adv-x="668" 
d="M615 238q-7 -4 -17 -10t-23 -14q-2 -23 -6 -54t-11 -71q6 -5 14.5 -13.5l19.5 -19.5l4 -12q-2 -3 -11.5 -6.5t-20 -6.5t-19 -5l-8.5 -2q-6 -4 -9 -7t-10 -7t-23 -9t-49 -13q-24 -6 -41 -6q-10 0 -21 2t-23 2q-8 0 -20.5 -3t-14.5 -3q-8 0 -17.5 7t-12.5 8q-8 2 -21.5 3
t-28.5 2.5t-28.5 3t-22.5 4.5q-34 11 -71 39q-7 21 -16 24.5t-20 8.5q-89 63 -89 198q0 58 18 145q12 10 17.5 18t8 14.5t4.5 11t7 7.5q16 9 27.5 18t21.5 18t19 17t20 15l72 39q16 1 36.5 4.5t46.5 3.5q6 0 14 -1t16.5 -2.5t16.5 -2.5t13 -1q2 0 3.5 0.5t3.5 0.5
q13 -6 39.5 -14.5t66.5 -19.5l28 13q13 7 21 7q15 0 15 -31q0 -4 -0.5 -7.5t-0.5 -8.5q2 -8 4.5 -19t5.5 -27q-1 -5 -1.5 -10.5t-0.5 -13.5t4.5 -19t4.5 -22q0 -7 -5 -14t-11 -7t-20.5 15.5t-29 34.5t-26.5 35.5t-13 18.5q-35 36 -64 36q-10 0 -17 -3q-24 6 -47 6
q-132 0 -214 -190q0 -1 -0.5 -2t-0.5 -3q0 -9 4.5 -22t4.5 -12q2 -28 1.5 -52.5t9.5 -38.5q12 -20 15 -30.5t3.5 -17.5t2.5 -12t13 -13l33 -26q4 -13 19.5 -27t35.5 -25.5t42 -19t39 -8.5q8 0 49 12l21 -6q2 4 6.5 8.5t10.5 11.5q56 26 56 117q0 19 -3 39q0 -1 -14.5 5
t-32.5 15t-32.5 18t-14.5 15q0 10 21 18q39 -12 70 -12q23 0 41 4.5t43 4.5q70 0 70 -37q0 -6 -1 -9z" />
    <glyph glyph-name="H" unicode="H" horiz-adv-x="632" 
d="M336 31q4 5 16 11t24.5 12t23.5 11.5t13 10.5q-1 1 -1 5q0 14 10 38q0 3 -0.5 6.5t-0.5 7.5q0 7 1 17.5t2 21.5t2 21.5t1 16.5q0 28 -13.5 41.5t-48.5 13.5q-8 0 -22 -1.5l-28 -3t-26 -3t-15 -1.5q-6 0 -16 5.5t-16 5.5q-9 0 -19 -10l-23 12h-10q-15 0 -23 -4
t-11.5 -16.5t-4 -37.5t-0.5 -67q0 -62 7 -65t21.5 -9t29 -13.5t25 -17.5t10.5 -20q0 -17 -42 -17q-52 0 -84.5 3t-46.5 12q-5 -7 -12 -7q-5 0 -9 3q-3 -7 -15 -7q-11 0 -22.5 6.5t-11.5 15.5q0 10 21 18q0 8 4.5 12t10.5 7t10.5 7t4.5 13q0 7 -2 15.5t-2 14.5q0 3 2 10.5
t5 31.5t5 70t2 125v93t-3 45.5t-10.5 19.5t-23.5 16q-23 14 -23 29q4 4 16 13.5t22 9.5q12 0 23.5 -6t16.5 -6q4 0 7 1.5t6.5 4t9.5 4t15 1.5q11 0 22.5 -3.5t36.5 -3.5q7 0 23 3.5t21 3.5q14 0 14 -11q0 -5 -10.5 -15.5t-23.5 -21.5t-23 -19.5t-10 -7.5q-18 -32 -18 -74
q0 -30 10 -46q-9 -15 -9 -37q0 -38 28 -39q16 -12 49 -12q20 0 28 9l27 -4q2 0 4 -0.5t4 -0.5q9 0 17 3q1 0 3 -0.5t4 -0.5q7 0 22.5 1t31.5 1.5t28.5 1.5l12.5 1q18 15 18 158q0 35 -10 58.5t-24 23.5q-8 -2 -12 -2q-15 0 -27.5 8t-12.5 18q0 7 9.5 12.5t41.5 5.5
q27 0 56 -3.5t53 -9t40 -13t16 -15.5q0 -7 -5 -10.5t-11 -7t-11.5 -9t-7.5 -15.5q-1 -3 -1.5 -11t-0.5 -25t-1 -45t-4 -71q-2 -36 -3 -63t-1 -46q0 -23 1.5 -43.5t3.5 -38.5q-6 -12 -6 -21v-4l3 -57q7 -25 41 -34q9 -3 9 -15q0 -8 -1.5 -13.5t-16 -9.5t-46 -5.5t-91.5 -1.5
q-41 0 -62 3zM112 149q-7 -4 -7 -16q0 -10 6 -10q10 0 10 12t-9 14z" />
    <glyph glyph-name="I" unicode="I" horiz-adv-x="283" 
d="M219 576q6 -5 6 -11q0 -11 -12 -24l-18 -19q-24 -11 -24 -59q0 -8 1 -22t2.5 -28t3 -25.5t1.5 -13.5l4 -58q-13 -62 -13 -87q0 -30 12 -60q0 1 -1 -8.5t-2.5 -22t-2.5 -26t-1 -20.5q0 -23 4 -35l19 -11q14 -8 19 -18t5 -19q0 -19 -30 -19h-20q-12 0 -18 -3q-4 1 -15.5 5
t-18.5 4q-3 0 -13.5 -5t-14.5 -5l-34 11q-6 0 -16.5 -5t-16.5 -5q-16 0 -16 15q0 14 15 27.5t29 13.5q5 0 8.5 18t6 56.5t3.5 98.5t1 145v45t-1 31q-5 8 -5.5 22.5t-2 29.5t-7 28.5t-20.5 19.5q-14 6 -19 17l3 16q48 12 97 12q30 0 40 -7q5 1 35 1h27z" />
    <glyph glyph-name="J" unicode="J" horiz-adv-x="307" 
d="M248 545q-4 -6 -14 -11.5t-20.5 -10.5t-18.5 -10t-8 -10q0 -19 -1 -46.5t-1 -64.5l-2 -56q1 -45 15 -74q2 -6 2 -8q0 -4 -2 -10q-18 -47 -18 -76q0 -23 7 -57t7 -84q0 -15 1.5 -27.5t-1 -27.5t-10 -35t-25.5 -49q-14 -23 -21 -34t-14 -17t-18.5 -9.5t-33.5 -10.5
q-33 -10 -56 -10q-22 0 -35 9l-36 18q0 4 -2.5 15.5t-2.5 18.5q0 24 22 47q10 -2 21 -2q6 2 10 2q12 0 20 -11t15 -24t13 -24t13 -11q4 1 5.5 3t5 6t10 10.5t20.5 17.5q15 10 15 20q0 3 -3 8.5t-7 11.5t-7 11.5t-3 8.5q0 1 1.5 6t3.5 11t3.5 12.5t1.5 10.5q0 9 -4 25.5
t-4 25.5q0 7 1 19.5t2 24.5t2 22t1 13q0 12 -4.5 29.5t-4.5 30.5q0 8 2 13.5t2 14.5q0 8 -1 18t-2 18l-2 20q-1 28 -1 49.5v37.5q0 26 0.5 34.5t0.5 14.5q0 13 -2.5 19.5t-2.5 21.5q0 10 1.5 25.5t1.5 23.5q0 21 -9 27t-20.5 8t-20.5 5t-9 18q0 12 11 23.5t24 11.5q5 0 7 -1
q-2 2 17 9l7.5 -5t11.5 -5q4 0 13.5 0.5t20 0.5t19.5 0.5t14 0.5q59 0 76 -30z" />
    <glyph glyph-name="K" unicode="K" horiz-adv-x="589" 
d="M537 0l-21 -7q-15 -7 -18 -7q-12 10 -26 14.5t-25.5 6t-19 1t-5.5 -0.5q-31 -7 -64 -7q-55 0 -55 28q0 9 5 16t11 12.5t11.5 10.5t7.5 10q1 2 2 10.5t2 22.5l-68 97q-57 74 -85 74q-17 0 -17.5 -45t-0.5 -141q6 -3 12 -7q5 -3 11.5 -7t14.5 -9l38 -24q4 -4 4 -9
q0 -14 -7.5 -22t-18.5 -12t-24 -4.5t-23 -0.5q-5 0 -13 0.5t-17 0.5t-17.5 0.5t-14.5 0.5q-38 0 -77 -10q-1 0 -2 -0.5t-2 -0.5q-7 0 -15 5t-15 12.5t-11.5 16.5t-4.5 17q0 6 0.5 10t5.5 7.5t18 7t38 7.5q35 5 35 27q0 3 -2.5 10t-6 14t-6.5 13.5t-3 9.5q-3 21 -3 38
q0 4 0.5 7t0.5 6l11 20q1 2 1 29q-1 23 -1.5 56.5t-2.5 77.5l-6 100q-3 15 -12.5 22.5t-20 12.5t-19 11t-8.5 17q0 3 4 9.5t11.5 13.5t19 12.5t25.5 5.5q9 0 28 -8q18 -8 26.5 -9.5t18.5 -1.5q9 0 25 2t24 2q4 0 12 -1t16.5 -3.5t14.5 -6.5t6 -9q0 -12 -17 -21l-25 -14
q-23 -14 -23 -54q0 -8 1.5 -17.5t1.5 -20.5q0 -3 -1.5 -10t-3.5 -15.5t-3.5 -15t-1.5 -7.5v-1l9 -12q2 -14 15 -14q9 0 17.5 6t15.5 13t11.5 13.5l4.5 6.5v2q14 7 25 20t20.5 27.5t18.5 27t20 18.5q15 10 15 23q0 14 -12 25.5t-26 11.5h-5l-8 16q10 19 27 19q-1 0 40 -11
q20 15 65 17h-6h19q9 0 22.5 -0.5t32.5 -0.5q10 0 22.5 -13t12.5 -24q0 -9 -11 -14l-60 -14q-13 -3 -24.5 -13.5t-22.5 -25.5q-26 0 -47 -30l-36 -50q-40 -16 -40 -51q0 -31 30 -55l7 -17q11 -8 21 -14.5t24 -20.5t36 -40t58 -73q4 -6 5.5 -14t6.5 -17t17.5 -18t39.5 -17
q36 -11 36 -23q0 -9 -9 -19z" />
    <glyph glyph-name="L" unicode="L" horiz-adv-x="501" 
d="M450 9q-13 -13 -59 -13q-12 0 -16 3q-23 -9 -52 -9q-6 0 -17 1t-23 1.5t-23 1.5t-17 1q-21 0 -34 -4q-11 2 -23.5 3t-27.5 1q-24 0 -41 -1t-27 -1q-4 0 -6.5 0.5t-4.5 0.5q-9 -2 -23 -4t-32 -2q-11 0 -21.5 11t-10.5 22q0 8 10 20t15 17q3 -1 10 -1q29 0 29 65
q0 7 -0.5 18.5t-1.5 23t-1.5 20.5t-0.5 11q19 16 19 23q0 4 -9 13t-9 26q0 9 5 22t6 21q-9 19 -9 28q0 7 5 17q0 45 -12 137l-26 27q-26 8 -26 30q0 31 34 47q9 -3 52 -3q19 0 44 1t57 1q45 0 64.5 -6.5t19.5 -18.5q0 -11 -8.5 -21.5t-18.5 -15.5l-12 2q-11 -4 -21 -14.5
t-18.5 -25t-13.5 -30t-5 -29.5q0 -13 6 -23q-5 -3 -5 -26q0 -29 4 -50t4 -34q0 -7 -3 -15.5t-3 -18.5q0 -5 4.5 -13t5.5 -11v-118q4 -79 45 -79q5 0 8 1q22 -12 53 -12q17 0 35 2.5t34.5 10t31 22.5t25.5 41q14 35 34 36q17 -22 17 -57q0 -37 -16 -73zM104 557l-13 -9
q5 -8 11 -8q14 0 14 11q0 6 -8 6h-4z" />
    <glyph glyph-name="M" unicode="M" horiz-adv-x="692" 
d="M632 576q2 -10 2 -15q0 -11 -6.5 -20.5t-15 -18.5t-15 -17t-6.5 -15q0 -10 2 -20t2 -21t-1.5 -21.5t-1.5 -23.5q0 -8 1 -21t2.5 -26.5t3 -26t1.5 -20.5q0 -18 -2.5 -49.5t-4.5 -76.5q1 -3 1.5 -8.5t0.5 -14.5q0 -10 -0.5 -22t-0.5 -21q0 -30 7 -49t23 -32q4 -9 4 -19
q0 -26 -32 -26q-15 0 -20 5q-20 -1 -50.5 -3t-71.5 -5q-15 10 -15 24q0 11 4.5 14.5t10.5 5t12 3.5t9 9q4 -2 6 -2q15 0 15 57q0 9 -1 23.5t-1.5 27t-1.5 21t-1 6.5q1 18 2.5 39t2.5 40.5t1.5 34.5t0.5 22v11q6 4 8 19q-8 21 -17 21q-5 0 -10 -5.5t-9 -13.5t-7 -17.5
t-3 -18.5q0 -5 1 -8q-8 -5 -14 -25q-10 -1 -21 -31l-11 -41q-17 -11 -17.5 -22t-2.5 -31q-2 -3 -8 -23.5t-13.5 -44.5t-14.5 -44.5t-9 -22.5q-16 -19 -30 -19q-22 0 -42 50l-21 68q-2 5 -10 16.5t-17 25t-17.5 27t-10.5 21.5l-23 77q-12 34 -22.5 48t-22.5 14q-25 0 -25 -45
q0 -32 9 -54l-4 -8q0 -3 -0.5 -11.5t-0.5 -20.5t-0.5 -26.5t-0.5 -28.5q0 -21 0.5 -34.5t4.5 -23.5t11.5 -19.5t22.5 -24.5q18 -20 18 -31q0 -14 -22.5 -20t-77.5 -6q-17 0 -27.5 1t-15.5 4t-6.5 8t-1.5 14v10.5t2 11.5l15 11q24 4 24 43q0 14 -3 25l7 16v9q0 11 -1.5 34
t-1.5 55q0 15 1.5 24.5t4 18t6 19t8.5 27.5q-9 19 -9 45q0 20 4 42.5t4 34.5q0 43 -61 66q0 5 -1 14t-3 20q7 12 13 18.5t16.5 10t29.5 5t52 3.5q3 0 8 -3t11 -7.5t11 -8.5t8 -5q2 -1 5 -11t6.5 -22t6.5 -23t5 -13q11 -20 20.5 -34t9.5 -23q0 -5 -3 -8l75 -128l1 -15l20 -52
q8 -22 14 -30t13 -8q11 0 20.5 19t14.5 38q22 29 43 87l33 92q7 11 16.5 26.5t21.5 37.5q1 7 6.5 22t15 30t22 26t26.5 11q3 0 11 -0.5t19 -1.5t23.5 -1.5t23.5 -0.5z" />
    <glyph glyph-name="N" unicode="N" horiz-adv-x="639" 
d="M527 -16q-11 3 -27 8.5t-37 13.5q-4 4 -9 14t-10.5 20.5t-10.5 19.5t-8 13q-16 20 -31.5 36.5t-28.5 29.5l-22.5 22.5t-12.5 16.5q-4 15 -8 21q-2 3 -7 5t-10.5 4.5t-10 5t-4.5 5.5l-36 65q-11 2 -34 17q-5 40 -19.5 64t-38.5 24q-14 0 -14 -21q0 -37 1 -37v1
q-3 -10 -3.5 -50t-0.5 -109q0 -74 4 -81q5 -11 21.5 -20.5t34 -18.5t31.5 -17t14 -16q0 -7 -5.5 -15t-13.5 -14.5t-17 -11t-16 -4.5q-4 0 -6 1l-22 20q-8 -4 -13 -6t-8 -2q-5 0 -9.5 1.5t-9.5 3.5q-8 -5 -17 -5q-4 0 -5 1q-29 16 -31 16q-7 0 -20.5 -6.5t-23.5 -6.5
q-27 0 -27 28q0 14 8 23.5t36 20.5q35 14 35 43q0 8 -3 21.5t-3 20.5q0 8 3 26t3 26q0 9 -5.5 26.5t-5.5 28.5q0 22 16 53q1 19 1.5 36.5t0.5 33.5q0 103 -23 131q-3 0 -12.5 4t-20 8t-20.5 7.5t-16 3.5l16 33q5 9 20 10h66q70 0 105 -84q49 -34 104 -127l60 -54
q1 -2 13.5 -21.5t28.5 -42.5t31.5 -42t23.5 -19q19 0 19 56q0 7 -0.5 16t-0.5 17q-1 10 -1 19q5 17 5 65q0 97 -9 139t-33 42q-5 0 -25 -5l-25 8q-16 7 -16 18q0 17 11 23.5t14 6.5q39 -5 118 -9q8 4 32 4q49 0 49 -17q0 -2 -8 -8.5t-18.5 -14.5t-20 -16.5t-11.5 -15.5
q-1 -1 -9 -221q-6 -183 -6 -226q0 -8 5.5 -25.5t5.5 -32.5q0 -16 -17 -25z" />
    <glyph glyph-name="O" unicode="O" horiz-adv-x="636" 
d="M574 163q2 -10 2 -17q0 -26 -20.5 -52t-52 -48.5t-68 -38t-68.5 -19.5q-8 -1 -15 -9t-10 -8q-2 0 -7.5 3t-11.5 6.5t-11 6.5t-6 3q-5 1 -19 1q-13 0 -32 -2t-29 -2q-5 0 -8 0.5t-5 0.5l-23 16q-5 0 -21 -9q-7 0 -20 8.5t-28.5 21t-32 27.5t-29.5 28.5t-21.5 23.5t-8.5 13
t1.5 11t1.5 12q0 14 -16 24l-3 35q-2 10 -5 15.5t-6 10.5t-5.5 13t-2.5 24q0 20 2.5 47.5t7.5 65.5q1 9 10 21.5t11 18.5q0 6 1.5 15t3.5 22q5 5 8.5 10t7 12t9.5 18t17 29q105 91 164 91q7 0 22.5 -3t32.5 -6t32 -6t21 -3q20 0 34 11h6q4 -3 12.5 -5.5t18 -5t18 -5.5
t13.5 -6l21 -23q12 -5 25 -15t24 -20.5t18.5 -19t8.5 -8.5q13 -17 19 -34t8.5 -31.5t4 -25.5t5.5 -15q4 -5 8.5 -9t8.5 -10t6.5 -16t2.5 -27q0 -18 -3 -43.5t-8 -50t-10.5 -44.5t-10.5 -28zM495 292l-2 54t-5 50.5t-12 42t-22 29.5q-47 81 -114 81q-12 0 -27 -5q-12 5 -34 8
q-7 0 -27.5 -6t-56.5 -16q-42 -26 -68.5 -64t-26.5 -76v-11q0 -3 -3 -17.5t-7 -30.5l-7 -28l-3 -12q0 -38 12 -81t38 -69q8 -44 76 -67q19 -27 55 -27q6 0 15.5 2t18.5 4t16.5 4t9.5 2h1q18 -6 30 -8.5t20 -2.5h4l20 15q7 4 26 7q25 21 39 35t22 28.5t11.5 31t6.5 42.5
q2 13 6 26t3 19q0 13 -15 40zM68 198q5 3 5 9q0 10 -7 10q-12 0 -12 -8q0 -11 11 -11h3z" />
    <glyph glyph-name="P" unicode="P" horiz-adv-x="476" 
d="M365 284q-1 -31 -31 -31q-4 0 -8 0.5t-9 1.5q-8 -3 -25.5 -14t-41.5 -11q-17 0 -25.5 6.5t-8.5 31.5q0 6 1 10t6.5 6.5t17 3.5t31.5 3q24 2 39.5 20t20.5 56l4 62l-6 20v5q0 35 -83 91h-5q-10 0 -22 -1.5t-17 -1.5q-16 0 -32 9q-24 -8 -24 -94q0 -13 1.5 -35.5t3 -48
t4 -52.5t4 -48.5t3 -35.5l1.5 -14q-4 -8 -4 -16q0 -12 8 -23q0 -5 -2 -16t-4.5 -24t-4.5 -24t-2 -16q0 -22 10.5 -30.5t23.5 -12.5t23.5 -7.5t10.5 -15.5q0 -16 -35 -36q-3 1 -16 1q-3 0 -14 -0.5t-24 -0.5t-25.5 -0.5t-19.5 -0.5q-75 0 -75 21q0 6 7 13.5t15 18t15 26
t7 36.5q0 33 -14 63l12 25q0 18 -3 33q4 19 4 66q0 101 -12 187q-31 34 -31 59q0 8 3.5 16t17.5 8q2 0 13.5 -0.5t26 -1l29 -1t23.5 -0.5q56 0 76 11q13 -5 21 -12q22 5 37 5t32 -7t32.5 -16t27.5 -16.5t18 -8.5q15 -2 22 -9.5t10.5 -18t5 -23t4.5 -25.5q3 -14 5.5 -26
t2.5 -23q0 -56 -56 -117z" />
    <glyph glyph-name="Q" unicode="Q" horiz-adv-x="673" 
d="M950 -164q-4 -10 -22 -17q-18 -33 -76 -33q-23 0 -38.5 8.5t-26.5 8.5q-19 0 -31 -7q-5 3 -10 3q-8 0 -17.5 -6.5t-15.5 -6.5q-2 0 -3 1q-12 6 -35.5 11t-48.5 9t-47 7.5t-31 7.5q-1 -1 -4 -1q-8 0 -28 7.5t-41 18t-38.5 20t-20.5 14.5l-36 3q-7 13 -15 19t-18 9
t-22.5 6.5t-27.5 11.5q-1 1 -4 6t-6.5 11t-8.5 11t-9 7q-19 6 -31 18t-20 23t-13.5 19.5t-10.5 8.5q-3 0 -9 -2.5t-14 -2.5q-6 0 -14 8l-8 8q-66 37 -77 51q-14 28 -32 56t-32 63q-2 5 -3 8.5t-1 7.5q0 2 0.5 2.5t0.5 2.5l14 124q6 33 12 51.5t16.5 32.5t26.5 28t41 37
q22 21 36 26t24 5.5t18 1.5t18 13q13 7 46 16q8 0 20.5 -3t18.5 -3q10 0 21 6.5t20 6.5q5 0 8 -1q31 -16 40 -16q3 0 13.5 1.5t21.5 2.5l3 -14q3 -3 8.5 -5.5t12 -5t11.5 -4.5t7 -3q7 -9 26 -27q9 -2 21.5 -9.5t26.5 -25.5l40 -52q30 -105 30 -131q0 -41 -23 -78
q0 -41 -38 -88q0 -1 -17.5 -16.5t-38.5 -36.5t-38.5 -41t-17.5 -30q0 -6 3 -12t12 -6h15q7 -7 19 -13t24.5 -12t23.5 -10.5t16 -8.5q3 -2 5.5 -7.5t5.5 -12.5t6 -12.5t7 -7.5q23 16 32 16t20 -9t19 -9q3 0 9 1t10 1q8 0 14 -4t13 -9t15 -9.5t20 -4.5q42 -1 57 -8l19 3
q9 -5 33.5 -8t50 -4.5t44 -2t16.5 -0.5zM481 359q-5 11 -23 26q-4 24 -7 37.5t-8 21t-12.5 11t-19.5 6.5q-3 1 -8.5 9.5t-14 18.5t-19.5 18t-24 8q-10 0 -27 -5q-20 4 -32 5.5t-15 1.5q-8 0 -39 -26l-20 -1q-4 -2 -9.5 -6.5t-12.5 -11.5q-27 -5 -47 -47q-13 -28 -20 -41.5
t-10 -19t-3 -6.5v-4q0 -1 1 -6.5t2.5 -12.5t2.5 -13.5t1 -10.5q0 -35 -3 -53t-3 -20q0 -49 40 -88q13 -21 49 -62q3 -3 9.5 -4.5t14.5 -4t17.5 -7.5t19.5 -14q4 0 11.5 -3t15 -7t14.5 -7t12 -3q6 0 10.5 3.5t11 9t17 12t29.5 13.5l38 3q4 2 13.5 20.5t19 41.5t17 44t8.5 27
q8 21 8 45q0 6 -1 17.5t-2 24.5t-2 24.5t-1 17.5v9t1 9zM399 10q-4 -3 -4 -7q0 -9 7 -9q8 0 8 5q0 11 -11 11zM424 -56q-7 5 -15 5q-10 0 -11 -9q5 -5 11 -5q5 0 15 5v4z" />
    <glyph glyph-name="R" unicode="R" horiz-adv-x="504" 
d="M513 25q1 -3 1 -7q0 -28 -67 -28q-34 0 -57.5 5t-42 18.5t-35.5 36t-39 57.5q-52 80 -52 130v7q-8 4 -18 18q-9 40 -39 40q-34 0 -34 -63q0 -10 2 -30t5 -41t5.5 -38t2.5 -21v-40q1 -9 2.5 -15t6.5 -10.5t15.5 -8t28.5 -7.5q18 -5 18 -18q0 -8 -4 -11.5t-15 -3.5
q-4 0 -10.5 1t-12.5 2t-10.5 2l-4.5 1q1 0 -21.5 -1.5t-69.5 -5.5q-2 3 -10 3q-13 0 -33 -4l-26 -5q-11 8 -11 15q0 3 9.5 12.5t21.5 21t22 23t11 19.5q2 23 3 71.5t1 123.5q0 241 -15 261q-14 0 -28 1t-21 9q1 12 12 22.5t24 10.5q3 0 6 -0.5t8 -0.5q12 0 32 1.5t41 3
t39.5 3t26.5 1.5q52 0 86 -14l20 5q1 -1 11.5 -4t23.5 -8t24.5 -12.5t13.5 -16.5q5 -20 7.5 -35t2.5 -23q0 -17 -4 -29q0 -2 0.5 -4t0.5 -4q0 -11 -5.5 -27t-14 -30.5t-18 -25t-17.5 -10.5q-5 0 -8 3q-3 -3 -11 -7t-16.5 -8.5t-15 -9.5t-6.5 -10q0 -8 9.5 -22.5t22.5 -28.5
q6 -14 11.5 -26t14 -27t22 -35t35.5 -49q23 -32 37 -34q5 -9 15 -18.5t22 -18t23.5 -13.5t19.5 -5q5 0 7 1q13 -11 19 -15zM285 486q1 1 1 4q0 7 -9 18t-21 21t-23.5 17t-17.5 7q-4 0 -6 -2h-39q-12 0 -19 -1t-10.5 -6.5t-4.5 -17t-1 -32.5q0 -6 0.5 -20t0.5 -30t0.5 -31
t0.5 -23q0 -14 -1.5 -27.5t-2.5 -25.5q7 -7 20 -7q5 0 15 1.5t15 1.5q4 0 10 -2l29 6q66 40 66 119q0 15 -3 30z" />
    <glyph glyph-name="S" unicode="S" horiz-adv-x="419" 
d="M288 20h-2q-4 0 -11 -3l-19 -8h-7q-11 0 -20 -3t-30 -13q-5 -1 -9 -1h-7q-17 0 -24.5 4t-15.5 7q-5 -2 -10.5 -4t-13.5 -4l-22 17q-14 9 -26 9q-5 0 -10.5 -3.5t-11.5 -8t-12 -8t-12 -3.5q-6 4 -8 11t-2.5 19t-2 30t-5.5 42q-2 13 -2.5 23t-0.5 18q0 17 4.5 34.5
t14.5 17.5q6 0 16 -5t13 -10l3 -18q1 -10 7 -23t14 -25.5t17 -23t17 -16.5l19 -3q31 -15 43 -15q11 0 15.5 4.5t17.5 15.5q49 9 49 51q0 2 -1.5 14.5t-5.5 28t-11.5 29.5t-18.5 20q-11 4 -15.5 6t-10.5 5t-17.5 8.5t-36.5 17.5q-29 2 -50.5 17.5t-36.5 36.5t-25 43.5
t-17 37.5q-6 22 -6 56q0 20 3.5 31.5t9.5 19.5t14 15t16 18q6 21 30.5 36t49.5 15h5q4 0 13.5 1.5t14.5 1.5q19 0 34 -17q-1 0 14 5q-2 -1 28 -4q8 -11 15 -11q4 0 11 4t14 9.5t12.5 9.5t6.5 4q19 0 19 -35q0 -6 -0.5 -11t-1.5 -10q6 -18 6 -46q0 -21 -4 -38.5t-12 -17.5
q-5 0 -11.5 7t-13 15.5t-11.5 15.5t-6 8q-15 47 -68 47q-17 0 -33 -8h-6q-47 0 -47 -64q0 -18 3.5 -27.5t18 -18t42 -21t75.5 -37.5q5 -14 13.5 -21t18.5 -12.5t19.5 -11.5t15.5 -16v-2q0 -6 9.5 -17t10.5 -17q13 -64 13 -109q0 -17 -1.5 -25t-5 -14t-8 -12.5t-10.5 -21.5
q-10 -25 -30 -43z" />
    <glyph glyph-name="T" unicode="T" horiz-adv-x="575" 
d="M532 576q-1 -6 -2 -15q-1 -8 -1.5 -19t-2.5 -25q1 -5 1 -12.5v-17.5v-10t-3 -17t-10.5 -17t-22.5 -10q-13 0 -16 9.5t-6 22.5t-11.5 24.5t-31.5 16.5q-20 0 -59 12q-1 0 -1.5 0.5t-2.5 0.5q-5 0 -11.5 -2.5t-10.5 -27.5q-3 -2 -6.5 -4t-6.5 -7.5t-5 -17t-2 -33.5v-53
l15 -42v-5q0 -8 -3.5 -18t-3.5 -14v-7q0 -9 -1.5 -21.5t-3.5 -29.5q1 -9 3 -20q2 -10 3 -24t1 -32t-2 -32.5t-2 -22.5q0 -2 0.5 -3.5t0.5 -2.5l6 -24q6 -15 12 -18t13.5 -2.5t15.5 0.5t17 -9q0 -3 0.5 -6t0.5 -5q0 -43 -57 -43h-19q-6 1 -10.5 1h-7.5q-20 0 -29 -4
q1 0 -7.5 1.5t-27.5 1.5q-14 0 -22 -4t-13 -4q-1 1 -2 1l-21 9h-3q-5 0 -17 4t-12 15q0 26 63 43q21 4 21 34q0 12 -5.5 20.5t-5.5 15.5q0 8 3 23.5t3 38.5q0 11 -3 18.5t-3 8.5q0 6 2 21.5t5 40.5l-3 79l7 19v3q0 6 -2 18t-2 30q0 11 1.5 24t1.5 17q0 21 -14 37.5t-53 16.5
q-32 0 -69 -9q-3 -5 -6.5 -8t-8 -8.5t-10 -16.5t-11.5 -30q-11 -32 -30 -32q-7 0 -13.5 7.5t-7.5 15.5v28q0 17 -2 37.5t-2 42.5q0 20 9 39.5t22 19.5q3 0 10.5 -4t16.5 -9t16.5 -9t9.5 -4l57 -4h13q17 0 26.5 4t14.5 4q9 0 11 -0.5t4 -1.5t6.5 -2.5t19.5 -2.5t44 -1.5
t78 -0.5h57q2 -1 7 -1q7 0 19.5 4t25 9.5t23.5 9.5t14 4q19 0 27 -27z" />
    <glyph glyph-name="U" unicode="U" horiz-adv-x="629" 
d="M565 547q0 -29 -23 -29h-6q-3 1 -7 1q-17 0 -29 -15t-15 -27q1 1 1 -104q0 -4 -1.5 -24.5t-3 -45.5t-3 -48t-1.5 -32v-12t1 -10l-3 -19q1 -11 6 -28t5 -24q-1 -5 -1.5 -9t-0.5 -8q0 -19 4.5 -28.5t13 -15t21 -10t28.5 -13.5q3 -6 3 -12q0 -15 -8.5 -22.5t-32.5 -17.5
q-12 -5 -18 -5q-11 0 -16.5 0.5t-6.5 0.5l-43 -4h-6q-7 0 -15.5 1t-15.5 5t-12 10.5t-5 17.5q0 5 1.5 17.5t1.5 18.5q0 22 -21 27l-57 -61q-13 -14 -27.5 -22.5t-29.5 -13.5q-6 3 -39 3h-20.5t-24.5 -1q-8 7 -19 14.5t-24 15.5q-17 0 -30.5 14t-27.5 39v4q0 4 -1.5 8.5
t-3.5 11.5t-3.5 18t-1.5 29q0 19 6 33q-4 9 -4 27q0 23 1.5 35.5t1.5 14.5q-3 40 -7 52l-7 23q1 8 1.5 17t0.5 19q0 27 -3 60q-5 12 -5 21q0 6 1.5 15.5t1.5 14.5q0 21 -14 29t-40 23q-19 10 -19 34q0 12 6 20t19 8q12 0 32 -1.5t40 -4t36.5 -4t21.5 -1.5q26 0 38 12
q4 -2 8 -2.5t9.5 -2.5t12.5 -7.5t18 -15.5q2 -4 2 -8q0 -6 -3 -12.5t-7 -11.5t-7.5 -8.5t-4.5 -3.5q-3 0 -10 5.5t-12 5.5q-3 0 -12.5 -13t-9.5 -48q0 -4 2.5 -8t6.5 -12l-2 -120l3 -43q5 -20 7 -39q0 -4 -1.5 -10t-3.5 -12l-3.5 -10.5t-1.5 -5.5q0 -10 4 -21t11 -34l-3 -31
q13 -13 22 -23.5t18 -18t19.5 -12t27.5 -4.5q14 0 22 0.5t16.5 6t21 17t35.5 32.5q14 6 21 11t10.5 13.5t4.5 22.5t4 38v28.5t-1 81.5l-5 10t-2 7q0 8 3.5 19t3.5 26q0 17 1.5 28t1.5 16q-7 57 -19 78t-26 22q-17 1 -30 13t-13 25q0 14 14 20t32 6t42.5 -6.5t47.5 -6.5
q3 0 11 0.5t19 1.5t22.5 1.5t20.5 0.5h10h-2q2 0 6 1q3 0 7.5 0.5t11.5 0.5q14 0 21 -9.5t7 -20.5z" />
    <glyph glyph-name="V" unicode="V" horiz-adv-x="647" 
d="M602 523q-3 0 -11 -4.5t-17.5 -9.5t-19 -9.5t-13.5 -4.5h-13q-14 0 -24 -12t-16.5 -28.5t-10 -33t-3.5 -26.5l-2 -9q-15 -14 -17 -33q0 1 0 -7t1 -25q-3 -4 -10.5 -20.5t-17 -36.5t-18.5 -38.5t-14 -27.5v-7q0 -12 -3 -31l-26 -75q-5 -6 -8.5 -8.5t-6.5 -8t-7 -16.5
t-11 -35q-10 -34 -45 -34q-25 0 -29 24l-18 28q-1 6 -2.5 14t-5.5 19l-12 15q-7 25 -15.5 49t-16.5 43.5t-14 32t-8 15.5q-2 7 -5 13.5t-9 16.5t-15.5 24t-23.5 36q-1 16 -7.5 32.5t-7.5 27.5l5 15q-3 5 -11 21.5t-18.5 35.5t-22 35.5t-22.5 21.5q-21 8 -30 13t-12 8.5
t-1.5 8t1.5 12.5q0 32 37 32q3 0 5.5 -0.5t5.5 -1.5q9 1 18 2.5t14 8.5h56q0 -2 27 -14q3 -1 8 -1q4 0 13 3.5t19 8t19 8t14 3.5q7 0 18 -5t20.5 -10.5t16.5 -10.5t6 -5q0 -32 -36 -44q-27 -9 -41.5 -16.5t-21 -14.5t-7 -14t-0.5 -15t5 -21.5t11.5 -26.5t12 -23.5t6.5 -13.5
q11 -11 21 -35t30 -73q3 -8 6.5 -13t8 -12.5t10 -20.5t12.5 -37q7 -27 17 -27q12 0 17.5 12t8.5 27t3.5 29t1.5 17q5 1 12 15.5t13.5 32t11 32.5t5.5 16q5 7 15 26q-1 5 -1 24q1 7 4.5 16t7 16.5t6.5 12.5l3 5q0 6 1 12t9 18q5 7 5 10q-2 3 -15 8q0 15 -6 20.5t-17 9
t-26.5 7.5t-35.5 15q0 2 -0.5 4.5t-0.5 4.5q0 6 0.5 12.5t1.5 13.5l33 3q10 1 21.5 9.5t19.5 8.5q3 0 9 -2l12 -4q7 -3 15 -6q13 -7 22 -7q5 0 10.5 4.5t10.5 4.5t13.5 -4.5t13.5 -4.5q18 -1 33.5 -1.5t27.5 -2t19 -6.5t7 -15t-9 -25z" />
    <glyph glyph-name="W" unicode="W" horiz-adv-x="919" 
d="M538 476q-8 8 -17 8q-13 0 -23 -11.5t-10 -24.5q0 -6 1 -9l-8 -10l35 -53q26 -40 40 -112q9 -48 28 -48q22 0 55 56l34 65q1 10 4 25t10 35q12 12 19.5 26t12.5 27.5t7 24.5t2 16q0 22 -27 28q-26 6 -39 9.5t-18.5 6.5t-6 7t-0.5 10q0 27 41 27q17 0 39.5 -3t51.5 -8
q11 -10 21 -10q3 0 5 1q15 19 46 19q18 0 25 -10t7 -27q0 -23 -10.5 -42t-28.5 -19q-5 6 -12 6q-6 0 -12.5 -5.5t-11.5 -13.5t-8.5 -18t-3.5 -19q0 -4 2 -10q-31 -37 -56 -90l-36 -78q-5 -11 -8 -16.5t-2 -9.5q0 -4 4 -8t4 -10q0 -5 -3 -11.5t-3 -14.5q0 -11 -8.5 -27
t-20.5 -36t-24.5 -43t-20.5 -48q-9 -26 -23.5 -34.5t-24.5 -8.5q-16 0 -26.5 16t-18.5 41t-15.5 55t-17.5 59q-5 6 -25 37.5t-38 78.5q-19 -35 -36.5 -72.5t-33.5 -78.5v-6q0 -13 -3.5 -21.5t-8.5 -17.5t-12 -21t-13 -31q-8 -24 -19 -31t-22 -7q-14 0 -26 8.5t-24 29
t-24.5 53.5t-27.5 82q-4 11 -14 22.5t-13 17.5v9q0 18 -13 48t-25 74l-22 77t-16 44.5t-18.5 25t-27.5 17.5q-22 11 -29.5 19t-7.5 14q0 45 82 45q7 0 13.5 -0.5t11.5 -1.5l21 -15q1 0 1 -0.5t1 -0.5q6 0 14 7t11 7q5 0 23.5 -4t38.5 -8.5t36.5 -9.5t17.5 -6q-4 -17 -15 -22
q-11 8 -24 8q-20 0 -36.5 -19.5t-16.5 -42.5q0 -18 10 -28l2 -17q11 -20 26 -51.5t29 -63t24.5 -58t12.5 -37.5q6 -41 22 -41q9 0 22 19t28 59l33 87q0 21 13 57q-11 42 -25 67t-44 42q-22 12 -28.5 19t-6.5 14q0 21 22.5 32t60.5 11q20 0 37 -1t29 -3q2 0 2.5 0.5t2.5 0.5
q12 0 65 -12q17 14 40 14q17 0 24 -9.5t7 -27.5q0 -23 -10 -42t-28 -19z" />
    <glyph glyph-name="X" unicode="X" horiz-adv-x="688" 
d="M430 381q0 -11 -6.5 -18.5t-14.5 -14.5t-16.5 -13t-11.5 -12q-4 -10 -4 -24q0 -13 10 -22.5t14 -16.5q7 -15 27.5 -43.5t45.5 -59t48.5 -56.5t37.5 -35q22 -1 46 -11q5 1 8.5 1h7.5q33 0 33 -22q0 -9 -5 -18t-13 -16.5t-18 -12.5t-20 -5q-7 0 -12 3t-10 7t-10.5 7
t-12.5 3q-8 0 -18 -1l-20 -2t-18 -2t-11 -1q-6 0 -17.5 0.5t-25 1t-25 1t-17.5 0.5h-17.5t-16.5 -1q-14 4 -17 9.5t-3 10.5q0 9 10 14.5t22 10t22 10.5t10 17q0 5 -4.5 14t-21.5 31q-14 18 -22.5 32.5t-15.5 26t-14 20.5t-17 17q-2 2 -5 2q-2 0 -6 -3t-9.5 -7t-11.5 -7
t-12 -3q-9 0 -21.5 7t-12.5 15q0 3 6 9l13 13t13 13.5t6 11.5t-7 14t-16.5 18.5t-20 17.5t-16.5 11q-18 31 -48 31q2 4 2 8q0 7 -12.5 23t-29.5 32t-34 29t-27 16l-35 3q-5 9 -36 26q-9 21 -9 40q0 29 24 41q5 -1 10 -1h10q17 0 26 3q96 -9 123 -9q26 0 39.5 2.5t15.5 2.5
q9 0 20 -2.5t21 -7.5t16.5 -12t6.5 -16q0 -5 -10.5 -11t-23 -12t-23 -13t-10.5 -13q0 -11 15 -23.5t29 -25.5v-5q0 -31 39 -59q1 -18 14 -26q6 1 13.5 14t13.5 28t10.5 28t4.5 14q2 12 13 39q11 6 11 15q0 16 -42 45q-3 10 -3 19q0 7 5 16.5t28 9.5q6 0 15.5 -1t19 -1.5
t16.5 -1.5t9 -1q52 4 81.5 5.5t37.5 1.5q39 0 65 -6q20 -29 20 -47q0 -14 -9 -26q-2 -2 -20 -4t-40.5 -3.5t-44 -3.5t-28.5 -4q-36 -12 -36 -39q0 -5 1 -8zM275 164q-11 -15 -18 -43l-11 -10q-31 -4 -31 -35q0 -10 2.5 -15t8.5 -8.5t16.5 -6.5t25.5 -8q6 -9 6 -15
q0 -9 -17 -15t-37 -9.5t-35 -4.5t-11 -1q-5 4 -27 6t-48 2q-10 16 -21 16q-8 -17 -31 -17q-39 0 -39 28q0 9 8.5 22t29.5 16q49 8 88.5 33t74.5 64q2 4 6 9t10 11q20 -4 41 -12z" />
    <glyph glyph-name="Y" unicode="Y" horiz-adv-x="572" 
d="M329 271q0 -5 4.5 -10.5t4.5 -11.5q0 -5 -3 -11q4 0 4 -50q0 -33 -3.5 -55.5t-3.5 -31.5q0 -20 4.5 -29t12 -12.5t17.5 -3.5t21 -1l7 -6v-7q0 -48 -60 -48h-7.5t-11.5 1h-18q-20 0 -28 -4q-3 1 -7 2q-5 1 -12 1.5t-18 0.5q-14 0 -22.5 -4t-13.5 -4q-6 4 -16.5 5.5
t-30.5 10.5q-4 5 -4 11q0 28 65 45q23 5 23 36q0 10 -5 17.5t-5 12.5q0 7 2.5 22t7.5 39q0 7 -2.5 16.5t-2.5 11.5l-6 22q-3 10 -3 19q0 2 0.5 4.5t0.5 4.5l-18 30q-14 23 -32 42t-39 19q2 6 2 9q-1 8 -7 19t-21 25l-38 34q-10 10 -11 13t-4 6t-13 9t-39 23q-8 21 -8 36
q0 32 27 44q4 0 7.5 -0.5t7.5 -0.5q10 0 18 1t13 3l48 -8q13 -3 26 -3q32 0 50 3t20 3q9 0 20 -3t20.5 -8t16 -11.5t6.5 -14.5q0 -5 -11 -11t-24.5 -13t-24.5 -13.5t-11 -13.5q0 -6 4 -11l38 -37q0 -2 -0.5 -3.5t-0.5 -3.5q0 -29 37 -57q1 -19 13 -26q5 1 13 14t15.5 28
t12.5 28t5 14q1 10 15 39q12 6 12 16q0 16 -40 44q-1 5 -1.5 9.5t-0.5 8.5q0 10 6 18.5t28 8.5q6 0 15.5 -1t19 -1.5t16.5 -1.5t9 -1q19 1 41 5t33 4q8 0 16.5 -1t18.5 -3q18 -26 18 -45q0 -6 -0.5 -12t-4.5 -11t-13 -8.5t-26 -4.5q-36 -2 -50 -13t-14 -34q0 -7 1 -11
q-8 -8 -19 -21.5t-25 -30.5l-8 -20q-4 -11 -15 -16q-14 -5 -19.5 -11t-7.5 -14.5t-4.5 -21t-9.5 -28.5z" />
    <glyph glyph-name="Z" unicode="Z" horiz-adv-x="598" 
d="M565 139q4 -4 4 -12q0 -5 -4.5 -17t-10 -26.5t-10 -27.5t-4.5 -19q0 -7 3 -13q-26 -26 -46 -26q-5 0 -6 1q-23 -9 -52 -9q-6 0 -17 1t-22.5 1.5t-22.5 1.5t-17 1q-21 0 -36 -4q-18 5 -59 5q-45 0 -57 -5h2q0 -1 -78 -1q-135 0 -135 36q0 13 20 33q115 109 159 195
q8 15 23 27q1 5 9.5 13t18.5 16t18.5 14t8.5 8q0 4 -7 5q13 8 14 27q39 27 39 59v5q45 43 45 49q0 5 -14 13l-42 22l-7 -3q-7 5 -31 5q-12 0 -29.5 -1.5t-39.5 -3.5q-25 13 -30 13t-9.5 -5.5t-8.5 -5.5t-17 -16.5t-26.5 -36.5t-25 -37t-12.5 -17q-8 -4 -24 -6.5t-23 -8.5
l-15 4q-2 6 -2 13q0 12 6 41t14.5 61t16.5 59.5t12 36.5q8 8 16 8q5 0 17 -7t26 -16t26 -16.5t17 -7.5q3 0 15 -2.5t25.5 -5.5t25.5 -5t16 -2q6 0 12 2h10q18 0 38 4l46 10l5 -3h3q7 0 22 -2.5t38 -2.5q15 0 25 6.5t23 7.5q5 -2 13 -3t18 -1q4 0 7.5 0.5t7.5 0.5l36 -16
q22 -13 22 -28q0 -1 -5 -10.5t-10 -20.5t-8.5 -19t-1.5 -6q-10 -3 -29.5 -18t-39 -34t-34 -37t-14.5 -27q0 -2 2 -6q-32 0 -48 -30q-7 -4 -17.5 -12t-20 -17.5t-16.5 -18.5t-7 -15q0 -8 8.5 -12t8.5 -5q0 -3 -8 -8l-7 -5q-15 -6 -41 -20q-5 -3 -10.5 -10t-11 -14.5
t-11 -14.5t-9.5 -10q0 -2 -8.5 -14.5t-18.5 -28.5t-18 -31t-8 -21q0 -15 15 -19l100 -3q11 -1 21.5 -1h20.5q23 0 41.5 1.5t35 7t32.5 17t34 31.5q40 46 83 46h8t9 -1z" />
    <glyph glyph-name="bracketleft" unicode="[" horiz-adv-x="335" 
d="M70 220q-1 -5 -1 -15.5v-27.5q0 -29 1 -67t2 -72.5t2.5 -59.5t1.5 -28q1 -11 49 -11q10 0 21 0.5t24 0.5q12 0 14.5 -2t2.5 -16q0 -12 -1 -21t-6 -15t-16.5 -9t-32.5 -3h-39.5t-39.5 1q-5 -1 -13 -1q-16 0 -17 10q8 27 8 84q0 7 1 12.5l2 11t2 12.5t1 18q0 14 -0.5 32.5
t-1.5 43.5l-4 101q2 5 3.5 14.5t1.5 20.5q0 64 -3 192q0 7 0.5 15.5t0.5 19.5q0 20 -2.5 40.5t-7.5 54.5q0 32 80 32q84 0 84 -25q0 -5 -4 -18.5t-4 -19.5q0 -11 -16.5 -14.5t-36.5 -6t-36.5 -5.5t-16.5 -13l-6 -70l3 -45q0 -6 -3 -19t-3 -20l5 -25q-1 -8 -1 -15.5v-16.5
q0 -12 0.5 -26t1.5 -29z" />
    <glyph glyph-name="backslash" unicode="\" horiz-adv-x="451" 
d="M383 -10v-3q0 -2 -5.5 -7.5l-11.5 -11.5l-16 -16q-14 0 -30 22q1 -3 -6 13.5t-19 42t-27.5 57t-29.5 60t-25.5 49.5t-15.5 26q-1 10 -19 46t-52 99l-87 159q-8 18 -8 26q0 15 15 15q24 0 34.5 -16t19.5 -53q5 -23 38.5 -88t94.5 -174q60 -109 98 -170t52 -76z" />
    <glyph glyph-name="bracketright" unicode="]" horiz-adv-x="374" 
d="M313 220q-1 -5 -1 -15.5v-27.5q0 -29 1 -67t2 -72.5t2.5 -59.5t1.5 -28l7 -25q2 -5 2 -9v-9q0 -15 -28 -26t-90 -11q-26 0 -40 4.5t-20 10.5t-7 13.5t-1 13.5q0 8 6.5 18t23.5 10q4 0 17 -2t27 -4t26 -4t16 -2q10 0 14.5 11.5t6 26.5t1 31t-0.5 25q0 14 -0.5 32.5
t-1.5 43.5l-3 101l2.5 15t1.5 20q0 64 -3 192q1 7 1 15.5v19.5v23t-1 26q-2 6 -49 6q-26 0 -39 1t-14 0q-15 6 -25.5 21t-10.5 29q0 33 93 33q87 0 87 -37q0 -31 -0.5 -50.5t-1 -34t-2 -28.5t-3.5 -34l3 -45q0 -6 -3 -19t-3 -20l5 -25q-1 -8 -1 -15.5v-16.5q0 -12 0.5 -26
t1.5 -29z" />
    <glyph glyph-name="asciicircum" unicode="^" horiz-adv-x="427" 
d="M333 428q-8 0 -17 7.5t-16.5 18.5t-12.5 23.5t-5 21.5q-4 6 -10.5 15t-14 18t-16.5 15t-18 6q-46 0 -78 -65q-11 -22 -11 -31q0 -4 1 -5l-22 -32q-7 7 -13 7q-4 0 -9 -3t-8 -3q-6 0 -11.5 8.5t-6.5 33.5q6 12 26 36.5t42 50t40 45.5t20 24q34 -5 51.5 -8t27 -9.5
t15.5 -18.5l17 -34q0 -5 7.5 -20t17 -32t17 -31.5t7.5 -18.5q0 -19 -20 -19z" />
    <glyph glyph-name="underscore" unicode="_" horiz-adv-x="531" 
d="M127 -92l-25 -7q-9 -3 -17 -3q-21 0 -31.5 6t-10.5 12q0 7 9 16q-1 4 -1 10q0 19 10 20q10 -3 20 -3q11 0 31 4t32 4q5 0 14.5 -2.5t13.5 -2.5h9l-8 3q-1 0 -1 1h2q2 0 3.5 0.5t4.5 0.5q6 -1 15 -2t20 -2q1 0 67 3q7 -1 15.5 -1.5t19.5 -0.5t24.5 1t28.5 1q9 0 23.5 -2
t28 -6t23.5 -11.5t10 -17.5q0 -18 -35 -18h-63t-41 1l-43 5l-61 -3q-2 0 -5 0.5t-7 0.5q-12 0 -30.5 -2t-44.5 -5z" />
    <glyph glyph-name="grave" unicode="`" 
d="M250 399q-6 -3 -11 -3q-9 0 -13 3.5t-8.5 9.5t-12.5 14.5t-25 19.5q-10 6 -23.5 19t-30.5 30l-27 19q-18 12 -18 24q0 10 6 19.5t15 16.5t20 11t20 4h13q20 -24 39 -46.5t23 -51.5q9 -9 23 -26.5t14 -46.5q0 -12 -4 -16z" />
    <glyph glyph-name="a" unicode="a" 
d="M295 52q9 -11 9 -19q0 -24 -46 -28q-5 -1 -21 -4.5t-25 -3.5q-10 0 -14.5 3.5t-7 10t-5 15t-8.5 18.5q-1 1 -4 1t-6 -3.5t-6.5 -7.5t-6.5 -7.5t-4 -3.5q-21 -7 -34 -15.5t-26 -11.5q-1 0 -5 1.5t-7 1.5q-4 0 -8 -1.5t-8 -1.5q-8 0 -19 4.5t-21.5 14t-17.5 23.5t-7 33
q0 15 5.5 36t21.5 32l18 6q3 2 9.5 10t3.5 8q1 0 19 11.5t47 28.5l34 8q8 2 20 9.5t12 15.5q0 3 -3 12q-9 30 -9 42q0 2 0.5 4.5t0.5 4.5q0 7 -4.5 13.5t-11 11.5t-13.5 8t-11 3q-5 0 -8 -3t-8 -13l-10 -18q-11 -11 -11 -22q0 -5 3 -14.5t3 -14.5q0 -6 -6.5 -10.5t-15 -6.5
t-15.5 -3t-8 -1q-8 0 -16 2t-15 8t-11 17.5t-4 30.5q0 21 7.5 34.5t33.5 30.5q23 16 37 19q7 -2 14 -5t14 -3q11 0 23.5 4.5t26.5 4.5q55 0 86 -34q2 -7 6 -16.5t11 -22.5q1 -23 1 -38.5v-24.5v-10v-52q0 -12 -2.5 -31.5t-2.5 -27.5q0 -31 26 -63zM183 164q-3 6 -20 6
q-10 -1 -24 -8t-26.5 -17.5t-21.5 -22t-9 -20.5q0 -8 12.5 -18.5t36.5 -10.5t40.5 21.5t16.5 47.5q0 10 -5 22z" />
    <glyph glyph-name="b" unicode="b" horiz-adv-x="419" 
d="M300 26q-12 -3 -32.5 -14.5t-44.5 -18.5q-29 13 -57 13q-9 0 -23 -3t-29 -6.5t-28 -6.5t-20 -3q-12 0 -24 3q-9 25 -9 71q0 6 1 24t2 39.5t2 42.5t1 35q0 6 -1 10.5t-2 12.5t-2 20.5t-1 33.5v23v95q-1 11 -2 19t-3 14q4 16 4 31q0 12 -3 18l2 14q-14 6 -27 20t-13 27
q0 7 1.5 11t7 6.5t16 5t27.5 7.5q12 3 21.5 5t16.5 2q31 0 55 -34q-1 -30 -3 -70t-7 -91q7 -31 29 -31q3 0 14 3t25 6l28 6t22 3q17 0 37 -6.5t37 -21.5t29 -40t13 -62q3 -7 7.5 -20t4.5 -32q0 -34 -9 -64.5t-42 -64.5q-21 -21 -21 -32zM135 289q-2 -6 -2 -14q0 -4 0.5 -9
t0.5 -10q0 -11 -2 -22t-7 -22v-72q0 -29 5 -48.5t14.5 -31t23.5 -16t32 -4.5q15 0 22 5t10.5 10.5t6.5 10.5t11 5h4q7 6 12 23t8.5 35t5.5 31.5t2 12.5v2q-34 133 -94 133q-25 0 -53 -19z" />
    <glyph glyph-name="c" unicode="c" horiz-adv-x="368" 
d="M279 231q-4 2 -49 56q-38 45 -54 45q-14 0 -31 -14.5t-31.5 -35t-24 -43t-9.5 -39.5q0 -23 11 -47l14 -38q6 -17 17.5 -27.5t24 -16t24.5 -7.5t20 -2q12 0 25.5 6t25 12.5t20.5 12.5t12 6q9 0 17 -10.5t8 -20.5q0 -18 -20 -33.5t-41 -19.5q-7 -2 -14 -11l-13 -16
q-11 -8 -57 -8q-1 0 -17.5 7.5t-49.5 21.5q-43 18 -50 46q-20 18 -25.5 31t-5.5 38v11q-4 10 -12 22v21.5t1.5 12.5t5.5 15l12 27q2 6 2 13q0 5 -0.5 10.5t-0.5 10.5q0 17 15.5 37t38.5 37t50.5 28t51.5 11q31 0 47 -19q10 2 15 2q14 0 32 -13l29 -22q13 -27 13 -51
q0 -33 -27 -46z" />
    <glyph glyph-name="d" unicode="d" horiz-adv-x="423" 
d="M317 16q-17 -12 -32 -12q-6 0 -14 3.5t-16.5 7t-15.5 7t-10 3.5q-12 0 -24 -13q-42 -17 -52 -17q-3 0 -15.5 3.5t-32.5 3.5q-16 0 -27.5 5t-20 13.5t-15.5 18.5l-14 20l-4 31q-18 28 -18 66q0 18 3 38q-3 13 -3 38q3 20 17 44.5t33.5 45.5t42 35.5t43.5 14.5q7 0 12 -1.5
t15 -1.5q4 0 7 0.5t5 0.5q3 0 4.5 -0.5t3.5 -0.5l23 -9q13 -7 22 -7q15 0 21 23q-7 15 -7 43v27q0 47 -29 62q-2 8 -2 12q0 18 24 30t59 12q18 0 27 -2.5t13 -8.5t4.5 -15.5t0.5 -22.5q0 -5 -2.5 -33.5t-2.5 -70.5q0 -13 2 -23q-3 -11 -3 -22q0 -8 2 -25.5t2 -26.5
q0 -14 -5 -29l-4 -93q-1 -11 -1 -22v-21v-37.5t16 -30.5q13 -10 13 -17q0 -6 -5 -13.5t-12 -15t-15 -12.5t-13 -5zM114 93q3 -9 10 -18t16 -16.5t18.5 -13t18.5 -6.5q16 4 24 12q54 0 54 88q0 7 -1 29.5t-3 76.5q0 7 -5.5 15t-12.5 15.5t-12.5 13t-5.5 6.5q-3 9 -6 19.5
t-20 10.5q-12 0 -25 -9t-25 -22t-20.5 -27.5t-10.5 -24.5q0 -4 0.5 -8t0.5 -9q0 -33 -9 -54.5t-9 -29.5q0 -22 23 -48z" />
    <glyph glyph-name="e" unicode="e" horiz-adv-x="352" 
d="M298 241q-59 -9 -98 -9q-17 0 -32 1t-26 5q-3 1 -13 8t-15 7q-28 -6 -38 -90q4 -9 11 -23.5t14.5 -29t14 -25t9.5 -10.5t7 1q3 0 7.5 0.5t9.5 0.5q9 0 20 -1t24 -3q12 11 16 17q6 -3 12 -3t15 7t19 16t19.5 16t14.5 7t11.5 -4t6.5 -13q0 -4 -2 -10.5t-5 -13t-5 -12.5
t-2 -9q-1 -12 -8 -22t-18 -19.5t-24.5 -19.5t-26.5 -20q-9 3 -16 3q-6 0 -20.5 -3t-25.5 -3q-21 4 -43 13t-40.5 22t-31 28.5t-14.5 32.5q-31 22 -31 76q0 8 1.5 23t3 31t3 29t1.5 18q5 5 20 45q11 10 21 22t19.5 23t17.5 19t16 10l87 9l63 -12q46 -12 46 -39q0 -11 -6 -21
q29 -8 29 -41q0 -24 -18 -34zM222 279q4 3 4 9q0 3 -3 11.5t-6.5 17t-6.5 15t-3 5.5q-11 9 -24 9q-17 0 -31 -11q-5 4 -12 4q-14 0 -26 -14l-20 -22q4 -14 7 -18.5t12 -4.5q7 0 15.5 1.5t20.5 1.5q29 0 50 -2t23 -2z" />
    <glyph glyph-name="f" unicode="f" horiz-adv-x="227" 
d="M109 387q-9 -14 -9 -24q0 -16 26 -21l40 -4q25 -3 25 -32t-28 -29q-12 0 -25 6q-31 0 -31 -43q0 -7 1 -19.5t1 -16.5q0 -7 -5 -20t-5 -19q0 -8 5.5 -15.5t5.5 -20.5q0 -10 -1 -18t-1 -10q0 -5 8 -17.5t17.5 -26.5t17 -26t7.5 -15q0 -8 -16.5 -12t-58.5 -4q-71 0 -77 10
l-2 24q22 26 22 77q0 8 -1 19.5t-2 26.5l-3 41v45q-3 39 -15 39h-2l-10 14v13q0 13 4 19t9 9.5t9.5 8t6.5 14.5q0 18 1 36q1 15 3 32t6 29q0 10 7 28t18 35t24 30t25 14q9 10 20.5 19t46.5 20q3 0 9 -2t13 -4.5t13.5 -4.5t10.5 -2l40 1q27 1 41 -18t14 -45t-13 -46t-35 -20
q-5 0 -9.5 -0.5t-10.5 3t-14 14.5t-21 34q-20 36 -38 36q-6 0 -16.5 -7t-21 -20.5t-18.5 -32.5t-9 -44q1 -14 1 -29v-29z" />
    <glyph glyph-name="g" unicode="g" horiz-adv-x="423" 
d="M299 -182q-8 -5 -14 -9.5t-15.5 -8.5t-25 -7t-41.5 -4q-32 -2 -45 -13q-26 3 -50.5 6t-38.5 10q-5 -1 -15 -1q-60 0 -60 85q0 12 1 22t5.5 20t12 21t21.5 26q-2 4 -2 6q0 5 10 10q-27 18 -27 44q0 28 54 96q-1 7 -7 12.5t-13.5 10t-14.5 8.5t-10 9q-8 14 -12.5 28.5
t-4.5 32.5q0 40 23 78.5t59 61.5q73 12 120 12q16 0 25 -6t29 -16q1 -1 4 -1q7 0 12 3.5t8 3.5t13 -3.5t20 -11t18 -18.5t8 -25q0 -22 -19 -22q-7 0 -14 3q-7 -4 -7 -23v-5.5t1 -8.5v-14q0 -26 -5.5 -39.5t-26.5 -24.5q-11 -6 -18 -28l-11 -11q1 0 -29 -11q-15 -7 -28 -7
q-17 0 -29 13h-21q-14 0 -18 -6q-1 -7 -8.5 -22.5t-7.5 -23.5q0 -6 6 -12t36 -6h-1q10 1 24 2q12 1 29.5 2.5t41.5 3.5l56 -16q8 -3 21.5 -10t26 -19t22 -29t9.5 -40q0 -30 -8.5 -48t-20.5 -31t-25 -23.5t-23 -25.5zM94 290q-2 -38 -3 -67t-1 -48q34 -34 66 -34q29 0 48 26
t19 66q0 12 -3 28.5t-10.5 31.5t-21 25.5t-34.5 10.5q-11 0 -19 -8l-15 -15q-10 -3 -26 -16zM166 -16q-7 -10 -23 -10q-6 0 -18 1.5t-18 1.5q-11 0 -15 -2.5t-6.5 -7.5t-5.5 -12t-12 -16q-21 -20 -23 -35q7 -12 36 -28q2 -10 4.5 -16.5t10 -11t22 -8t39.5 -9.5l10 7
q45 2 69.5 8.5t34.5 17.5q43 18 43 48q0 10 -8 23.5t-20 26t-27 21.5t-29 9q-8 0 -18 -5t-15 -5q-10 2 -21 2h-10z" />
    <glyph glyph-name="h" unicode="h" horiz-adv-x="428" 
d="M355 0h-54q-19 0 -25 -5.5t-16 -8.5q-15 7 -15 21q0 9 8 23l12 17q1 29 1.5 61.5t0.5 70.5q0 17 -0.5 44t-1.5 64q-6 7 -12 19h-6q-3 -1 -6 -1q-3 17 -38 22q-54 -13 -72.5 -36.5t-18.5 -67.5v-76q0 3 8 -21q3 -7 4 -12.5t1 -10.5q0 -3 -0.5 -5.5t-0.5 -4.5q0 -18 18 -36
l36 -27q-13 -28 -42 -28q-5 0 -13 1t-17 2.5t-17.5 3t-12.5 1.5q-11 0 -17 -5.5t-17 -5.5q-26 0 -33 25q7 21 21 49q11 8 11 39v10t-1 11v56q0 4 -1 14.5t-3 27.5l-6 59q0 23 2 36.5t4 13.5v63q0 22 -12 66q-34 19 -34 36q0 18 41 35l54 18q7 -2 15.5 -2.5t10.5 -7.5
q6 -21 6 -50q0 -24 -1 -40.5t-1 -25.5q0 -10 1 -17.5t1 -15.5q0 -14 -1.5 -22t-2.5 -8v1q0 -2 10 -18q3 -4 8 -4q13 0 21 10q29 7 52.5 10.5t41.5 3.5q27 0 45 -6t30 -17.5t19.5 -29t14.5 -40.5q1 -4 1 -7.5v-6.5q0 -13 -5.5 -30t-5.5 -42q0 -15 0.5 -28t0.5 -24v-19t-2 -13
q0 -1 24 -43q17 -31 17 -45q0 -21 -30 -21z" />
    <glyph glyph-name="i" unicode="i" horiz-adv-x="215" 
d="M165 42q-2 -29 -14.5 -39.5t-52.5 -10.5h-48q-32 0 -32 25q0 10 6 17t13 14t13 16.5t6 23.5q0 5 -0.5 9t-0.5 8q0 11 1 16t1.5 7t1.5 3.5t1 5.5t-4 10.5t-4 17.5q0 3 3.5 10.5t4.5 11.5q0 -1 -1 -1l-3 43q9 10 9 21q-3 13 -7 18.5t-4 16.5v5q-29 15 -29 44q0 3 0.5 9
t1.5 16q9 0 21.5 5t26 11.5t26.5 11.5t22 5q16 0 26.5 -5t10.5 -32q0 -3 -0.5 -7t-0.5 -8v-9q0 -6 -1 -20t-3.5 -28t-5 -25t-5.5 -11v2v-46q0 -3 2 -12.5t2 -22.5q0 -7 -1.5 -15t-1.5 -18q0 -5 0.5 -10t1.5 -10q-1 -4 -1 -8v-9q0 -47 19 -56zM156 479q-12 -3 -24.5 -9.5
t-17.5 -6.5q-3 0 -13 6t-41 20q-8 10 -8 23q0 8 4 18.5t10.5 20t16 16t20.5 6.5t25 -11l28 -24q8 -8 8 -18q0 -7 -4 -20.5t-4 -20.5z" />
    <glyph glyph-name="j" unicode="j" horiz-adv-x="215" 
d="M123 452q-11 -11 -32 -11q-17 0 -31 10.5t-14 23.5q0 15 16.5 30.5t36.5 21.5q5 9 10 12q15 -2 25 -20t10 -37q0 -29 -21 -30zM132 74q0 -3 -1 -8l-2 -10t-2 -8.5l-1 -3.5q-1 -38 -12 -74t-22 -70q-4 -4 -9.5 -12t-11.5 -32q-6 -3 -10.5 -8t-9 -12t-9.5 -14.5t-14 -14.5
q-19 3 -19 26q0 14 2.5 19.5t6 13t7.5 22t7 44.5l7 42q3 19 3 34q0 11 -0.5 22.5t-0.5 24.5q0 24 1 49.5t2.5 47.5t2.5 38t1 20q0 19 -1.5 37.5t-5.5 35.5q-5 2 -16 12t-11 21q0 7 5.5 14.5t13 13.5t16.5 10t15 4h3q2 5 10 11t26 6q8 0 13 -15t12 -35l-3 -23q0 -10 0.5 -17
t0.5 -13q0 -8 -0.5 -11t-0.5 -7q0 -9 3 -32.5t3 -63.5q0 -9 -1.5 -21.5t-1.5 -27.5q0 -9 1 -17t3 -15v-3z" />
    <glyph glyph-name="k" unicode="k" horiz-adv-x="435" 
d="M263 296l6 27q-2 3 -10 6.5t-16 7.5t-15 7t-7 4l13 18q10 1 24 3t34 5l28 7q15 4 26 4q28 0 28 -48q-16 -13 -39 -33t-54 -46q-1 -5 -5 -11t-8 -13t-7.5 -13t-3.5 -9q0 -11 20 -44.5t54 -80.5q7 -11 21 -16.5t27 -10.5t23 -10.5t10 -15.5q0 -18 -20.5 -30.5t-47.5 -12.5
q-6 0 -16.5 1t-22.5 2t-22.5 2t-14.5 1q-5 0 -10 -0.5t-10 -1.5q-29 11 -41 26l2 20l22 15v17q-15 38 -26 55t-19.5 23.5t-14.5 8t-12 10.5q-11 -4 -17 -15t-8.5 -23t-3 -23.5t-0.5 -16.5q0 -35 22 -35q3 0 13 2q12 -8 12 -17q0 -6 -8 -14.5t-19.5 -16t-24 -12.5t-22.5 -5
q-5 0 -12 5q-4 2 -7 5q-20 -3 -36 -3q-39 0 -39 19q0 14 23 39v18.5t1 40.5t3.5 47t6.5 39l-9 11l-3 18q6 11 12.5 22.5t6.5 20.5q0 10 -8 26q5 45 8 70t3 31q0 14 -1.5 29.5t-5.5 31.5q-37 34 -37 67v9.5t3 8.5t11.5 8t26.5 8q38 10 44 13q23 -16 47 -20q0 -8 -2 -29
t-4 -44.5t-4 -45t-2 -30.5q0 -25 5.5 -42t5.5 -32l-7 -16q-3 -17 -3 -35q0 -6 0.5 -12t0.5 -12q-2 -5 -2 -8.5v-8.5q0 -21 14 -34q31 3 35 3l42 32q9 6 12.5 7.5t6.5 5.5t8 12t16 27z" />
    <glyph glyph-name="l" unicode="l" horiz-adv-x="223" 
d="M11 -7q-14 31 -14 38q0 4 4.5 7.5t9.5 6l10 5t7 5.5q7 17 7 72q0 48 -1.5 74.5t-3.5 41t-3.5 22t-1.5 18.5t9 19q-3 13 -3 28q0 29 14 71v2q0 6 -5 13.5t-5 12.5q1 6 1.5 11t0.5 10q0 11 -4.5 27.5t-5.5 29.5q-35 23 -35 42q0 17 27 27.5t62 10.5q15 0 24 -1t14 -7
t6.5 -18.5t2.5 -36.5v-60q0 -20 3 -30q-5 -15 -6.5 -30.5t-1.5 -32.5t1.5 -34.5t6.5 -35.5l-5 -15q1 -8 1.5 -22t0.5 -36q0 -54 -2.5 -87t-4.5 -41q2 -19 10 -27v-4q0 -12 6.5 -17t14 -8.5t14 -7t6.5 -12.5q0 -19 -62 -24l-69 -2q-6 -2 -13 -4.5t-11 -2.5q-5 0 -6 2z" />
    <glyph glyph-name="m" unicode="m" horiz-adv-x="635" 
d="M585 7q-8 -11 -27.5 -11.5t-48.5 -0.5q-7 0 -19 -1t-23 0t-19.5 6.5t-8.5 19.5q0 6 5.5 13.5t12 15t12.5 14t7 12.5q1 11 1 21v18q0 20 -1.5 33.5t-1.5 23.5q0 21 3.5 42.5t3.5 42.5q0 15 -8.5 25t-21 16.5t-28 9.5t-30.5 3q-6 0 -7 2t-4 0.5t-10 -9.5t-23 -27
q-12 -14 -15.5 -27t-3.5 -30q0 -10 1.5 -21t3.5 -23l-3 -53q2 -8 4.5 -20t5.5 -28q-2 -8 -2 -16t3.5 -13t11.5 -6q1 0 6.5 1.5t10.5 1.5t12 -3.5t7 -9.5q0 -18 -19.5 -24t-43.5 -6.5t-43.5 0.5t-19.5 -2h2q-29 0 -45.5 3t-16.5 26q0 4 5 8.5t11.5 9t12 8.5t6.5 8
q4 28 6 48.5t2 34.5q0 13 -3 37t-3 52v48q-21 32 -61 32q-19 0 -31 -12q-26 -23 -31 -38t-5 -30q0 -5 2 -17.5t2 -27.5t-2.5 -27.5t-2.5 -23.5q0 -8 1.5 -17t1.5 -12q0 -6 -4.5 -18t-4.5 -19q0 -8 7 -15.5t16 -13.5t16 -11.5t7 -10.5q0 -11 -6 -15h-5q-10 0 -20.5 -4
t-19.5 -4q-4 0 -11 1.5t-12 1.5t-10 -2.5t-10 -2.5q-4 0 -9 3t-9 3q-5 0 -10.5 -3t-9.5 -3q-3 0 -5 3.5t-3.5 7.5t-2 6.5t-0.5 0.5l-3 28q3 3 6.5 9t6.5 18.5t5 33t2 50.5q0 17 -1 23.5t-2 11.5t-2 13t-1 28q9 12 9 26q0 11 -6 25q3 7 3 26q-1 1 -4.5 3.5t-7.5 6.5t-7 8.5
t-3 8.5q0 5 3 14.5t18 11.5q20 2 21 2q4 1 15.5 7t17.5 6q10 0 15 -7t8 -15t6 -15t8 -7q1 0 4.5 2t11 6t20.5 9t33 10q36 16 51 16q18 0 33 -15q2 -2 5 -2q2 0 4 0.5t4 0.5q10 0 17 -7t12 -15t10 -15t12 -7q3 4 10.5 13t20.5 18t31.5 16t41.5 7q22 0 30 -7q2 0 4 0.5t5 0.5
q14 0 27 -6t23 -14t16.5 -16.5t8.5 -13.5l6 -46q9 -35 9 -43q0 -3 2 -18.5t2 -27.5q0 -1 -2 -11t-2 -16v-45q-1 -9 -1 -18v-18q2 -22 10.5 -34t8.5 -23v-2z" />
    <glyph glyph-name="n" unicode="n" horiz-adv-x="419" 
d="M361 21q-3 -7 -14 -12t-22.5 -8.5t-20 -5l-8.5 -1.5l-2 -1q-4 0 -9.5 3.5t-7.5 3.5l-25 -3q-17 1 -25 1.5t-7 0.5q-20 23 -20 32q0 5 7.5 10l16.5 11t16.5 13.5t7.5 16.5v56q-2 5 -3 9q-2 10 -2 12q0 3 5 11.5t5 13.5v28q-1 16 -11 19q3 6 3 14q0 12 -4.5 24t-12 21.5
t-17.5 16t-20 6.5q-7 0 -14 -3h-4q-16 0 -34 -14t-24 -34v-56q-5 -22 -5 -50q0 -9 -0.5 -25t2 -32.5t9 -30t20.5 -17.5q23 -8 24 -20q-5 -11 -17 -18l-21 -12q-5 0 -16.5 2.5t-18.5 2.5q-13 0 -23 -6q-4 1 -9 1h-11q-3 -1 -8 -1q-18 0 -35.5 12.5t-19.5 30.5l8.5 8.5
t11 12.5t9.5 15t4 15v3q9 13 9 26q0 12 -7 19q1 24 1 41.5t1 29.5q0 14 1 24l-8 21q1 3 1 11t-4 14.5t-8.5 12.5t-8.5 11.5t-4 12.5q0 31 55 58q12 -15 31 -15q2 0 3.5 0.5t3.5 0.5q32 -32 36 -32q3 0 7 3t8.5 7t8.5 8t6 5q7 1 16 2.5t21 4.5l18 8q12 6 19 6h3l41 -21
q24 -13 37.5 -25.5t20.5 -25t9 -25.5t2 -28v-45q0 -1 -3.5 -10t-4.5 -13v1l3 -15q1 -8 2 -18t1 -22q0 -13 -1 -26.5t-1 -21.5q0 -4 0.5 -11t2.5 -14t5.5 -12.5t8.5 -5.5t8 -4.5t3 -8.5q0 -3 -1 -4z" />
    <glyph glyph-name="o" unicode="o" horiz-adv-x="397" 
d="M345 209q3 -38 3 -49q0 -12 -2.5 -21.5t-7 -19.5t-10.5 -22t-13 -27q-3 -2 -7 -10.5t-13 -20t-25.5 -24t-44.5 -22.5q-11 -1 -31 -6.5t-43 -5.5q-25 0 -49.5 8t-44.5 24.5t-33 42.5t-16 62q-8 21 -17 67q0 10 9 29t10 34l12 57l35 31q27 24 55.5 38t65.5 14q38 0 57 -22
l20 -4q26 -12 28 -30q5 -2 11 -6t10.5 -9t6.5 -11.5t0 -13.5q30 -33 34 -83zM247 262q-3 14 -9.5 28t-15.5 25t-19 17.5t-21 6.5h-4l-28 -3q-23 -3 -35.5 -19t-19 -36.5t-8 -41t-1.5 -30.5q0 -11 -1 -15.5t0 -11t5 -20t13 -40.5l3 -13.5t10.5 -29.5t19.5 -29.5t31 -13.5
l17 -2q2 0 11 3t18 9.5t15.5 15.5t3.5 21q7 9 24 72q2 7 5 14.5t3 13.5q0 4 -1 6z" />
    <glyph glyph-name="p" unicode="p" horiz-adv-x="427" 
d="M354 59q-4 0 -7.5 -4.5t-9.5 -12.5l-16 -20q-11 -10 -24 -16t-26 -10t-22.5 -6.5t-12.5 -4.5q-1 0 -8.5 2t-18 4.5t-21.5 4.5t-17 2q-7 0 -12 -9t-8 -21.5t-4.5 -25t-1.5 -19.5q0 -11 1.5 -25.5t5.5 -33.5q51 -24 51 -52q0 -13 -15 -20q-13 4 -47 4q-30 0 -53 -2t-37 -7
q-24 3 -34 12t-10 24q1 1 8.5 5.5t15.5 11t14.5 14t6.5 14.5q0 10 -4.5 21.5t-4.5 12.5q10 41 10 137q0 48 -3 82.5t-8 56.5q7 15 7 34q0 11 -6 28t-12.5 34.5t-12.5 32.5t-6 21q0 31 45 57q4 2 6 2q7 0 13 -5.5t14.5 -12.5t20 -12.5t29.5 -5.5q22 0 37 8t34 8
q9 0 24.5 -3.5t31 -7.5t27 -8.5t13.5 -5.5q30 -20 33 -42l21 -24q0 -6 6 -19t13 -27.5t13 -27t6 -17.5q0 -11 -9 -35.5t-20 -55.5q-5 -8 -11 -15.5t-6 -15.5q0 -1 0.5 -2t0.5 -2zM162 91q-1 -3 -1 -9q0 -20 13 -30.5t33 -10.5q19 0 36 8t30 22.5t20 34.5t7 44q0 16 -4 35
t-9.5 36.5t-11 31t-9.5 19.5q-11 15 -33.5 30.5t-48.5 15.5q-48 0 -48 -95q0 -88 26 -132z" />
    <glyph glyph-name="q" unicode="q" horiz-adv-x="416" 
d="M347 -170q-3 -27 -49 -33q-11 -12 -32 -12q-23 0 -38 9t-15 26q0 4 3.5 10.5t8 12.5t8 11.5t4.5 8.5v14.5t0.5 31.5t2.5 36t6 28q-2 32 -5 42.5t-15 13.5l-8.5 -3.5t-21 -7.5t-26 -7.5t-22.5 -3.5q-6 0 -8.5 1t-5.5 2.5t-7.5 3t-13.5 2.5h-25l-27 21q-13 10 -19.5 15.5
t-7.5 6.5l-8 25q-11 11 -17 24.5t-8.5 28t-3 28t-0.5 24.5q0 42 10 68q5 4 12 15t15 23.5t15 23t12 15.5q24 4 39.5 14t32.5 21q25 3 43 3q22 0 34 -6t19.5 -14t11.5 -15.5t10 -9.5q23 5 27 17q12 13 26 15t28 3q11 -19 11 -86q0 -10 -1.5 -41.5t-3.5 -70t-3.5 -77
t-1.5 -61.5v-14.5t1 -11.5q-9 -20 -9 -51q0 -53 22 -119zM265 256q-17 31 -48 51.5t-63 20.5q-7 0 -13 -2.5t-18 -20.5l-21 -31q0 -2 -1.5 -8t-2.5 -13.5t-2 -14.5t-1 -11q0 -18 10 -35q-1 -7 -1.5 -15t-0.5 -16q0 -45 14.5 -74t43.5 -29q7 0 17.5 3.5t18.5 3.5h4
q18 4 28 10t16 20t8 39.5t3 67.5q0 18 2.5 31.5t6.5 22.5z" />
    <glyph glyph-name="r" unicode="r" horiz-adv-x="304" 
d="M285 303q0 -5 -2.5 -12t-8.5 -13.5t-16 -11.5t-24 -5q-7 0 -19.5 10.5t-30.5 18.5q-14 0 -27 -16t-18 -42l1 -44q1 -42 3 -68.5t6.5 -41t11 -20t17.5 -5.5q4 0 7 1q0 -1 6.5 -4t6.5 -10q0 -2 -2 -8t-5.5 -12.5t-9.5 -11.5t-14 -5q-5 0 -16.5 2t-16.5 2q-12 0 -18 -9
q-5 3 -9 3q-5 0 -10.5 -2.5t-10.5 -3.5l-39 12q-3 -1 -11 -1q-5 0 -12.5 0.5t-7.5 11.5q0 6 6 14t13 17t13 19.5t6 22.5q0 5 -1.5 16t-3 22.5t-3 21.5t-1.5 13q0 124 1 124v-1q0 2 -5.5 7.5t-11.5 12.5t-11.5 15t-5.5 15q0 11 10 20t23 15t25.5 9.5t16.5 3.5t12 -2t15 -6.5
t12.5 -10.5t5.5 -14q0 -3 -1 -8.5t-1 -8.5q0 -12 11 -12q4 0 16 15.5t26 29.5q5 1 17 5t24 4q11 0 21.5 -8t19 -19t14 -24t6.5 -23z" />
    <glyph glyph-name="s" unicode="s" horiz-adv-x="303" 
d="M253 143q4 -7 4 -24q0 -47 -15 -68t-52 -31l-44 -12q-29 -15 -48 -15q-12 0 -36 8q-2 1 -7 7.5t-10 6.5q-3 0 -9.5 -3t-12.5 -6t-11.5 -6t-7.5 -3q-5 0 -6 8.5t-1 20.5q0 38 6.5 59.5t14.5 24.5q10 0 15 -8.5t9 -17.5q26 -35 57 -35q27 0 45.5 12.5t18.5 44.5q0 19 -8 33
q-4 -2 -6 -2q-3 0 -9.5 3t-14 6.5t-14.5 7t-11 4.5q-6 -2 -12 -2q-2 0 -3 0.5t-3 0.5l-46 32q-39 24 -39 66q0 6 4 23t13 35.5t23.5 33.5t35.5 16q29 4 40 8t18 4q4 0 11.5 -3t15 -6.5t13 -6.5t6.5 -3t1.5 -0.5t1.5 -0.5q7 0 17 6t15 6t8.5 -6.5t5.5 -14.5t3 -16.5t1 -11.5
q0 -31 -26 -45q-10 11 -23.5 26t-32.5 35q-1 0 -1.5 0.5t-1.5 0.5t-13 -2t-26 -7.5t-25.5 -15t-11.5 -23.5q0 -8 3.5 -16t10.5 -10h15q15 -13 27 -19.5t21 -9.5t15.5 -4t10.5 -3q7 -11 14.5 -14.5t14 -5t13 -3.5t11.5 -11z" />
    <glyph glyph-name="t" unicode="t" horiz-adv-x="276" 
d="M243 353q0 1 -13 -18q-14 -18 -36 -18q-6 0 -18.5 1.5t-17.5 1.5q-28 0 -38 -34q1 -8 1.5 -18.5t0.5 -23.5q-3 -29 -3 -46q0 -5 0.5 -9t0.5 -7t-0.5 -6t-0.5 -6q0 -7 -0.5 -21t2 -30t10 -32t23.5 -27q7 1 14.5 5.5t14.5 9t12 8t8 3.5q8 0 14 -5t8 -20q0 -10 -5 -16.5
t-14 -12.5t-21 -11.5t-25 -13.5l-17 -2q-16 -11 -30 -11q-12 0 -15 6t-14 6h-4q-5 6 -13.5 11.5t-17 15.5t-15 27t-6.5 45q0 20 2.5 28t2.5 19q0 20 -7 38q5 10 5 15q-1 31 -1.5 66t-16.5 64q-8 15 -8 23v3l13 20q7 13 7 23v3q3 3 8.5 6.5t5.5 8.5l35 17l23 4q2 0 2.5 0.5
t2.5 0.5q11 0 20 -17l15 -28q7 -10 27 -10q6 0 20 1.5t20 1.5q37 0 39 -39z" />
    <glyph glyph-name="u" unicode="u" horiz-adv-x="411" 
d="M359 -3q-3 -11 -47 -11q-5 0 -14 -0.5t-19 0.5t-17.5 4t-9.5 9v17q0 8 -3 10.5t-10 2.5q-9 0 -24.5 -5.5t-32.5 -12t-33.5 -12t-27.5 -5.5q-43 0 -64.5 28t-22.5 77v13v18.5t-1 24.5v8q0 8 -1.5 22t-1.5 30q0 23 9 35q-9 8 -17 30q1 3 1 7q0 6 -5 10t-11 9t-11 11.5
t-5 18.5t5 21t11.5 15t13 9t9.5 3q1 -1 6 -1q9 0 17 1t13 1q25 0 41.5 -11.5t16.5 -34.5q0 -8 -1.5 -18.5l-3.5 -24.5q1 -25 2.5 -62t1.5 -91q-3 -14 -4 -22t-1 -13q0 -12 6.5 -20.5t16 -14t20.5 -8.5t20 -3q11 0 19.5 0.5t17.5 6t18.5 18.5t22.5 38q0 9 -3 21t-3 16t3 14
t3 11l2 74q3 10 3 18q0 11 -3 16t-7.5 7.5t-11.5 6t-14 11.5q-6 7 -14 7t-14.5 -0.5t-11.5 2t-5 14.5q0 11 14 26.5t43 15.5q10 0 12.5 -2t8.5 -2q11 0 22.5 1t14.5 1q7 0 17 -1.5t19 -8t15 -19.5t6 -35q0 -7 -0.5 -16.5t-1.5 -22.5l-3 -46v-53l1 -8l-2 -66q-2 -8 -2 -12
q0 -6 4 -15.5t8.5 -19t8.5 -18.5t4 -14q0 -15 -13 -31z" />
    <glyph glyph-name="v" unicode="v" horiz-adv-x="420" 
d="M388 362q-2 -19 -3 -29.5t-2 -15t-3.5 -5.5t-8.5 -1q-4 0 -10 2.5t-8 2.5q-5 0 -8 -11q0 -3 0.5 -6t0.5 -8q0 -4 -0.5 -9t-0.5 -10l-24 -26q-4 -4 -4 -13q0 -7 0.5 -11.5t0.5 -5.5q-4 -18 -12 -32q-8 -16 -11.5 -27.5t-6 -21.5t-5.5 -19.5t-11 -21.5q-4 -7 -10.5 -18.5
t-14.5 -28.5v-16l-2.5 -4.5t-5.5 -11.5t-5.5 -13.5t-2.5 -9.5v-3q-9 -16 -31 -16q-14 0 -19 6t-7.5 14t-5.5 17.5t-13 16.5q0 13 -5 23.5t-11 18.5t-12 14t-8 10q-1 10 -2.5 19.5t-7.5 24.5t-18.5 38.5t-35.5 60.5l-6 40q-2 6 -11.5 15t-20 18t-18.5 17t-8 12q0 7 6.5 16
t16 17t19.5 13.5t16 5.5q7 0 19.5 -7.5t15.5 -8.5q4 -1 8 -1h8q7 -1 16 0.5t20 3.5l36 6q2 -2 9 -2.5t15 -2t14 -3.5t6 -6q0 -8 -9.5 -18.5t-33.5 -18.5q-32 -11 -32 -21q-1 -8 7 -20t19 -40l28 -75q18 -49 30 -51q3 1 9 7v7q0 30 21 86l4 32l2 4.5t5 11t5 13t2 10.5
q0 6 -6 15.5t-13 19t-13 17.5t-6 11q0 12 23 19q5 -2 12.5 -3t18.5 -2q8 2 16 2h16q28 0 45.5 -3t21.5 -10z" />
    <glyph glyph-name="w" unicode="w" horiz-adv-x="615" 
d="M385 321q-2 -6 -4.5 -7.5t-7.5 -1.5q-7 0 -16 3q-8 -6 -11 -10l18 -27q2 -10 5.5 -25t20.5 -34q6 -8 6 -12q0 -1 -0.5 -1.5t-0.5 -1.5q7 -8 19 -24t14 -32q2 -8 10 -15q4 1 6.5 6.5t4 13t2 14.5t2.5 10l6 7t13.5 17t13.5 21t6 20q26 11 26 27q0 7 -4 15t-13 10l-16 6
l-15 17q-12 13 -12 21q0 22 27 31t80 9q8 -8 14 -13.5t11 -9.5l8 -8q-2 -12 -8 -18t-14 -11t-16 -12.5t-13 -22.5q-12 -26 -18 -45t-10 -38.5t-8.5 -42.5t-11.5 -57l-20 -31q-2 -14 -8.5 -30.5t-31.5 -48.5q-2 -2 -6 -2q-11 0 -20.5 3t-21 16.5t-27 40t-36.5 73.5
q0 19 -1.5 27.5t-5 12.5t-9 4.5t-12.5 2.5q-15 -29 -15 -53v-4q0 2 -13 -17q-4 -7 -10.5 -18.5t-14.5 -28.5v-16l-2.5 -4.5t-5.5 -11.5t-5.5 -13.5t-2.5 -9.5v-3q-9 -16 -31 -16q-14 0 -19 6t-7.5 14t-5.5 17.5t-13 16.5q0 13 -5 23.5t-11 18.5t-12 14t-8 10
q-1 10 -2.5 19.5t-7.5 24.5t-18.5 38.5t-35.5 60.5l-6 40q-2 6 -11.5 15t-20 18t-18.5 17t-8 12q0 7 6.5 16t16 17t19.5 13.5t16 5.5q7 0 19.5 -7.5t15.5 -8.5q4 -1 16 -1q18 0 48 3q1 -1 7 -2.5t13 -3.5t13 -5.5t6 -7.5q0 -13 -7 -19.5t-16 -10.5t-16 -7t-7 -9q-1 -8 7 -20
t19 -40l28 -75q18 -49 30 -51q3 1 9 7v7q0 30 21 86l4 32q0 2 9 20q-7 12 -15.5 22.5t-15.5 19.5t-12 16.5t-5 13.5q0 2 4.5 7t10.5 10t13.5 9t13.5 4q1 0 9 -2q9 5 19 13q4 0 11.5 -2t15.5 -5t15.5 -5.5t11.5 -2.5h-2q0 2 41 2q35 0 35 -36q0 -11 -5.5 -14.5t-27.5 -5.5z
" />
    <glyph glyph-name="x" unicode="x" horiz-adv-x="403" 
d="M344 353q-16 -13 -39.5 -32.5t-54.5 -46.5q0 -3 -4.5 -11.5t-9 -19t-8.5 -19.5t-4 -12q0 -6 14 -29t29 -52q16 -5 24.5 -18.5t20.5 -24.5l28 -26q4 -4 4 -11q0 -8 -7 -18q-11 -15 -25 -22t-30 -10.5t-33.5 -4t-33.5 -1.5q-29 11 -41 26l1 20l23 15v17q-27 65 -41 74
q-12 -9 -15 -21.5t-4 -15.5q-9 -8 -15 -15t-10.5 -14t-4.5 -13q0 -19 37 -22l6 -26q-8 -19 -23.5 -22t-32.5 -3q-33 0 -59 7t-26 25q0 23 6.5 32t15.5 13.5t19.5 9t18.5 18.5q6 11 20 13q0 -1 4.5 6t10 17.5t10.5 21.5t5 18q0 18 -24 44q0 10 -1 17t-5 13t-12 13t-21 17
l-4 17l-15 7l-26 28q-18 19 -18 34q0 8 3.5 13t13.5 5h6l19 -3h8q8 0 20.5 2t25 4.5l22.5 4.5t15 2q42 0 42 -24q0 -6 -4.5 -11.5t-9.5 -11t-9.5 -12.5t-4.5 -16q0 -10 4 -20t10.5 -18t14 -13t14.5 -5q19 0 22 32l27 17l6 28q-2 3 -10 6.5t-16 7.5t-15 6.5t-7 4.5l13 17
q10 2 24 4t34 4l28 7q15 4 26 4q28 0 28 -48z" />
    <glyph glyph-name="y" unicode="y" horiz-adv-x="401" 
d="M364 323q-12 8 -21 8q-13 0 -24 -20t-16 -47q-9 -42 -22.5 -63t-13.5 -25q0 -6 1.5 -12.5t1.5 -8.5q0 -6 -5.5 -19t-12.5 -28.5t-12.5 -32t-5.5 -28.5q-1 0 -5 -10.5t-9 -23t-9 -24t-4 -14.5v-1q-5 -10 -10 -19t-9 -18l-16 -53q1 -5 1 -9v-8q0 -11 -2.5 -18.5t-7.5 -7.5
q-1 0 -1 0.5t-1 0.5q-5 -56 -33 -56q-8 0 -15 4.5t-21 4.5q-23 0 -36.5 -2t-15.5 -2q-22 0 -31 15t-9 24q0 25 38 51q7 -3 15 -3q18 0 33.5 14.5t27.5 35t18.5 41.5t6.5 33q0 35 -10.5 67.5t-44.5 62.5q3 7 3 17q0 20 -16 42v15q-11 26 -14.5 43.5t-6 29.5t-8 20.5
t-21.5 15.5q-31 13 -31 33q0 26 54 34q22 -12 46 -12q8 0 18.5 2t21.5 5t20 5t14 2q12 0 20 -5.5t8 -18.5q0 -10 -10 -12t-22 -3.5t-22.5 -6.5t-11.5 -22q19 -29 48 -92q-1 -2 -1 -8q0 -14 7.5 -30t18.5 -16q6 0 9 4t5.5 12t6.5 20.5t12 29.5q17 34 17 64q0 7 -1 14t-13 21
q-12 15 -12 23q0 7 7 14q1 1 34 3.5t87 2.5q15 0 23 -1.5t11.5 -4.5t4 -7.5t0.5 -10.5q0 -31 -26 -31zM60 -181q8 13 8 19q0 9 -9 9q-5 0 -8 -6t-3 -13q0 -10 7 -10q3 0 5 1z" />
    <glyph glyph-name="z" unicode="z" horiz-adv-x="391" 
d="M287 262q-87 -69 -112 -166q-4 -3 -16 -15l-1 -19q-5 -8 -5 -14q0 -14 21 -14q24 0 40 11.5t18 14.5l11 1q16 16 24 26.5t12.5 15.5t8 7t12.5 2q30 0 30 -32q0 -2 -1.5 -14t-6 -28t-13.5 -31.5t-25 -23.5q-5 0 -12 2t-14.5 4t-14 4.5t-9.5 2.5q-18 1 -33 1.5t-27 0.5
q-17 0 -27.5 -1.5t-17.5 -3t-11.5 -2.5t-10.5 -1q-5 0 -15.5 2t-21.5 2q-3 0 -18.5 -5.5t-24.5 -5.5q-29 3 -29 31q0 7 1.5 13t16.5 19q18 16 19 20l11 27q9 6 14.5 11t8.5 10t5 12t4 18q16 15 34 33t38 40q2 8 10.5 23t18.5 30.5t17.5 28.5t7.5 17q0 13 -16 20
q-25 -1 -39 -2t-22.5 -3.5t-14.5 -7t-15 -13.5q-12 -3 -29 -19q0 -16 -6.5 -24.5t-17.5 -8.5q-5 0 -12.5 3t-7.5 23q0 19 5 43t13 45.5t17.5 36.5t19.5 15q4 0 10.5 -7t13 -16t12 -17t7.5 -9q4 -3 23 -3q36 0 60.5 2.5t41 6t27 6t17.5 2.5h13t15.5 -1t13 -4.5t5.5 -10.5
q0 -26 -51 -111z" />
    <glyph glyph-name="braceleft" unicode="{" horiz-adv-x="335" 
d="M305 357q-1 -5 -1 -15.5v-27.5q0 -29 1 -67t2 -72.5t2.5 -59.5t1.5 -28l7 -25q2 -5 2 -9v-9q0 -15 -28 -26t-90 -11q-36 0 -50 7q-12 -3 -29 -3h-39.5t-39.5 1q-5 -1 -13 -1q-16 0 -17 10q8 27 8 84q0 7 1 12.5l2 11t2 12.5t1 18q0 14 -0.5 32.5t-1.5 43.5l-4 101
q2 5 3.5 14.5t1.5 20.5q0 64 -3 192q0 7 0.5 15.5t0.5 19.5q0 20 -2.5 40.5t-7.5 54.5q0 32 80 32q27 0 45 -3q8 7 30 7q11 0 25.5 -1.5t31.5 -6.5q28 5 42 5q40 0 40 -26q0 -31 -0.5 -50.5t-1 -34t-2 -28.5t-3.5 -34l3 -45q0 -6 -3 -19t-3 -20l5 -25q-1 -8 -1 -15.5v-16.5
q0 -12 0.5 -26t1.5 -29zM62 357q-1 -5 -1 -15.5v-27.5q0 -29 1 -67t2 -72.5t2.5 -59.5t1.5 -28q1 -11 49 -11q10 0 22 1t24 1q2 0 4 -0.5t4 -0.5l37 -6q16 -3 26.5 -5t15.5 -1q10 0 14.5 11.5t6 26.5t1 31t-0.5 25q0 14 -0.5 32.5t-1.5 43.5l-3 101l2.5 15t1.5 20
q0 64 -3 192q1 7 1 15.5v19.5v23t-1 26q-1 2 -16.5 3.5t-34.5 2.5q-22 1 -49 1q-10 5 -21 5q-19 0 -34 -4.5t-25.5 -10.5t-16 -12t-5.5 -9l-6 -70l3 -45q0 -6 -3 -19t-3 -20l5 -25q-1 -8 -1 -15.5v-16.5q0 -12 0.5 -26t1.5 -29z" />
    <glyph glyph-name="bar" unicode="|" horiz-adv-x="131" 
d="M70 220q-1 -5 -1 -15.5v-27.5q0 -29 1 -67t2 -72.5t2.5 -59.5t1.5 -28l7 -25q2 -5 2 -9v-9q0 -21 -5.5 -31.5t-11.5 -10.5q-7 0 -16 10q-4 -1 -10 -1q-19 0 -20 10q8 27 8 84q0 7 1 12.5l2 11t2 12.5t1 18q0 14 -0.5 32.5t-1.5 43.5l-4 101q2 5 3.5 14.5t1.5 20.5
q0 64 -3 192q0 7 0.5 15.5t0.5 19.5q0 9 -0.5 16.5t-1.5 15.5t-3 18.5t-6 27.5q0 24 10.5 41.5t23.5 17.5q17 0 17 -35v-63t-1 -41l-5 -43l3 -45q0 -6 -3 -19t-3 -20l5 -25q-1 -8 -1 -15.5v-16.5q0 -12 0.5 -26t1.5 -29z" />
    <glyph glyph-name="braceright" unicode="}" horiz-adv-x="335" 
d="M305 357q-1 -5 -1 -15.5v-27.5q0 -29 1 -67t2 -72.5t2.5 -59.5t1.5 -28l7 -25q2 -5 2 -9v-9q0 -15 -28 -26t-90 -11q-36 0 -50 7q-12 -3 -29 -3h-39.5t-39.5 1q-5 -1 -13 -1q-16 0 -17 10q8 27 8 84q0 7 1 12.5l2 11t2 12.5t1 18q0 14 -0.5 32.5t-1.5 43.5l-4 101
q2 5 3.5 14.5t1.5 20.5q0 64 -3 192q0 7 0.5 15.5t0.5 19.5q0 20 -2.5 40.5t-7.5 54.5q0 32 80 32q27 0 45 -3q8 7 30 7q11 0 25.5 -1.5t31.5 -6.5q28 5 42 5q40 0 40 -26q0 -31 -0.5 -50.5t-1 -34t-2 -28.5t-3.5 -34l3 -45q0 -6 -3 -19t-3 -20l5 -25q-1 -8 -1 -15.5v-16.5
q0 -12 0.5 -26t1.5 -29zM62 357q-1 -5 -1 -15.5v-27.5q0 -29 1 -67t2 -72.5t2.5 -59.5t1.5 -28q1 -11 49 -11q10 0 22 1t24 1q2 0 4 -0.5t4 -0.5l37 -6q16 -3 26.5 -5t15.5 -1q10 0 14.5 11.5t6 26.5t1 31t-0.5 25q0 14 -0.5 32.5t-1.5 43.5l-3 101l2.5 15t1.5 20
q0 64 -3 192q1 7 1 15.5v19.5v23t-1 26q-1 2 -16.5 3.5t-34.5 2.5q-22 1 -49 1q-10 5 -21 5q-19 0 -34 -4.5t-25.5 -10.5t-16 -12t-5.5 -9l-6 -70l3 -45q0 -6 -3 -19t-3 -20l5 -25q-1 -8 -1 -15.5v-16.5q0 -12 0.5 -26t1.5 -29z" />
    <glyph glyph-name="asciitilde" unicode="~" horiz-adv-x="498" 
d="M460 552q2 -2 5.5 -8t6.5 -13.5t5 -15t2 -11.5q0 -2 -5.5 -7t-12 -11t-12 -11.5t-6.5 -7.5t-10.5 -7.5t-21.5 -11t-24 -10.5t-17 -5l-49 -6h2q-12 0 -15.5 2t-7.5 5.5t-11.5 8t-28.5 9.5q-22 6 -32.5 13t-18 13t-16.5 10.5t-28 4.5q-35 0 -60.5 -20.5t-32.5 -53.5
q-5 -1 -9 -1h-9q-17 0 -29.5 3t-12.5 17q0 10 7 23.5t19 28t26.5 28t29.5 23.5l54 14q4 1 8 1h9q18 0 39 -3q2 0 5.5 -6t9.5 -6q3 0 7 1.5t9 1.5q11 0 38 -20l46 -33q6 -3 17 -3h20.5t13 3.5t16 11.5t30.5 24q31 25 42 25h2z" />
    <glyph glyph-name="uni00A0" unicode="&#xa0;" horiz-adv-x="167" 
 />
    <glyph glyph-name="exclamdown" unicode="&#xa1;" horiz-adv-x="226" 
d="M15 -58q0 5 3 23.5t8 50.5q-1 5 -1.5 11.5t-0.5 13.5q8 10 8 72q0 14 -0.5 29.5t-0.5 29.5q-1 15 -1 30v42q0 2 1.5 8.5t4 13.5t4 12.5l1.5 5.5q0 4 -0.5 16t-0.5 25.5t2 27t7 21.5q5 2 8 3t5 2q48 -21 48 -81v-16q-1 -5 -1 -9.5v-6.5q0 -19 3 -32v-44q17 -60 17 -65v-55
q-2 -12 -3 -21.5t-1 -17.5q0 -29 15 -72v-3q0 -4 -3.5 -9t-8.5 -9.5t-9.5 -8t-5.5 -3.5q-5 1 -16 1q-8 0 -15 -2.5t-15 -2.5q-15 0 -52 19v1zM11 532q11 19 18 26.5t12 7.5q1 0 1.5 -0.5t1.5 -0.5q3 0 4 3l2 6t3.5 6t7.5 3q4 0 8.5 -2t7.5 -2q1 0 2 1q58 -39 58 -58
q0 -5 -7.5 -17.5t-18 -25t-22 -22t-18.5 -9.5q-9 0 -15.5 3t-12.5 9t-13.5 14.5t-18.5 20.5q-8 10 -8 15q0 8 8 22z" />
    <glyph glyph-name="cent" unicode="&#xa2;" horiz-adv-x="368" 
d="M148 90q0 3 1 18.5t2 34.5t1.5 37t0.5 27q0 63 -16 63q-5 0 -9 -4q-51 -29 -51 -67q0 -20 14 -46l20 -39q9 -14 37 -24zM139 324q-2 6 -2 10q0 9 2.5 20t7 20.5t10 15.5t11.5 6q5 0 12.5 -6t11.5 -31v-3q0 -4 1 -12t3 -20q11 -3 21 -11q10 2 15 2q7 0 17 -4t19.5 -9
t16 -9.5t8.5 -4.5q12 -23 12 -39q0 -25 -26 -36l-10 10t-20.5 19.5t-22.5 19t-16 8.5q-19 0 -19 -47q0 -6 1 -23t2.5 -38.5t2.5 -43t1 -35.5q4 0 15 4.5t23.5 9.5t23.5 9t15 4q9 0 17 -7t8 -16q0 -26 -62 -40q-7 -1 -17.5 -11.5t-23.5 -13.5q0 -21 -10 -39.5t-20 -18.5
q-19 0 -19 59q-19 6 -37.5 11.5t-33.5 11.5t-26 13.5t-15 18.5q-17 12 -24 22t-7 27q0 8 1 12l-12 18q0 23 4 32l15 26q1 2 1 9v15q0 12 10.5 25t28 25t40 21t46.5 14z" />
    <glyph glyph-name="sterling" unicode="&#xa3;" horiz-adv-x="453" 
d="M5 294q0 1 -0.5 2t-0.5 3q0 6 0.5 16t3 19.5t8.5 16t17 6.5h5l3 -1q-1 3 -1 8q0 6 6.5 20.5t6.5 28.5q0 2 -0.5 5t-0.5 6q0 12 9 31t21 37.5t24.5 34t20.5 19.5q38 22 97 22q56 0 91.5 -21t35.5 -56q0 -29 -10.5 -45t-26.5 -16q-16 1 -27 4q-11 2 -19 6t-8 9q0 85 -52 85
q-19 0 -35 -13.5t-16 -31.5l-17 -46q-12 -60 -12 -71q0 -8 2 -18l23 3q3 1 9 1q16 0 32.5 -12t16.5 -26q0 -7 -11 -20t-32 -13q-8 0 -21 4t-24 4q-6 -54 -9.5 -89t-3.5 -52q0 -4 0.5 -6.5t0.5 -4.5q-4 -15 -4 -29q1 -12 7 -12h2l53 8h8q9 0 13.5 -0.5t12.5 -3t22.5 -7
t41.5 -11.5h1q5 -1 9 2.5t11 11.5l18 20q-1 0 5.5 2.5t15.5 5.5t17 5.5t10 2.5h3t3.5 -3t2.5 -10.5t1 -22.5v-22t-1 -14l-18 -39q-1 -3 -6.5 -8t-12.5 -10t-14.5 -8.5t-11.5 -3.5q-62 0 -67 20q-4 5 -17 9t-16 10q-12 25 -49 25q-12 0 -19.5 -3t-14 -8t-14 -11t-19.5 -11
q-12 -6 -16 -6h-1q-18 -11 -41 -21q-16 4 -26 16l-9 13q-1 1 -1 4q0 7 11 21l14 18q6 10 6 31q0 10 -0.5 19t-0.5 15q0 11 1 14q11 50 15.5 83.5t4.5 52.5q-12 0 -24 1t-12 5z" />
    <glyph glyph-name="currency" unicode="&#xa4;" horiz-adv-x="492" 
d="M113 190q-5 0 -9 1q-2 -4 -2 -5q0 -5 3 -8t6 -3q6 0 6 8q0 2 -0.5 3.5t-0.5 3.5h-3zM41 333q3 27 12 28q3 -2 11 -2h6.5t8.5 2q30 128 140 188l8 -2q6 4 19 8t24 4q8 -1 17.5 -2.5t22.5 -6.5l36 -14q1 -1 3 -1q7 0 17.5 4t13.5 4q5 0 8 -3q1 3 5 3q2 0 13 -4t28 -6
l-24 -93q-31 -49 -45 -49q-10 0 -15 29t-7 69l-40 22q-11 6 -18 6q-8 0 -21 -9.5t-33 -27.5q-60 -19 -78 -115l105 -6q29 -2 29 -28q0 -20 -25 -20q-5 0 -27 1.5t-61 5.5q-2 0 -27 -3l-2 -34q-3 -3 -3 -19q0 -5 0.5 -10t0.5 -12q19 1 45 1h60q14 0 21.5 -8t7.5 -20
q0 -19 -19 -20t-51 -1h-28.5t-32.5 1q12 -84 20 -99q9 -14 66 -45l8 2h3q5 0 10.5 -1t13.5 -3q4 5 29 17.5t53 35.5q18 15 44 24q1 -6 5 -6h3q1 1 2 1q7 0 7 -22q0 -8 -3 -21t-7 -26t-7 -22.5t-3 -10.5q-17 -14 -25 -14q-5 0 -15 7t-20 7q-26 -7 -66 -10q-5 3 -13.5 4.5
t-20.5 5t-27 10.5t-33 22l-36 29l-5 12q-11 5 -19 17.5t-14.5 27.5t-11 29t-6.5 23q-40 -10 -54 -10q-10 0 -15 4.5t-5 9.5q0 3 3 10.5t6.5 15t7 13.5t4.5 6q4 -3 11 -3q8 0 17 2.5t18 4.5q-1 8 -1 15.5v15.5v16t1 16q-10 -2 -15 -2q-11 0 -17.5 5t-6.5 10q0 6 9 17z" />
    <glyph glyph-name="yen" unicode="&#xa5;" horiz-adv-x="572" 
d="M335 448q12 6 12 15q0 15 -38 42q-2 10 -2 15q0 9 5 17l20 11q1 0 3 0.5t4 0.5q7 0 16.5 -1t18 -2t15 -2l6.5 -1q14 1 36 4.5t34 3.5q15 0 32 -3q22 -34 22 -51q0 -16 -25 -23l-48 -14q-28 -13 -32 -44l-33 -22q-10 -6 -14 -14.5t-4 -16.5q0 -12 7 -25l33 -9
q44 -12 44 -21l-3 -6t-9.5 -13.5t-16 -13.5t-21.5 -6q-5 0 -15.5 2t-22.5 4.5t-23 5t-15 3.5q-2 -8 -3 -14.5t-1 -13.5q0 -8 1 -14t1 -9v-3l2 -26l79 -3q23 -1 39 -11t16 -22q0 -16 -33 -16q-17 0 -41.5 1t-58.5 3l-3 -23q-2 -11 -1.5 -19.5t-0.5 -15.5q0 -15 1 -23t5 -11.5
t11.5 -4.5t19.5 -1q10 -2 14.5 -4.5t4.5 -10.5q0 -44 -52 -44h-18q-5 1 -9.5 1h-7.5q-28 0 -49 -3.5t-47 -4.5q-10 2 -16.5 8t-11 13.5t-6.5 14.5t-2 12q0 12 11.5 20t26 14t26 11.5t11.5 11.5q0 5 -7.5 12.5t-7.5 17.5q0 6 1 13t3 15q-5 0 -18 -2.5t-28.5 -5t-31.5 -5
t-28 -2.5q-22 0 -32.5 5.5t-10.5 11.5q0 7 9 15q-1 4 -1 12q0 16 10 17q5 -2 15 -3t25 -1q5 0 10 0.5t11 0.5l56 4v3q0 10 8 50l-16 26l-47 -10q-11 -2 -20 -2.5t-17 -1.5q-20 0 -30 6t-10 12t9 14q-1 4 -1 12q0 16 10 17q7 -3 16 -3q11 0 24 2.5t25 4.5q-2 1 -2.5 6
t-1.5 10t-2.5 9t-4.5 4q-11 5 -21.5 17.5t-18.5 24.5t-12.5 21.5t-3.5 8.5l-21 16q-13 9 -17.5 12.5t-7 5t-6.5 1t-14 0.5q-14 0 -18 13t-4 24q0 31 25 43q5 0 9.5 -0.5t9.5 -0.5q15 0 24 3q-1 0 20 -4.5t53 -4.5q28 0 43 2.5t17 2.5q8 0 18.5 -2.5t19.5 -7t15 -11t6 -14.5
q0 -5 -10.5 -10.5t-22.5 -12t-22.5 -13t-10.5 -13.5q0 -5 5 -16.5t13 -25.5q0 -2 -0.5 -3t-0.5 -3q0 -10 5.5 -24.5t14 -28t18.5 -23t20 -9.5q8 0 14.5 6t14 20.5t16 37t21.5 55.5z" />
    <glyph glyph-name="brokenbar" unicode="&#xa6;" horiz-adv-x="131" 
d="M73 563v-63t-1 -41l-5 -43l3 -45q-1 -25 -1.5 -40.5t-0.5 -20.5v-1q0 -1 -2 -1q-3 0 -14.5 3.5t-14.5 3.5t-3 -2q0 34 -0.5 62t-1.5 51q0 7 0.5 15.5t0.5 19.5q0 9 -0.5 16.5t-1.5 15.5t-3 18.5t-6 27.5q0 24 10.5 41.5t23.5 17.5q15 0 17 -35zM85 -103q-5 -32 -17 -32
q-7 0 -16 10q-4 -1 -10 -1q-19 0 -20 10q8 27 8 84q0 8 2.5 19t2.5 13q0 5 -1.5 18.5t-3 28.5t-2.5 29t-1 21q0 53 22 53q9 0 20 -8q1 -78 3 -125.5t4 -66.5l7 -25q2 -5 2 -9v-9v-10z" />
    <glyph glyph-name="section" unicode="&#xa7;" horiz-adv-x="427" 
d="M376 485q-7 -7 -15 -7q-3 0 -10.5 3.5t-17 8t-19 8t-15.5 3.5q-11 0 -17 -10t-7 -43q8 -16 18 -59.5t23 -115.5q24 -138 24 -186q0 -1 -1 -7.5t-2 -15t-2 -15.5t-1 -10q0 -12 4 -16q-7 -21 -15 -42.5t-30 -33.5l-9 -34q-18 -5 -44 -18t-52 -27q-1 1 -6 1q-3 0 -16.5 -2.5
t-29 -6t-29 -6t-16.5 -2.5l-14 -5q-4 -2 -15 -2q-16 0 -27.5 6.5t-19 15t-11.5 17t-4 12.5q0 9 5 22.5t20 13.5q11 0 23 -4q43 -15 50 -15q14 0 18.5 11t4.5 33q0 11 -1.5 27t-1.5 27q0 9 1 17t2 17.5t2 21t1 27.5q0 92 -21 104q0 6 -2.5 15t-5 17.5t-5 15.5t-2.5 9
q0 6 3 17t3 17q0 15 -6 29t-6 24t4.5 30t6.5 31q10 7 21 29l16 33l31 29l54 60q25 24 85 24l16 -8h4q12 0 23 -6t18.5 -16t12 -23t4.5 -26q0 -4 -0.5 -7t-1.5 -7zM241 245q-17 67 -38 80q0 1 1 10t2 20l2 22t1 16q0 39 -21 45q-57 -33 -57 -96q0 -11 5 -32.5t13 -49
t17 -57.5t17 -57.5t13 -49.5t5 -33v-12t-1 -8.5t-4 -12.5t-10 -25q-11 -27 -11 -39q0 -17 19 -17q18 0 31 12.5t21.5 30t13 35.5t4.5 29q0 1 -0.5 10t-1.5 21t-1.5 25t-0.5 24q0 3 0.5 6.5t0.5 6.5z" />
    <glyph glyph-name="dieresis" unicode="&#xa8;" 
d="M240 439q-9 -4 -17.5 -10.5t-11.5 -6.5q-2 0 -5 3t-11 12q-6 1 -16 8.5t-10 27.5q0 23 12 43.5t28 20.5q8 0 18 -2.5t19 -7t15 -10t6 -10.5q0 -3 -4 -12.5t-9.5 -21t-9.5 -21t-4 -12.5v-1zM143 438q-8 -4 -16.5 -10.5t-11.5 -6.5t-5 1l-12 14q-5 1 -15.5 9t-10.5 25
t11 30.5t31 13.5q10 0 22.5 -9t12.5 -26q0 -6 -3 -20.5t-3 -20.5z" />
    <glyph glyph-name="copyright" unicode="&#xa9;" horiz-adv-x="636" 
d="M530 164q2 -10 2 -16q0 -23 -19 -47t-47.5 -44.5t-62 -35.5t-63.5 -19q-6 0 -13 -7.5t-10 -7.5t-16 8l-17 9q-5 1 -17 1q-11 0 -28.5 -1.5t-26.5 -1.5q-10 0 -13 1l-22 15q-6 0 -19 -9q-10 1 -31.5 17t-43 36t-38 38t-16.5 21t2 10t2 11q0 13 -16 23q-1 16 -3 33t-13 27
q-3 9 -3 28q0 34 9 105q1 8 9 19.5t10 17.5v10.5t2.5 11t7.5 15.5t16 24q3 12 17 36q97 83 151 83q7 0 21 -2.5t29.5 -5t29 -5t18.5 -2.5q20 0 32 9h6q4 -2 11.5 -4t16.5 -4.5t17 -5.5t12 -6l19 -21q11 -5 23 -14t22 -18.5t16.5 -17t7.5 -8.5q8 -11 12 -25t7 -28t6.5 -25.5
t9.5 -18.5q4 -5 8 -8.5t7.5 -9.5t5.5 -15t2 -24q0 -17 -3 -40t-7 -45.5t-9.5 -41t-9.5 -25.5zM514 301q-5 37 -7.5 56.5t-3.5 23.5q-12 46 -47 69q-24 34 -59.5 56.5t-71.5 22.5q-18 0 -31 -4q-7 2 -16.5 4t-23.5 4q-8 -2 -30 -8t-66 -14q-50 -26 -79.5 -65t-29.5 -74v-9
q0 -3 -3.5 -17t-8 -29.5t-8 -28.5l-3.5 -13q0 -38 13 -79t44 -67q11 -45 87 -67q24 -26 63 -26q7 0 17.5 2l21 4t19 4t11.5 2h2q20 -6 34.5 -8.5t22.5 -2.5q7 0 12 3t10 6.5t13 7t23 4.5q29 21 45.5 36t25.5 28.5t12.5 30t7.5 40.5q0 7 3 16.5t6.5 19t6 18t2.5 14.5
q0 17 -14 40zM361 316q-11 8 -16 22t-11 28t-16 24t-29 10q-19 -1 -36.5 -10.5t-31 -25t-22 -34t-8.5 -37.5q0 -20 8.5 -38.5t19 -33t19.5 -23.5l9 -9q24 -11 43 -11q14 0 28.5 9.5t26.5 21t20 21l8 9.5q12 0 12 -33q0 -27 -7 -43t-21 -16q-4 0 -16 7t-16 7q-2 0 -2 -0.5
t-1 -0.5q-38 -26 -48 -26q-1 1 -58 22q-38 14 -45 34q-17 14 -22 23.5t-5 29.5v8q-1 5 -10 17q0 26 17 58q1 2 1 8v17q0 15 13 30t32.5 26.5t41.5 19t40 7.5q40 0 63 -33q4 0 10 3.5t12.5 7.5t11.5 7t7 3q3 0 10 -12.5t7 -32.5q0 -45 -39 -61z" />
    <glyph glyph-name="ordfeminine" unicode="&#xaa;" horiz-adv-x="374" 
d="M244 127h-9q-9 0 -13.5 2t-6.5 5.5t-4 9.5t-8 14h-2q-7 0 -14 -7t-10 -7q-15 -8 -54 -18h-13q0 1 1 1q-4 -1 -7 -1.5t-6 -0.5q-7 0 -17 3.5t-19.5 10t-16 16t-6.5 21.5q0 10 5 24t20 22l15 4q13 3 13 12q2 0 28 14q4 0 15.5 6t15.5 6q4 1 14 2.5t20.5 4.5t18 7t7.5 9
q0 8 -5.5 19.5t-5.5 15.5q0 2 0.5 3.5t0.5 3.5q0 4 -4 8.5t-9.5 8.5t-11.5 6t-10 2q-2 0 -7.5 -5t-11.5 -11.5t-10.5 -13t-4.5 -9.5t2.5 -9.5t2.5 -9.5q0 -5 -6 -7.5t-13.5 -4t-14 -2t-7.5 -0.5q-14 0 -27.5 6.5t-13.5 32.5q0 13 16 32t55 24l14 -4q3 -1 9 -1q10 0 21.5 3
t25.5 3q48 0 77 -23q2 -5 6 -11.5t10 -14.5q1 -16 1 -26.5v-15.5v-7v-35q0 -5 -1.5 -15t-1.5 -21q0 -16 10 -30.5t10 -21.5q0 -11 -31 -26zM201 229q-2 3 -15 3q-5 0 -13.5 -3t-16.5 -7.5t-14 -10t-6 -10.5t9.5 -12t27.5 -7q15 0 24 8.5t9 21.5q0 9 -5 17zM47 13
q0 1 -0.5 2.5t-0.5 3.5q0 7 0.5 19.5t4.5 23.5t12.5 19.5t25.5 8.5h6l30 -6q16 -3 27 -3.5t19 -1.5l91 11q3 1 11 1q18 0 29 -14t11 -32q0 -13 -6.5 -26.5t-21.5 -13.5q-6 0 -17 1.5t-24.5 4t-27.5 4t-25 1.5h-13l-58 -15q-1 1 -12 2t-24.5 2t-24.5 3t-12 5z" />
    <glyph glyph-name="guillemotleft" unicode="&#xab;" horiz-adv-x="427" 
d="M181 65q-9 -10 -9.5 -21t-2 -20t-10 -14.5t-32.5 -5.5q-14 7 -30.5 22.5t-33 33t-30 32t-20.5 19.5q7 58 12 67q11 21 58 44q7 0 19 11t25 24t23.5 24t14.5 11q8 0 13 -10t5 -19q0 -10 -5 -21t-12.5 -20.5t-16 -15.5t-15.5 -6q-8 -5 -17.5 -12.5t-18.5 -15.5t-15 -17
t-6 -17q0 -5 7.5 -14t18 -17.5t20 -14.5t14.5 -6q6 0 9 1zM316 65q-9 -10 -9.5 -21t-2.5 -20t-10 -14.5t-32 -5.5q-14 6 -30.5 22t-33 33t-30 32t-20.5 20q4 29 6.5 45.5t4.5 21.5q11 20 59 44q7 0 19 11t24.5 24t23 24t14.5 11q8 0 13.5 -10t5.5 -19q0 -10 -5 -21
t-12.5 -20.5t-16.5 -15.5t-16 -6q-7 -5 -16.5 -12t-18.5 -15.5t-15 -17t-6 -17.5q0 -6 7.5 -15t18 -17t20 -14t14.5 -6q6 0 9 1z" />
    <glyph glyph-name="logicalnot" unicode="&#xac;" horiz-adv-x="531" 
d="M103 350l-26 -7q-9 -3 -17 -3q-21 0 -31.5 6t-10.5 12t9 15q-1 4 -1 10q0 20 10 21q10 -3 21 -3q5 0 13 1t17 2.5t17.5 3t14.5 1.5q5 0 14.5 -2.5t13.5 -3.5h9l-8 4h-1q0 2 11 2q5 -1 14 -2t20 -2q1 0 18 0.5t49 1.5q7 -1 15.5 -1h19.5h23t26 1l57 -3q9 -50 9 -90
q0 -74 -33 -74q-13 0 -18.5 9.5t-5.5 38.5v29q0 41 -17 43q-17 -1 -38 -1h-46l-62 -3q-2 0 -5 0.5t-7 0.5q-11 0 -29.5 -2t-44.5 -5z" />
    <glyph glyph-name="uni00AD" unicode="&#xad;" horiz-adv-x="531" 
d="M111 174l-25 -7q-9 -3 -17 -3q-23 0 -32.5 6t-9.5 12q0 7 9 15q-1 4 -1 10q0 20 10 21q10 -3 20 -3t30.5 4t32.5 4q4 0 14 -2.5l14 -3.5q3 1 9 1l-8 3q-1 0 -1 1h2q2 0 3.5 0.5t4.5 0.5q6 -1 15 -2t20 -2q1 0 67 3q8 -1 18.5 -1.5t24.5 -0.5q11 0 23.5 0.5t26.5 0.5
q11 0 25 -2t26 -6.5t20.5 -11.5t8.5 -17q0 -17 -35 -17h-63t-41 1l-43 5l-61 -3q-2 0 -5 0.5t-7 0.5q-12 0 -30.5 -2t-44.5 -5z" />
    <glyph glyph-name="registered" unicode="&#xae;" horiz-adv-x="636" 
d="M530 164q2 -10 2 -16q0 -23 -19 -47t-47.5 -44.5t-62 -35.5t-63.5 -19q-6 0 -13 -7.5t-10 -7.5t-16 8l-17 9q-5 1 -17 1q-11 0 -28.5 -1.5t-26.5 -1.5q-10 0 -13 1l-22 15q-6 0 -19 -9q-10 1 -31.5 17t-43 36t-38 38t-16.5 21t2 10t2 11q0 13 -16 23q-1 16 -3 33t-13 27
q-3 9 -3 28q0 34 9 105q1 8 9 19.5t10 17.5v10.5t2.5 11t7.5 15.5t16 24q3 12 17 36q97 83 151 83q7 0 21 -2.5t29.5 -5t29 -5t18.5 -2.5q20 0 32 9h6q4 -2 11.5 -4t16.5 -4.5t17 -5.5t12 -6l19 -21q11 -5 23 -14t22 -18.5t16.5 -17t7.5 -8.5q8 -11 12 -25t7 -28t6.5 -25.5
t9.5 -18.5q4 -5 8 -8.5t7.5 -9.5t5.5 -15t2 -24q0 -17 -3 -40t-7 -45.5t-9.5 -41t-9.5 -25.5zM514 301q-5 37 -7.5 56.5t-3.5 23.5q-12 46 -47 69q-24 34 -59.5 56.5t-71.5 22.5q-18 0 -31 -4q-7 2 -16.5 4t-23.5 4q-8 -2 -30 -8t-66 -14q-50 -26 -79.5 -65t-29.5 -74v-9
q0 -3 -3.5 -17t-8 -29.5t-8 -28.5l-3.5 -13q0 -38 13 -79t44 -67q11 -45 87 -67q24 -26 63 -26q7 0 17.5 2l21 4t19 4t11.5 2h2q20 -6 34.5 -8.5t22.5 -2.5q7 0 12 3t10 6.5t13 7t23 4.5q29 21 45.5 36t25.5 28.5t12.5 30t7.5 40.5q0 7 3 16.5t6.5 19t6 18t2.5 14.5
q0 17 -14 40zM460 157q0 -1 0.5 -2t0.5 -2q0 -12 -44 -12q-22 0 -37 2t-27.5 8t-23.5 16.5t-26 27.5q-20 22 -28.5 39t-13.5 28.5t-10.5 17.5t-18.5 6q-22 0 -22 -29q-1 -5 0.5 -13t3.5 -18l5 -30v-18q1 -5 2 -7.5t4 -5t10 -4t19 -2.5q11 -2 11 -8q0 -4 -2.5 -5t-13.5 -1
q-4 0 -9 0.5t-12 0.5q2 0 -59 -3q-1 1 -6 1h-6.5t-8.5 -1l-24 -3q-8 5 -8 7q0 1 6.5 5.5t14 10t14 11t7.5 8.5q3 21 3 74q0 63 -2.5 98t-7.5 40h-5q-12 0 -27 4q1 16 24 16q2 0 4.5 -0.5t5.5 -0.5q8 0 21 0.5t26.5 1.5t25 1.5t17.5 0.5q33 0 56 -6l13 2l27 -6q21 -5 24 -19
t3 -22q0 -6 -2 -12v-4q0 -5 -3.5 -12.5t-9 -14.5t-12 -11.5t-11.5 -4.5q-3 0 -5 1q-1 -1 -6 -2.5t-11 -3.5t-10.5 -4.5t-4.5 -5.5q0 -5 9 -12l12 -11l31 -43q15 -17 48 -37q6 -8 22.5 -16t29.5 -8h5q9 -7 12 -8zM311 371q0 1 0.5 1t0.5 1q0 3 -6 8t-13.5 9.5t-15.5 8
t-12 3.5q-3 0 -4 -1h-25q-19 0 -23 -7v-19q0 -33 -0.5 -51t-1.5 -22q3 -2 6 -3t8 -1q4 0 9.5 1t8.5 1t4.5 -0.5t3.5 -0.5q32 8 47 21.5t15 36.5q0 4 -0.5 7t-1.5 7z" />
    <glyph glyph-name="macron" unicode="&#xaf;" horiz-adv-x="381" 
d="M52 446q0 1 -0.5 2.5t-0.5 3.5q0 6 0.5 18t4 24t12 20.5t24.5 8.5h8l30 -6q16 -3 27 -3.5t18 -1.5l91 11q8 2 14 2q12 0 24.5 -4t23 -10.5t17 -15t6.5 -17.5q0 -4 -4 -10.5t-11.5 -13t-19 -11.5t-26.5 -5q-5 -1 -11.5 0.5t-16.5 3.5l-22 4q-12 2 -23 2.5t-21 0.5
q-14 0 -30 -4t-41 -11q-1 2 -12 3t-24.5 2t-24.5 2.5t-12 4.5z" />
    <glyph glyph-name="degree" unicode="&#xb0;" horiz-adv-x="356" 
d="M173 453q-30 0 -47 -12t-19 -27l-10 -14q-1 -5 -1 -15q0 -30 16 -48t43 -18q21 0 33 9.5t18.5 23t8 27t1.5 22.5q0 23 -14.5 33t-28.5 19zM217 498q28 0 47 -31l33 -52q0 -6 2 -24t2 -28q0 -25 -11 -36q-1 -7 -6 -18t-13 -21.5t-20 -19t-27 -9.5h-31q-2 0 -8.5 -2.5
t-14 -5.5t-13.5 -5.5l-6 -2.5q-16 1 -16 13l-20 5q-9 4 -18 13q-2 0 -2.5 -0.5t-2.5 -0.5q-11 0 -15.5 8t-7.5 16q-33 40 -33 68q0 6 3 17t6.5 24t7 27.5t4.5 26.5q6 2 9.5 7t9.5 11t16 13t27 12q24 7 29 12q-1 0 10 -2.5t24.5 -6t24.5 -6t10 -2.5z" />
    <glyph glyph-name="plusminus" unicode="&#xb1;" horiz-adv-x="531" 
d="M406 177q-7 0 -24.5 1t-38.5 2t-42.5 2t-35.5 1h-16q1 -20 1 -33.5v-23.5q0 -28 -10 -49.5t-24 -21.5q-18 0 -18 36q0 25 2 44t2 45l-50 -6q-50 -6 -79 -6q-47 0 -47 14q0 6 10 15q-1 5 -1 13q0 17 10 18q35 1 73.5 1h80.5l-4 47q-2 23 -3.5 42.5t-1.5 33.5q0 53 14 53
q7 0 16 -10q4 1 11 1q17 0 19 -11l-2 -155q4 0 12 0.5t21 0.5q7 0 21.5 0.5t32.5 0t37 -2t34.5 -5.5t25.5 -11.5t10 -18.5q0 -17 -36 -17zM83 -26q-9 -3 -18 -3q-20 0 -31 6t-11 12q0 7 10 16q-1 4 -1 10q0 19 10 20q10 -3 20 -3t30.5 4t32.5 4q4 0 13.5 -2.5t13.5 -2.5h10
l-8 3q-1 0 -1 1h2q2 0 3.5 0.5t4.5 0.5q6 -1 14.5 -2t19.5 -2q2 0 67 3q7 -1 15.5 -1.5t19.5 -0.5t23 0.5t26 1.5l31 -3q24 0 41.5 -11t17.5 -23q0 -18 -35 -18h-63t-41 1l-43 5l-61 -3q-2 0 -5 0.5t-7 0.5q-12 0 -30.5 -2t-44.5 -5z" />
    <glyph glyph-name="uni00B2" unicode="&#xb2;" horiz-adv-x="511" 
d="M307 276l-15 -7q0 -10 -9 -17.5t-22 -7.5q-19 0 -19 15q0 3 1 7.5t1 7.5q0 12 -9 12q-2 0 -24 -2.5t-50 -5.5t-55 -5.5t-39 -2.5q-54 0 -54 21q0 17 30 44l57 21q22 10 40 24.5t32 35.5q34 15 34 37q0 24 -42 56l-15 4q-8 6 -17 6q-6 0 -16 -6t-21 -13.5t-20.5 -13.5
t-13.5 -6q-8 0 -13.5 8.5t-5.5 16.5q0 4 3.5 8.5t7.5 8.5t7.5 7l3.5 3q7 22 31.5 28.5t62.5 14.5q19 -3 57 -3q12 -9 23.5 -18.5t21.5 -19.5t16 -20t6 -22q0 -10 -4 -19l-22 -40q-17 -30 -21 -32l-22 -4q-15 -5 -15 -14q0 -17 18 -20q60 27 89 27q20 0 25.5 -12t5.5 -19
q0 -12 -22 -38q-5 -7 -5 -23t-2 -22z" />
    <glyph glyph-name="uni00B3" unicode="&#xb3;" horiz-adv-x="437" 
d="M247 460q-1 -6 -3 -16t-6.5 -20.5t-12 -20t-18.5 -14.5q-12 -5 -12 -18q1 -1 8 -1.5t15 -2.5t15 -5t9 -9l17 -48q12 -32 12 -48q0 -11 -8.5 -22t-19 -21t-20 -18t-10.5 -13q-4 -4 -15 -11.5t-23.5 -15.5t-23.5 -15.5t-15 -11.5q-11 0 -26 0.5t-28 2.5t-22 6t-9 11t4 10
t13 5t22 6t31 14q22 12 36 15q18 21 18 41q0 27 -47 68l-24 -10q-23 -10 -36.5 -13t-15.5 -4q-8 0 -14.5 5t-6.5 14q0 6 15.5 18.5t34.5 26t34.5 26t15.5 17.5q9 8 11 17.5t5 19.5q-11 63 -49 63q-22 0 -56 -18q-5 -4 -11 -4q-14 0 -14 22q0 10 4 22t11.5 22t19.5 17.5
t27 10.5q6 1 24 2t49 1q7 0 18 -5.5t22 -12t20.5 -12.5t14.5 -7t9 -12.5t6.5 -24.5t3.5 -22.5t1 -6.5z" />
    <glyph glyph-name="acute" unicode="&#xb4;" 
d="M262 522q0 -6 -17.5 -22.5t-40.5 -33.5t-45.5 -30.5t-33.5 -13.5q-8 0 -12.5 6.5t-4.5 11.5q0 10 17 33.5t46 73.5q6 5 19 8t22 18l25 -1q14 -19 19.5 -31t5.5 -19z" />
    <glyph glyph-name="mu" unicode="&#xb5;" horiz-adv-x="411" 
d="M106 -5q-11 -18 -18 -36l1 -49q0 -40 -8 -40q-1 0 -2 1q-1 -27 -9 -32l-50 -33q-5 -5 -15 -5q-11 0 -23 5t-22.5 12.5t-17.5 17.5t-7 21q0 24 38 50q2 -1 8 -1q39 0 57 161q-4 15 -4 46q0 7 0.5 13t0.5 11q0 8 -1 14.5t-1.5 14.5t-1.5 19.5t-1 29.5q0 23 9 35
q-10 8 -17 30q1 2 1 7q0 6 -5 10t-11 9t-11 11.5t-5 18.5t5 21t11.5 15t13 9t9.5 3q1 -1 6 -1q9 0 17 1t13 1q25 0 41.5 -11.5t16.5 -34.5q0 -8 -1.5 -18.5l-3.5 -24.5q1 -25 2.5 -62t1.5 -91q-3 -14 -4 -22t-1 -13q0 -14 8 -23t19.5 -14t24 -7t20.5 -2q9 0 16.5 1.5t15 7.5
t16.5 18.5t21 35.5q0 9 -3 21t-3 16t3 14t3 11l2 74q3 10 3 18q0 11 -3 16t-7.5 7.5t-11.5 6t-14 11.5q-4 5 -8.5 6t-9.5 1q-4 0 -7.5 -0.5t-6.5 -0.5q-6 0 -9.5 3t-3.5 14q0 6 3.5 13t10.5 13.5t17.5 11t25.5 4.5q10 0 12.5 -2t8.5 -2q11 0 22.5 1t14.5 1q7 0 17 -1.5
t19 -8t15 -19.5t6 -35q0 -7 -0.5 -16.5t-1.5 -22.5l-3 -46v-61l-1 -66q-2 -10 -2 -12q0 -7 4 -17.5t8.5 -21t8.5 -19.5t4 -13q0 -7 -1.5 -14t-9.5 -12.5t-24 -9t-44 -3.5q-13 0 -25.5 2.5t-15.5 11.5v17q0 8 -3 10.5t-9 2.5q-8 0 -22.5 -5.5t-32 -12t-35.5 -12t-32 -5.5
q-9 0 -12 1z" />
    <glyph glyph-name="mu" unicode="&#x3bc;" horiz-adv-x="411" 
d="M106 -5q-11 -18 -18 -36l1 -49q0 -40 -8 -40q-1 0 -2 1q-1 -27 -9 -32l-50 -33q-5 -5 -15 -5q-11 0 -23 5t-22.5 12.5t-17.5 17.5t-7 21q0 24 38 50q2 -1 8 -1q39 0 57 161q-4 15 -4 46q0 7 0.5 13t0.5 11q0 8 -1 14.5t-1.5 14.5t-1.5 19.5t-1 29.5q0 23 9 35
q-10 8 -17 30q1 2 1 7q0 6 -5 10t-11 9t-11 11.5t-5 18.5t5 21t11.5 15t13 9t9.5 3q1 -1 6 -1q9 0 17 1t13 1q25 0 41.5 -11.5t16.5 -34.5q0 -8 -1.5 -18.5l-3.5 -24.5q1 -25 2.5 -62t1.5 -91q-3 -14 -4 -22t-1 -13q0 -14 8 -23t19.5 -14t24 -7t20.5 -2q9 0 16.5 1.5t15 7.5
t16.5 18.5t21 35.5q0 9 -3 21t-3 16t3 14t3 11l2 74q3 10 3 18q0 11 -3 16t-7.5 7.5t-11.5 6t-14 11.5q-4 5 -8.5 6t-9.5 1q-4 0 -7.5 -0.5t-6.5 -0.5q-6 0 -9.5 3t-3.5 14q0 6 3.5 13t10.5 13.5t17.5 11t25.5 4.5q10 0 12.5 -2t8.5 -2q11 0 22.5 1t14.5 1q7 0 17 -1.5
t19 -8t15 -19.5t6 -35q0 -7 -0.5 -16.5t-1.5 -22.5l-3 -46v-61l-1 -66q-2 -10 -2 -12q0 -7 4 -17.5t8.5 -21t8.5 -19.5t4 -13q0 -7 -1.5 -14t-9.5 -12.5t-24 -9t-44 -3.5q-13 0 -25.5 2.5t-15.5 11.5v17q0 8 -3 10.5t-9 2.5q-8 0 -22.5 -5.5t-32 -12t-35.5 -12t-32 -5.5
q-9 0 -12 1z" />
    <glyph glyph-name="paragraph" unicode="&#xb6;" horiz-adv-x="544" 
d="M421 610q63 0 63 -39q0 -19 -16.5 -35t-37.5 -16q-13 0 -25 6q-2 -3 -4 -3q-6 7 -13 13q-6 5 -14 9t-17 4q-15 0 -39 -11v-36q0 -55 -4 -72q4 -13 4 -27q0 -13 -5 -25t-5 -18l12 -135q-3 -9 -6.5 -31t-6 -52.5t-4 -66.5t-1.5 -73v-30t2 -22l-3 -57q0 -13 -8.5 -25
t-20.5 -21.5t-26 -15t-25 -5.5q-4 0 -6 1l-56 8q-34 7 -34 31q0 14 10 33l67 30q33 19 36 45q3 28 6 45t6 28.5t4.5 21.5t1.5 25q0 40 0.5 64.5t-2.5 41.5t-12.5 31t-28.5 34q-22 -16 -42 -16q-12 0 -22 6q-9 -4 -21 -4q-29 0 -61 26q-32 3 -63 69q3 12 3 24q0 9 -4 22
t-4 18q0 13 7.5 27.5t7.5 28.5q0 22 -2 38t-2 27t2 15q0 3 71 53q18 2 45 4.5t62 6.5q18 -8 20 -8q-4 0 20 11l18.5 -2.5t41 -5.5t40.5 -5.5t17 -1.5h3q3 0 14 2t24 4q15 3 33 6zM238 300q4 8 4 30q0 37 -6 58q30 66 30 108q0 51 -44 74q-13 -6 -22 -13.5t-16 -20.5t-12 -32
t-9 -49l14 -112q12 -43 55 -43h6z" />
    <glyph glyph-name="periodcentered" unicode="&#xb7;" horiz-adv-x="249" 
d="M212 198q-19 -22 -29 -39t-16.5 -29.5t-13 -20t-17.5 -11.5l-37 6q-8 11 -26 32l-25 21q-19 16 -21 33q0 13 6.5 19.5t15.5 11.5t19 13t18 25q3 9 6 20t19 11q-1 0 6 -2t17 -6.5t20 -11.5t15 -17q5 -14 10.5 -17t11 -5t11 -8t10.5 -25z" />
    <glyph glyph-name="cedilla" unicode="&#xb8;" horiz-adv-x="267" 
d="M160 -197q-10 -2 -23 -6t-30 -9q-27 0 -61 7q-36 24 -36 44q0 16 10 31t18 15q4 0 12 -7t16 -15t15.5 -15t11.5 -7q8 0 19.5 17.5t11.5 59.5q0 29 8 48l29 29q19 19 29 19q4 0 4 -11v-13l-4 -27q0 -4 -2.5 -10t-6 -12t-6 -11t-2.5 -7q0 -6 2.5 -16t5 -20.5t5 -19.5
t2.5 -12q0 -13 -9.5 -26t-18.5 -26z" />
    <glyph glyph-name="uni00B9" unicode="&#xb9;" horiz-adv-x="335" 
d="M234 314q2 -2 2 -5q0 -9 -8.5 -18t-21.5 -11q-12 5 -35 7q-28 -16 -68 -16q-26 0 -48 6.5t-22 15.5l8.5 7t19 17.5t19 24t8.5 28.5q0 21 -1 32t-2.5 21.5t-3 24t-3.5 37.5q6 7 6 16q0 29 -58 41q0 15 9 22.5t31 7.5q16 0 40 -3q5 1 19 6.5t29 5.5q9 0 20.5 -3t22 -8
t18 -10.5t7.5 -11.5t-5.5 -9t-12.5 -6.5t-12.5 -8t-5.5 -12.5t1 -14.5t1 -11.5t-3 -12.5t-8 -33.5v-2q0 -3 2.5 -9.5t5.5 -14t6 -14t3 -8.5q-3 -11 -3 -29q0 -4 -1.5 -6.5t1.5 -7t12.5 -12.5t30.5 -23z" />
    <glyph glyph-name="ordmasculine" unicode="&#xba;" horiz-adv-x="374" 
d="M45 6q0 5 1 17t5.5 25t14 22.5t26.5 9.5q10 0 22 -1.5t23.5 -3.5t21 -3.5t14.5 -1.5l92 12q8 2 12 2q37 0 37 -43q0 -13 -8 -28t-25 -15q-16 0 -42.5 5t-48.5 5h-13l-60 -16q0 -1 -11 -0.5t-24.5 2t-25 4t-11.5 4.5v4zM168 359q-2 0 -5.5 -7t-7 -14.5t-6.5 -14.5t-4 -7
q-8 -6 -8 -19q1 -28 2 -28q1 1 1 2l-1 -26q1 -45 15.5 -74t32.5 -29q17 0 27 24.5t10 72.5q0 43 -12 69.5t-44 50.5zM214 378q13 -1 24.5 -7.5t22.5 -23.5l37 -56l6 -33q2 -12 3.5 -21.5t1.5 -16.5q0 -18 -6.5 -31t-14.5 -21.5t-15 -13.5t-8 -6q-9 -11 -21.5 -20.5t-25 -17
t-22 -11.5t-11.5 -4q-15 0 -16 13q-2 0 -11 -1t-25 -1t-20 6h-3q-6 0 -11.5 6.5t-9.5 14.5t-6 14t-1 5q-39 48 -39 82q0 2 1 10.5t2.5 20.5t3 25.5t1.5 25.5v14q24 14 33 21l13.5 10.5t8.5 7t17 9.5q22 10 25 15z" />
    <glyph glyph-name="guillemotright" unicode="&#xbb;" horiz-adv-x="450" 
d="M409 101q-7 -5 -21 -20t-30.5 -32t-33 -33t-28.5 -22q-27 2 -35.5 8t-9.5 14.5t-0.5 18.5t-9.5 20l36 23q3 -1 8 -1q3 0 12.5 5.5t20 13t19 16.5t8.5 16q0 16 -11.5 28t-26.5 21.5t-30 17.5t-21 16q-17 20 -17 43q0 8 5.5 18t13.5 10q3 0 14 -11l24 -24t25 -24t18 -11
l34 -17t18.5 -15.5t9.5 -27t8 -51.5zM271 111q-7 -5 -20.5 -20t-30 -32t-33.5 -33t-30 -22q-26 2 -34 7.5t-9.5 14t-1.5 18.5t-9 21l35 22q3 -1 9 -1q4 0 13.5 6t20 14.5t18.5 17.5t8 14q0 16 -11 27.5t-26 21t-30 17.5t-22 17q-17 20 -17 42q0 9 5.5 19t13.5 10
q4 0 14.5 -11t23 -24t24.5 -24t19 -11q48 -24 59 -44q2 -5 4.5 -21.5t6.5 -45.5z" />
    <glyph glyph-name="onequarter" unicode="&#xbc;" horiz-adv-x="637" 
d="M300 279q-11 -13 -31 -46.5t-47 -88.5l-61 -122q-14 -18 -40 -18q-18 0 -18 19q0 -1 8 12t19.5 32.5t24.5 41.5t24 40t18 29t6 7q4 4 17 30.5t30 59t35.5 64t35.5 46.5q1 1 4 9.5t6 18.5t5 17.5l2 7.5q18 39 50 39q14 0 14 -15q0 -7 -2.5 -15t-9 -20.5t-19 -30.5
t-31.5 -45q-39 -54 -40 -72zM234 314q2 -2 2 -5q0 -9 -8.5 -18t-21.5 -11q-12 5 -35 7q-28 -16 -68 -16q-26 0 -48 6.5t-22 15.5l8.5 7t19 17.5t19 24t8.5 28.5q0 21 -1 32t-2.5 21.5t-3 24t-3.5 37.5q6 7 6 16q0 29 -58 41q0 15 9 22.5t31 7.5q16 0 40 -3q5 1 19 6.5
t29 5.5q9 0 20.5 -3t22 -8t18 -10.5t7.5 -11.5t-5.5 -9t-12.5 -6.5t-12.5 -8t-5.5 -12.5t1 -14.5t1 -11.5t-3 -12.5t-8 -33.5v-2q0 -3 2.5 -9.5t5.5 -14t6 -14t3 -8.5q-3 -11 -3 -29q0 -4 -1.5 -6.5t1.5 -7t12.5 -12.5t30.5 -23zM565 37q6 -8 6 -12q0 -8 -10.5 -9t-24 -1.5
t-27 -3.5t-18.5 -15q0 -1 -2 -1q-1 0 -2.5 0.5t-3.5 0.5t-2 -2q0 -7 3.5 -20.5t3.5 -20.5q0 -6 -2.5 -15t-7 -17.5t-11 -14t-14.5 -5.5q-1 0 -8.5 5.5t-15.5 13t-15 15.5t-7 13q0 2 1.5 9t1.5 14v7t-2.5 13t-7.5 12t-14 5q-22 0 -38.5 -2t-27.5 -5q1 1 -30 5h-8h-15
t-20.5 1.5t-18.5 6.5t-9 15q4 11 8 18.5t10 17t15 25.5t23 45q1 4 8 11.5t16.5 16.5t19.5 18t18 17q33 52 62 72t39 20q11 0 17.5 -6t11 -18.5t9.5 -31t13 -43.5q4 -12 4 -24q0 -5 -1.5 -10.5t-1.5 -11.5q0 -17 4.5 -25t4.5 -10q0 -9 -4.5 -18.5t-4.5 -11.5t2.5 -7t7.5 -5
t16 11l21 21q24 -8 28 -63zM388 195q-5 -2 -5.5 -3t-3.5 -4.5t-10 -10t-24 -19.5q-16 -12 -19 -30q-15 -5 -21 -14t-7.5 -18t-1 -14.5t-2.5 -2.5q3 -6 12 -9t19.5 -4.5t20 -1.5h12.5q48 0 48 40q0 17 -1 28t-1 18q0 11 2 15t2 9q-5 8 -7.5 14.5t-12.5 6.5z" />
    <glyph glyph-name="onehalf" unicode="&#xbd;" horiz-adv-x="637" 
d="M300 279q-11 -13 -31 -46.5t-47 -88.5l-61 -122q-14 -18 -40 -18q-18 0 -18 19q0 -1 8 12t19.5 32.5t24.5 41.5t24 40t18 29t6 7q4 4 17 30.5t30 59t35.5 64t35.5 46.5q1 1 4 9.5t6 18.5t5 17.5l2 7.5q18 39 50 39q14 0 14 -15q0 -7 -2.5 -15t-9 -20.5t-19 -30.5
t-31.5 -45q-39 -54 -40 -72zM234 314q2 -2 2 -5q0 -9 -8.5 -18t-21.5 -11q-12 5 -35 7q-28 -16 -68 -16q-26 0 -48 6.5t-22 15.5l8.5 7t19 17.5t19 24t8.5 28.5q0 21 -1 32t-2.5 21.5t-3 24t-3.5 37.5q6 7 6 16q0 29 -58 41q0 15 9 22.5t31 7.5q16 0 40 -3q5 1 19 6.5
t29 5.5q9 0 20.5 -3t22 -7.5t18 -10.5t7.5 -12t-5.5 -9t-12.5 -6.5t-12.5 -8t-5.5 -12.5t1 -14.5t1 -11.5t-3 -12.5t-8 -33.5v-2q0 -3 2.5 -9.5t5.5 -14t6 -14t3 -8.5q-3 -11 -3 -29q0 -4 -1.5 -6.5t1.5 -7t12.5 -12.5t30.5 -23zM545 -4q0 -10 -9.5 -17.5t-21.5 -7.5
q-19 0 -19 15q0 3 1 7.5t1 7.5q0 12 -9 12q-2 0 -24 -2.5t-50 -5.5t-55 -5.5t-39 -2.5q-54 0 -54 21q0 17 30 44q30 10 47 16.5t27 12t16 11.5t15 17q10 3 24 24q34 15 34 37q0 24 -42 56l-15 4q-8 6 -17 6q-6 0 -16 -6t-21 -13.5t-20.5 -13.5t-13.5 -6q-8 0 -13.5 8.5
t-5.5 16.5q0 3 3.5 7.5t7.5 9t7.5 7.5l3.5 3q7 22 31.5 28.5t62.5 14.5q19 -3 57 -3q12 -9 23.5 -18.5t21.5 -19.5t16 -20t6 -22q0 -11 -4 -19l-22 -40q-17 -30 -21 -32l-22 -4q-15 -5 -15 -14q0 -19 18 -20q61 26 89 26q21 0 26 -11.5t5 -18.5q0 -12 -22 -38q-5 -7 -5 -23
t-2 -22z" />
    <glyph glyph-name="threequarters" unicode="&#xbe;" horiz-adv-x="637" 
d="M312 269q-11 -13 -31 -47t-47 -89l-44 -88t-17 -33q-14 -18 -40 -18q-18 0 -18 19q0 -1 8 12t19.5 32.5t24.5 41.5t24 40t18 29t6 7q4 4 17 30.5t30 59t35.5 64t35.5 46.5q1 1 4 9.5t6 18.5t5 17.5l2 7.5q18 39 50 39q15 0 15 -15q0 -6 -2 -13.5t-8.5 -19.5t-19 -30.5
t-33.5 -48.5q-39 -54 -40 -71zM565 37q6 -8 6 -12q0 -8 -10.5 -9t-24 -1.5t-27 -3.5t-18.5 -15q0 -1 -2 -1q-1 0 -2.5 0.5t-3.5 0.5t-2 -2q0 -7 3.5 -20.5t3.5 -20.5q0 -6 -2.5 -15t-7 -17.5t-11 -14t-14.5 -5.5q-1 0 -8.5 5.5t-15.5 13t-15 15.5t-7 13q0 2 1.5 9t1.5 14v7
t-2.5 13t-7.5 12t-14 5q-22 0 -38.5 -2t-27.5 -5q1 1 -30 5h-8h-15t-20.5 1.5t-18.5 6.5t-9 15q4 11 8 18.5t10 17t15 25.5t23 45q1 4 8 11.5t16.5 16.5t19.5 18t18 17q33 52 62 72t39 20q11 0 17.5 -6t11 -18.5t9.5 -31t13 -43.5q4 -12 4 -24q0 -5 -1.5 -10.5t-1.5 -11.5
q0 -17 4.5 -25t4.5 -10q0 -9 -4.5 -18.5t-4.5 -11.5t2.5 -7t7.5 -5t16 11l21 21q24 -8 28 -63zM388 195q-5 -2 -5.5 -3t-3.5 -4.5t-10 -10t-24 -19.5q-16 -12 -19 -30q-15 -5 -21 -14t-7.5 -18t-1 -14.5t-2.5 -2.5q3 -6 12 -9t19.5 -4.5t20 -1.5h12.5q48 0 48 40q0 17 -1 28
t-1 18q0 11 2 15t2 9q-5 8 -7.5 14.5t-12.5 6.5zM230 479q-2 -6 -4 -16t-6.5 -20.5t-12 -20t-18.5 -14.5q-12 -6 -12 -19q1 0 7.5 -1t15 -2.5t15.5 -4.5t9 -9l17 -48q12 -32 12 -48q0 -11 -8.5 -21.5t-19 -20.5t-19.5 -18t-11 -14q-4 -4 -15 -11.5t-23.5 -15.5t-23.5 -15.5
t-15 -11.5q-11 0 -25.5 0.5t-27.5 2t-22 5.5t-9 12q0 7 4 10t12.5 5.5t21.5 6.5t31 13q24 12 36 15q18 21 18 41q0 26 -46 68l-25 -10q-23 -9 -36.5 -12.5t-15.5 -4.5q-8 0 -14.5 4t-6.5 13q0 6 15.5 19t34.5 27.5t34.5 26.5t15.5 17q9 8 11.5 17.5t4.5 19.5q-11 63 -49 63
q-22 0 -56 -18q-5 -4 -11 -4q-14 0 -14 22q0 20 12 31q3 13 8.5 21.5t18.5 13t36 6.5t60 3q7 0 18 -5.5t22 -12t20.5 -12.5t14.5 -7q4 -1 8 -11.5t7.5 -23t5 -22.5t0.5 -9z" />
    <glyph glyph-name="questiondown" unicode="&#xbf;" horiz-adv-x="377" 
d="M229 478q-1 -3 -16.5 -19t-37.5 -42q-4 -2 -6 -2q-6 0 -20 8l-54 50q-6 6 -6 16q0 8 3 14t10.5 14t20.5 19.5t32 30.5q6 3 12 3q9 0 20 -8.5t20.5 -21t16 -27t6.5 -26.5q0 -6 -1 -9zM270 106q25 -22 25 -51q0 -23 -34 -85q-1 -2 -9 -4l-24 -24q-14 -14 -24 -14h-1
q-6 -5 -15 -6.5t-19 -1.5h-32t-17.5 1t-10.5 2.5t-9 4.5q-17 9 -25 11q-48 16 -79 103v3q0 4 2 13.5t4.5 18.5t4.5 16t2 6l9 50q4 12 14 23t13 16q3 15 12 46q16 7 33 17t30 21.5t21.5 24t8.5 24.5q0 9 -10 25q9 29 35 29q19 0 35.5 -16t16.5 -35q0 -4 -0.5 -7t-1.5 -7
q3 -1 3 -8v-11q0 -14 -3 -22t-9 -14.5t-14.5 -13.5t-20.5 -19q-13 -17 -15.5 -25t-5.5 -12q-40 -44 -40 -54q-6 -7 -11.5 -21t-10.5 -28t-8.5 -25.5t-4.5 -13.5q0 -5 2 -13t5 -17t6 -17t4 -13l19 -13q13 -10 22 -10t16 10q3 -3 7 -3q3 0 8 3.5t10.5 7.5t9.5 8t5 4
q-6 18 -21 103q33 37 65 37q13 0 15.5 -5.5t11.5 -18.5zM234 90q10 1 10 10q0 13 -9 13h-3h-3q-7 0 -7 -8q0 -11 12 -15z" />
    <glyph glyph-name="Agrave" unicode="&#xc0;" horiz-adv-x="598" 
d="M548 18q-2 -9 -9.5 -13t-15 -5.5t-14 -2t-7.5 -1.5q-8 2 -20.5 3t-29.5 1t-39 -2t-49 -2q-15 0 -25 10t-10 24q0 7 8 17t17 19t17 14.5l8 5.5q0 1 0.5 1.5t0.5 1.5q0 11 -5 19t-3 7l-16 63q0 7 -3 20t-9.5 25.5t-17 22t-24.5 9.5q-4 0 -7 -1.5t-5 -1.5q-6 0 -14 2t-10 2
q-4 0 -12 -0.5t-20 -1.5l-13 -3q-6 8 -16 8q-11 0 -19 -6.5t-8 -17.5q0 -3 1 -5q-24 -35 -34.5 -64.5t-10.5 -57.5q0 -4 -4 -14.5t-4 -16.5q0 -13 14 -19.5t26 -12.5l16 -19q-2 -4 -2 -11q0 -6 3 -7q-4 -3 -9 -7.5t-13 -9.5q-24 6 -80 6q-5 0 -8.5 0.5t-7.5 -0.5t-9 -3
t-14 -7h-6q-9 0 -17 1.5t-14 6.5t-9 14t-3 25q0 6 7.5 13.5t16 15.5t16 16t7.5 16v3q13 22 31.5 63t41.5 102q3 5 6 15.5t5 21t3.5 19t3.5 11.5q43 77 49 130q18 3 18 20q0 2 -0.5 3.5t-0.5 3.5q19 22 19 33q0 6 -12.5 14t-15.5 17q1 11 39 28q8 3 9 14t2.5 22.5t7.5 20.5
t24 9q21 0 38 -15q0 -3 3.5 -9.5t7.5 -13t8 -11.5t4 -6q4 -11 8.5 -22.5t13 -32.5t22.5 -55.5t36 -89.5q7 -33 12 -48t9.5 -25t8 -21t7.5 -35q7 -23 12.5 -39.5t11 -32t11.5 -34t15 -43.5q7 -30 47 -64q5 -5 5 -15q0 -5 -2 -15zM321 315q1 -2 -2.5 8t-9.5 26t-13.5 35
t-15.5 35t-14.5 27t-10.5 11q-15 0 -24 -62q-5 -4 -11 -12t-10.5 -17.5t-7.5 -19t-3 -16.5q0 -5 2 -11v-3q0 -8 5 -12t13 -6t18 -2h19q55 0 65 19zM386 605q-6 -3 -12 -3q-9 0 -13 3.5t-8.5 9.5t-12.5 14.5t-24 19.5q-20 13 -55 49l-27 19q-17 12 -17 24q0 10 6 19.5
t15 16.5t20 11t20 4h12q21 -24 40.5 -47.5t22.5 -50.5l24 -27q7 -8 9 -20t3 -26q0 -12 -3 -16z" />
    <glyph glyph-name="Aacute" unicode="&#xc1;" horiz-adv-x="598" 
d="M548 18q-2 -9 -9.5 -13t-15 -5.5t-14 -2t-7.5 -1.5q-8 2 -20.5 3t-29.5 1t-39 -2t-49 -2q-15 0 -25 10t-10 24q0 7 8 17t17 19t17 14.5l8 5.5q0 1 0.5 1.5t0.5 1.5q0 11 -5 19t-3 7l-16 63q0 7 -3 20t-9.5 25.5t-17 22t-24.5 9.5q-4 0 -7 -1.5t-5 -1.5q-6 0 -14 2t-10 2
q-4 0 -12 -0.5t-20 -1.5l-13 -3q-6 8 -16 8q-11 0 -19 -6.5t-8 -17.5q0 -3 1 -5q-24 -35 -34.5 -64.5t-10.5 -57.5q0 -4 -4 -14.5t-4 -16.5q0 -13 14 -19.5t26 -12.5l16 -19q-2 -4 -2 -11q0 -6 3 -7q-4 -3 -9 -7.5t-13 -9.5q-24 6 -80 6q-5 0 -8.5 0.5t-7.5 -0.5t-9 -3
t-14 -7h-6q-9 0 -17 1.5t-14 6.5t-9 14t-3 25q0 6 7.5 13.5t16 15.5t16 16t7.5 16v3q13 22 31.5 63t41.5 102q3 5 6 15.5t5 21t3.5 19t3.5 11.5q43 77 49 130q18 3 18 20q0 2 -0.5 3.5t-0.5 3.5q19 22 19 33q0 6 -12.5 14t-15.5 17q1 11 39 28q8 3 9 14t2.5 22.5t7.5 20.5
t24 9q21 0 38 -15q0 -3 3.5 -9.5t7.5 -13t8 -11.5t4 -6q4 -11 8.5 -22.5t13 -32.5t22.5 -55.5t36 -89.5q7 -33 12 -48t9.5 -25t8 -21t7.5 -35q7 -23 12.5 -39.5t11 -32t11.5 -34t15 -43.5q7 -30 47 -64q5 -5 5 -15q0 -5 -2 -15zM321 315q1 -2 -2.5 8t-9.5 26t-13.5 35
t-15.5 35t-14.5 27t-10.5 11q-15 0 -24 -62q-5 -4 -11 -12t-10.5 -17.5t-7.5 -19t-3 -16.5q0 -5 2 -11v-3q0 -8 5 -12t13 -6t18 -2h19q55 0 65 19zM330 732q-1 -7 -18 -23.5t-39.5 -33.5t-45 -30t-33.5 -13q-8 0 -12.5 5.5t-4.5 11.5q0 8 16.5 34t46.5 73q4 4 16.5 6.5
t24.5 19.5l25 -1q13 -19 18.5 -30t5.5 -19z" />
    <glyph glyph-name="Acircumflex" unicode="&#xc2;" horiz-adv-x="598" 
d="M548 18q-2 -9 -9.5 -13t-15 -5.5t-14 -2t-7.5 -1.5q-8 2 -20.5 3t-29.5 1t-39 -2t-49 -2q-15 0 -25 10t-10 24q0 7 8 17t17 19t17 14.5l8 5.5q0 1 0.5 1.5t0.5 1.5q0 11 -5 19t-3 7l-16 63q0 7 -3 20t-9.5 25.5t-17 22t-24.5 9.5q-4 0 -7 -1.5t-5 -1.5q-6 0 -14 2t-10 2
q-4 0 -12 -0.5t-20 -1.5l-13 -3q-6 8 -16 8q-11 0 -19 -6.5t-8 -17.5q0 -3 1 -5q-24 -35 -34.5 -64.5t-10.5 -57.5q0 -4 -4 -14.5t-4 -16.5q0 -13 14 -19.5t26 -12.5l16 -19q-2 -4 -2 -11q0 -6 3 -7q-4 -3 -9 -7.5t-13 -9.5q-24 6 -80 6q-5 0 -8.5 0.5t-7.5 -0.5t-9 -3
t-14 -7h-6q-9 0 -17 1.5t-14 6.5t-9 14t-3 25q0 6 7.5 13.5t16 15.5t16 16t7.5 16v3q13 22 31.5 63t41.5 102q3 5 6 15.5t5 21t3.5 19t3.5 11.5q43 77 49 130q18 3 18 20q0 2 -0.5 3.5t-0.5 3.5q19 22 19 33q0 6 -12.5 14t-15.5 17q1 11 39 28q8 3 9 14t2.5 22.5t7.5 20.5
t24 9q21 0 38 -15q0 -3 3.5 -9.5t7.5 -13t8 -11.5t4 -6q4 -11 8.5 -22.5t13 -32.5t22.5 -55.5t36 -89.5q7 -33 12 -48t9.5 -25t8 -21t7.5 -35q7 -23 12.5 -39.5t11 -32t11.5 -34t15 -43.5q7 -30 47 -64q5 -5 5 -15q0 -5 -2 -15zM321 315q1 -2 -2.5 8t-9.5 26t-13.5 35
t-15.5 35t-14.5 27t-10.5 11q-15 0 -24 -62q-5 -4 -11 -12t-10.5 -17.5t-7.5 -19t-3 -16.5q0 -5 2 -11v-3q0 -8 5 -12t13 -6t18 -2h19q55 0 65 19zM342 636q-8 0 -16 7t-14.5 16.5t-11 20t-4.5 17.5v-1q-5 0 -7.5 9.5t-14.5 31.5q-5 3 -7 3q-4 0 -7 -5l-6 -17q-6 -6 -13 -17
v-7q0 -9 -2 -20t-13 -22q-7 -11 -7 -19v-2q-3 -6 -7 -6t-11 4.5t-16 4.5h-5q-19 0 -25.5 5.5t-9.5 32.5q7 12 12 22.5t12 24t18.5 32t31.5 45.5q22 -3 28 -3q3 0 6.5 1t6.5 1q41 0 71 -58q0 -14 5 -27.5t10.5 -24.5t10.5 -18.5t5 -9.5q0 -21 -20 -21z" />
    <glyph glyph-name="Atilde" unicode="&#xc3;" horiz-adv-x="598" 
d="M548 18q-2 -9 -9.5 -13t-15 -5.5t-14 -2t-7.5 -1.5q-8 2 -20.5 3t-29.5 1t-39 -2t-49 -2q-15 0 -25 10t-10 24q0 7 8 17t17 19t17 14.5l8 5.5q0 1 0.5 1.5t0.5 1.5q0 11 -5 19t-3 7l-16 63q0 7 -3 20t-9.5 25.5t-17 22t-24.5 9.5q-4 0 -7 -1.5t-5 -1.5q-6 0 -14 2t-10 2
q-4 0 -12 -0.5t-20 -1.5l-13 -3q-6 8 -16 8q-11 0 -19 -6.5t-8 -17.5q0 -3 1 -5q-24 -35 -34.5 -64.5t-10.5 -57.5q0 -4 -4 -14.5t-4 -16.5q0 -13 14 -19.5t26 -12.5l16 -19q-2 -4 -2 -11q0 -6 3 -7q-4 -3 -9 -7.5t-13 -9.5q-24 6 -80 6q-5 0 -8.5 0.5t-7.5 -0.5t-9 -3
t-14 -7h-6q-9 0 -17 1.5t-14 6.5t-9 14t-3 25q0 6 7.5 13.5t16 15.5t16 16t7.5 16v3q13 22 31.5 63t41.5 102q3 5 6 15.5t5 21t3.5 19t3.5 11.5q43 77 49 130q18 3 18 20q0 2 -0.5 3.5t-0.5 3.5q19 22 19 33q0 6 -12.5 14t-15.5 17q1 11 39 28q8 3 9 14t2.5 22.5t7.5 20.5
t24 9q21 0 38 -15q0 -3 3.5 -9.5t7.5 -13t8 -11.5t4 -6q4 -11 8.5 -22.5t13 -32.5t22.5 -55.5t36 -89.5q7 -33 12 -48t9.5 -25t8 -21t7.5 -35q7 -23 12.5 -39.5t11 -32t11.5 -34t15 -43.5q7 -30 47 -64q5 -5 5 -15q0 -5 -2 -15zM321 315q1 -2 -2.5 8t-9.5 26t-13.5 35
t-15.5 35t-14.5 27t-10.5 11q-15 0 -24 -62q-5 -4 -11 -12t-10.5 -17.5t-7.5 -19t-3 -16.5q0 -5 2 -11v-3q0 -8 5 -12t13 -6t18 -2h19q55 0 65 19zM429 753q0 -1 0.5 -3t0.5 -6q0 -5 -0.5 -10t-0.5 -13l-5 -41q-3 -12 -12 -18.5t-19.5 -10.5t-20.5 -5t-14 -1q-29 0 -33 12
l-26 34q-8 10 -17.5 13.5t-18.5 4.5q-49 0 -58 -62h-10q-13 0 -20.5 2.5t-7.5 14.5q0 8 4.5 19t12 23t17 23.5t18.5 19.5q5 2 18 7t27 5q10 0 24 -3q1 0 3 -5t7 -5q2 0 5 1.5t5 1.5q9 0 43 -25q4 -4 10 -4q1 0 9 5t18 11t20.5 11t17.5 5q2 0 3 -1z" />
    <glyph glyph-name="Adieresis" unicode="&#xc4;" horiz-adv-x="598" 
d="M548 18q-2 -9 -9.5 -13t-15 -5.5t-14 -2t-7.5 -1.5q-8 2 -20.5 3t-29.5 1t-39 -2t-49 -2q-15 0 -25 10t-10 24q0 7 8 17t17 19t17 14.5l8 5.5q0 1 0.5 1.5t0.5 1.5q0 11 -5 19t-3 7l-16 63q0 7 -3 20t-9.5 25.5t-17 22t-24.5 9.5q-4 0 -7 -1.5t-5 -1.5q-6 0 -14 2t-10 2
q-4 0 -12 -0.5t-20 -1.5l-13 -3q-6 8 -16 8q-11 0 -19 -6.5t-8 -17.5q0 -3 1 -5q-24 -35 -34.5 -64.5t-10.5 -57.5q0 -4 -4 -14.5t-4 -16.5q0 -13 14 -19.5t26 -12.5l16 -19q-2 -4 -2 -11q0 -6 3 -7q-4 -3 -9 -7.5t-13 -9.5q-24 6 -80 6q-5 0 -8.5 0.5t-7.5 -0.5t-9 -3
t-14 -7h-6q-9 0 -17 1.5t-14 6.5t-9 14t-3 25q0 6 7.5 13.5t16 15.5t16 16t7.5 16v3q13 22 31.5 63t41.5 102q3 5 6 15.5t5 21t3.5 19t3.5 11.5q43 77 49 130q18 3 18 20q0 2 -0.5 3.5t-0.5 3.5q19 22 19 33q0 6 -12.5 14t-15.5 17q1 11 39 28q8 3 9 14t2.5 22.5t7.5 20.5
t24 9q21 0 38 -15q0 -3 3.5 -9.5t7.5 -13t8 -11.5t4 -6q4 -11 8.5 -22.5t13 -32.5t22.5 -55.5t36 -89.5q7 -33 12 -48t9.5 -25t8 -21t7.5 -35q7 -23 12.5 -39.5t11 -32t11.5 -34t15 -43.5q7 -30 47 -64q5 -5 5 -15q0 -5 -2 -15zM321 315q1 -2 -2.5 8t-9.5 26t-13.5 35
t-15.5 35t-14.5 27t-10.5 11q-15 0 -24 -62q-5 -4 -11 -12t-10.5 -17.5t-7.5 -19t-3 -16.5q0 -5 2 -11v-3q0 -8 5 -12t13 -6t18 -2h19q55 0 65 19zM373 670q-9 -4 -17 -10.5t-12 -6.5q-2 0 -5 3t-11 12q-6 1 -16 8.5t-10 27.5q0 10 3 21.5t8.5 21t13 15.5t16.5 6
q7 0 17 -2.5t19 -7t15 -10t6 -10.5q0 -3 -4 -13t-9.5 -21.5t-9.5 -21.5t-4 -12zM250 675q-8 -4 -16.5 -10.5t-11.5 -6.5q-2 0 -5 3.5t-11 11.5q-7 2 -17 10t-10 25t11 30.5t31 13.5q10 0 22.5 -9t12.5 -26q0 -7 -3 -21t-3 -21z" />
    <glyph glyph-name="Aring" unicode="&#xc5;" horiz-adv-x="598" 
d="M321 315q1 -2 -2.5 8t-9.5 26t-13.5 35t-15.5 35t-14.5 27t-10.5 11q-15 0 -24 -62q-5 -4 -11 -12t-10.5 -17.5t-7.5 -19t-3 -16.5q0 -5 2 -11v-3q0 -8 5 -12t13 -6t18 -2h19q55 0 65 19zM174 726q18 18 28 50q1 2 18 7l21 4q7 4 17 9t24 11q20 -11 41 -24t43 -29
q-1 -5 -1 -17q0 -8 -0.5 -15.5t12.5 -25.5q6 -8 6 -15q0 -24 -22 -40.5t-49 -22.5q4 -6 7.5 -12t8 -14.5t10.5 -22t17 -35.5q3 -12 7.5 -24t11 -28.5t15.5 -38.5t22 -53q7 -33 12 -48t9.5 -25t8 -21t7.5 -35q7 -23 12.5 -39.5t11 -32t11.5 -34t15 -43.5q7 -30 47 -64
q5 -5 5 -15q0 -16 -7 -23t-16 -9t-16.5 -2.5t-8.5 -2.5q-8 2 -20.5 3t-29.5 1t-39 -2t-49 -2q-15 0 -25 10t-10 24q0 7 8 17t17 19t17 14.5l8 5.5q0 1 0.5 1.5t0.5 1.5q0 11 -5 19t-3 7l-16 63q0 7 -3 20t-9.5 25.5t-17 22t-24.5 9.5q-4 0 -7 -1.5t-5 -1.5q-6 0 -14 2t-10 2
q-4 0 -12 -0.5t-20 -1.5l-13 -3q-6 8 -16 8q-11 0 -19 -6.5t-8 -17.5q0 -3 1 -5q-24 -35 -34.5 -64.5t-10.5 -57.5q0 -4 -4 -14.5t-4 -16.5q0 -13 14 -19.5t26 -12.5l16 -19q-2 -4 -2 -11q0 -6 3 -7q-4 -3 -9 -7.5t-13 -9.5q-24 6 -80 6q-5 0 -8.5 0.5t-7.5 -0.5t-9 -3
t-14 -7h-6q-9 0 -17 1.5t-14 6.5t-9 14t-3 25q0 6 7.5 13.5t16 15.5t16 16t7.5 16v3q13 22 31.5 63t41.5 102q3 5 6 15.5t5 21t3.5 19t3.5 11.5q43 77 49 130q18 3 18 20q0 2 -0.5 3.5t-0.5 3.5q19 22 19 33q0 6 -12.5 14t-15.5 17q1 13 39 28q9 3 11 17v24q-71 18 -71 73
q0 18 7 33zM272 740q-5 -1 -14 -1t-17 -2.5t-14 -9t-6 -21.5q0 -5 2.5 -12t9 -13.5t19 -11t33.5 -4.5q5 0 16.5 9.5t11.5 31.5q0 28 -41 34z" />
    <glyph glyph-name="AE" unicode="&#xc6;" horiz-adv-x="685" 
d="M312 297q-3 15 -3 40q0 16 1 36.5t1 34.5v19.5t-2 15.5q-78 -92 -78 -121v-3q-1 -2 -1 -5q0 -19 46 -19q6 0 15 0.5t21 1.5zM522 -5l-105 4h-19q-62 0 -68 -10q-13 -4 -26 -4q-7 0 -15.5 3t-16 8.5t-12.5 12t-5 14.5q0 4 9 11t20.5 15t21 17t10.5 19v16q0 14 -1 33.5
t-2 38t-2 33t-1 20.5q0 8 0.5 15.5t1.5 14.5h-9q-12 0 -27.5 -1.5t-35.5 -3.5q-5 8 -15 8q-12 0 -21.5 -9t-9.5 -20q-8 -9 -21 -31t-26 -46.5t-22.5 -46.5t-9.5 -31q0 -3 5 -9t12.5 -12.5t16 -14t15.5 -13.5l-2 -19l-25 -16q-24 6 -79 6h-23l-18 -10h-6q-12 0 -23 4.5
t-11 15.5t1 19t5 15t13 14t24 18q14 9 14 22v2q11 15 27 41t31 52t27 47t15 26q3 4 6.5 13.5t7.5 19.5t8 19.5t7 14.5q19 26 31 44t19.5 32.5t12 26.5t8.5 27q21 4 21 28q11 11 17 23q-20 7 -34 16.5t-19 19.5q3 1 8 15q6 5 43.5 10t103.5 5q34 0 36 -5q11 -4 28 -4
q2 0 17 2t41 2q8 0 14 -1.5t12 -1.5q12 0 30.5 6t27.5 6q24 0 42 -26q-2 -57 -21 -102q-16 3 -32 16q-3 12 -4.5 18.5t-6 11.5t-13.5 10t-27 14h-11q-17 0 -44 -3q-5 8 -12 8q-5 0 -13 -6t-15 -18t-12 -31t-5 -44q0 -29 -0.5 -48.5t1.5 -31.5t8 -18t20 -9q16 -12 25 -12
q4 0 28 12l7 16q28 27 37 27q7 0 13 -7q2 -48 3.5 -71.5t1.5 -22.5q0 -42 -7.5 -56.5t-23.5 -14.5q-7 0 -12 10t-9.5 22t-9 23t-11.5 13q-13 10 -24 10q-6 0 -13.5 -4t-14 -8t-10.5 -7t-2 -1q-1 -5 -1.5 -10.5t-0.5 -13.5v-11.5t1 -13.5q5 -7 5 -22v-7q0 -14 0.5 -22
t1.5 -12q-10 -3 -10 -32q0 -35 33 -39l23 -15q47 1 64.5 4t25 10.5t15 19.5t33.5 32l28 21q11 -14 11 -46q0 -43 -17 -88l-19 -6q-24 -2 -42 -3z" />
    <glyph glyph-name="Ccedilla" unicode="&#xc7;" horiz-adv-x="606" 
d="M121 424q10 7 10 21q0 17 -13 17q-18 0 -18 -17q0 -22 15 -22q4 0 6 1zM281 -187q-10 -2 -23 -6t-30 -9q-27 0 -61 7q-36 24 -36 44q0 16 10 31t18 15q4 0 12 -7t16 -15t15.5 -15t11.5 -7q8 0 19.5 17.5t11.5 59.5q0 12 0.5 20.5t3 15t7 13t13.5 15.5q-192 6 -261 230
q-4 12 -4 28q0 12 3 34t3 34q0 14 -4 25q10 17 13 28.5t5 23.5t7 26.5t19 37.5q16 25 16 37q72 66 107 66h4q43 28 117 28q14 0 42 -5t57.5 -11t53 -11t29.5 -5q2 0 8.5 2t14 4.5t15.5 4.5t14 2t10.5 -5.5t7.5 -13.5t4.5 -17t1.5 -17q0 -5 -0.5 -14t-1.5 -19.5t-1.5 -20
t-0.5 -13.5q0 -14 3 -24q-6 -10 -11.5 -21t-14.5 -11q-11 0 -21 22l-15 33q-20 32 -39 49t-37 26t-37 14t-39 13l-5 -5h-4q-12 0 -18 -7q-10 5 -16 5t-14 -5t-16 -11.5t-15 -12.5t-11 -7q-7 -1 -15.5 -1.5t-18.5 -6t-20 -17.5t-20 -36q-16 -10 -22 -24t-13 -20
q-1 -7 -2.5 -21.5t-3 -30t-2.5 -30t-1 -21.5q0 -9 2.5 -21.5t5.5 -25t5.5 -22.5t2.5 -13q5 -9 10.5 -25.5t15.5 -36t28 -40t49 -36.5q30 -15 44 -26h9q14 -10 41 -10q43 0 43 1q17 0 39 13t41.5 30t33 32.5t13.5 21.5q0 15 8.5 19.5t13.5 4.5q17 0 17 -39q0 -21 -5 -36v-7
q0 -16 -4 -31.5t-11 -27.5t-15.5 -19.5t-18.5 -7.5q-16 0 -33 17h-3q-9 0 -26 -7l-32 -12q-12 -2 -27.5 -3.5t-35.5 -1.5h-17l-3 -19q0 -4 -2.5 -10t-6 -12t-6 -11t-2.5 -7q0 -6 2.5 -16t5 -20.5t5 -19.5t2.5 -12q0 -13 -9.5 -26.5t-18.5 -25.5z" />
    <glyph glyph-name="Egrave" unicode="&#xc8;" horiz-adv-x="484" 
d="M427 5q-5 -6 -14 -6q-5 0 -10 8.5t-13 8.5q-4 0 -12.5 -10t-10.5 -11q-3 0 -6.5 0.5t-7.5 0.5q-6 0 -13.5 -0.5t-15.5 -1.5q-3 -2 -7 -4q-6 -3 -12 -3q-3 0 -15.5 6t-36.5 6h-88h-70h7h8.5t12.5 1q-40 -2 -45 -11q-15 -4 -27 -4q-6 0 -14.5 3t-16 8t-12.5 12t-5 15
q0 5 9.5 11.5t21 15t21 17.5t9.5 18q2 8 2.5 24.5t1.5 41.5q-2 8 -7 27t-5 42q0 7 1 18t3 26l-2 45l2 57q1 15 -1 37.5t-4 51.5q1 5 1.5 14t0.5 22q-1 16 -8 16q-2 0 -2.5 -0.5t-2.5 -0.5q-15 0 -27.5 13.5t-12.5 28.5q0 26 29 26q18 0 39.5 -5t48.5 -5q8 0 17 2t18 5l18 -3
q8 1 24 2.5t39 4.5q-1 0 9 -3t30 -3q17 0 32 1.5t21 1.5q9 0 21.5 -2t24 -6.5t19.5 -11t8 -15.5q0 -22 -5 -48.5t-16 -50.5q-14 3 -32 15q-1 4 -4 13t-11 20t-29 19.5t-39 17.5q1 0 -3 -0.5l-12 -1.5q-5 1 -13 1h-18q-4 -1 -8 -1h-3q0 -1 2 -1q-6 8 -13 8q-6 0 -12 -6.5
t-11.5 -15t-10 -17.5t-6.5 -15q-2 -8 -2 -12q0 -6 1.5 -11.5t1.5 -7.5q0 -12 -2.5 -25t-2.5 -27t1.5 -29t3.5 -31l6.5 -3.5t17 -8t24 -8t27.5 -3.5q22 0 35 3t19 21q28 27 37 27h5t6 -3.5t5 -12.5t2 -28q0 -11 -2 -18.5t-2 -15.5t2.5 -24t2.5 -24q0 -17 -8 -31.5t-24 -14.5
q-8 0 -13 10t-9.5 22.5t-9 23t-10.5 12.5q-17 12 -43 12q-35 0 -66 -16q-3 -9 -3 -22q0 -6 0.5 -12.5t1.5 -14.5q5 -5 5 -22q0 -5 -0.5 -10.5t-0.5 -10.5q0 -14 2 -20q-10 -3 -10 -23q0 -4 -0.5 -11t2 -14.5t9.5 -13.5t23 -9q13 -15 23 -15h96q25 0 39 7t19 24l15 14
l4.5 4.5t7.5 7t8.5 6.5t7.5 3q6 0 10.5 -8t7.5 -19t4.5 -23t1.5 -20q0 -26 -7 -44zM275 605q-6 -3 -12 -3q-9 0 -13 3.5t-8.5 9.5t-12.5 14.5t-24 19.5q-20 13 -55 49l-27 19q-17 12 -17 24q0 10 6 19.5t15 16.5t20 11t20 4h12q21 -24 40.5 -47.5t22.5 -50.5l24 -27
q7 -8 9 -20t3 -26q0 -12 -3 -16z" />
    <glyph glyph-name="Eacute" unicode="&#xc9;" horiz-adv-x="484" 
d="M427 5q-5 -6 -14 -6q-5 0 -10 8.5t-13 8.5q-4 0 -12.5 -10t-10.5 -11q-3 0 -6.5 0.5t-7.5 0.5q-6 0 -13.5 -0.5t-15.5 -1.5q-3 -2 -7 -4q-6 -3 -12 -3q-3 0 -15.5 6t-36.5 6h-88h-70h7h8.5t12.5 1q-40 -2 -45 -11q-15 -4 -27 -4q-6 0 -14.5 3t-16 8t-12.5 12t-5 15
q0 5 9.5 11.5t21 15t21 17.5t9.5 18q2 8 2.5 24.5t1.5 41.5q-2 8 -7 27t-5 42q0 7 1 18t3 26l-2 45l2 57q1 15 -1 37.5t-4 51.5q1 5 1.5 14t0.5 22q-1 16 -8 16q-2 0 -2.5 -0.5t-2.5 -0.5q-15 0 -27.5 13.5t-12.5 28.5q0 26 29 26q18 0 39.5 -5t48.5 -5q8 0 17 2t18 5l18 -3
q8 1 24 2.5t39 4.5q-1 0 9 -3t30 -3q17 0 32 1.5t21 1.5q9 0 21.5 -2t24 -6.5t19.5 -11t8 -15.5q0 -22 -5 -48.5t-16 -50.5q-14 3 -32 15q-1 4 -4 13t-11 20t-29 19.5t-39 17.5q1 0 -3 -0.5l-12 -1.5q-5 1 -13 1h-18q-4 -1 -8 -1h-3q0 -1 2 -1q-6 8 -13 8q-6 0 -12 -6.5
t-11.5 -15t-10 -17.5t-6.5 -15q-2 -8 -2 -12q0 -6 1.5 -11.5t1.5 -7.5q0 -12 -2.5 -25t-2.5 -27t1.5 -29t3.5 -31l6.5 -3.5t17 -8t24 -8t27.5 -3.5q22 0 35 3t19 21q28 27 37 27h5t6 -3.5t5 -12.5t2 -28q0 -11 -2 -18.5t-2 -15.5t2.5 -24t2.5 -24q0 -17 -8 -31.5t-24 -14.5
q-8 0 -13 10t-9.5 22.5t-9 23t-10.5 12.5q-17 12 -43 12q-35 0 -66 -16q-3 -9 -3 -22q0 -6 0.5 -12.5t1.5 -14.5q5 -5 5 -22q0 -5 -0.5 -10.5t-0.5 -10.5q0 -14 2 -20q-10 -3 -10 -23q0 -4 -0.5 -11t2 -14.5t9.5 -13.5t23 -9q13 -15 23 -15h96q25 0 39 7t19 24l15 14
l4.5 4.5t7.5 7t8.5 6.5t7.5 3q6 0 10.5 -8t7.5 -19t4.5 -23t1.5 -20q0 -26 -7 -44zM330 732q-1 -7 -18 -23.5t-39.5 -33.5t-45 -30t-33.5 -13q-8 0 -12.5 5.5t-4.5 11.5q0 8 16.5 34t46.5 73q4 4 16.5 6.5t24.5 19.5l25 -1q13 -19 18.5 -30t5.5 -19z" />
    <glyph glyph-name="Ecircumflex" unicode="&#xca;" horiz-adv-x="484" 
d="M427 5q-5 -6 -14 -6q-5 0 -10 8.5t-13 8.5q-4 0 -12.5 -10t-10.5 -11q-3 0 -6.5 0.5t-7.5 0.5q-6 0 -13.5 -0.5t-15.5 -1.5q-3 -2 -7 -4q-6 -3 -12 -3q-3 0 -15.5 6t-36.5 6h-88h-70h7h8.5t12.5 1q-40 -2 -45 -11q-15 -4 -27 -4q-6 0 -14.5 3t-16 8t-12.5 12t-5 15
q0 5 9.5 11.5t21 15t21 17.5t9.5 18q2 8 2.5 24.5t1.5 41.5q-2 8 -7 27t-5 42q0 7 1 18t3 26l-2 45l2 57q1 15 -1 37.5t-4 51.5q1 5 1.5 14t0.5 22q-1 16 -8 16q-2 0 -2.5 -0.5t-2.5 -0.5q-15 0 -27.5 13.5t-12.5 28.5q0 26 29 26q18 0 39.5 -5t48.5 -5q8 0 17 2t18 5l18 -3
q8 1 24 2.5t39 4.5q-1 0 9 -3t30 -3q17 0 32 1.5t21 1.5q9 0 21.5 -2t24 -6.5t19.5 -11t8 -15.5q0 -22 -5 -48.5t-16 -50.5q-14 3 -32 15q-1 4 -4 13t-11 20t-29 19.5t-39 17.5q1 0 -3 -0.5l-12 -1.5q-5 1 -13 1h-18q-4 -1 -8 -1h-3q0 -1 2 -1q-6 8 -13 8q-6 0 -12 -6.5
t-11.5 -15t-10 -17.5t-6.5 -15q-2 -8 -2 -12q0 -6 1.5 -11.5t1.5 -7.5q0 -12 -2.5 -25t-2.5 -27t1.5 -29t3.5 -31l6.5 -3.5t17 -8t24 -8t27.5 -3.5q22 0 35 3t19 21q28 27 37 27h5t6 -3.5t5 -12.5t2 -28q0 -11 -2 -18.5t-2 -15.5t2.5 -24t2.5 -24q0 -17 -8 -31.5t-24 -14.5
q-8 0 -13 10t-9.5 22.5t-9 23t-10.5 12.5q-17 12 -43 12q-35 0 -66 -16q-3 -9 -3 -22q0 -6 0.5 -12.5t1.5 -14.5q5 -5 5 -22q0 -5 -0.5 -10.5t-0.5 -10.5q0 -14 2 -20q-10 -3 -10 -23q0 -4 -0.5 -11t2 -14.5t9.5 -13.5t23 -9q13 -15 23 -15h96q25 0 39 7t19 24l15 14
l4.5 4.5t7.5 7t8.5 6.5t7.5 3q6 0 10.5 -8t7.5 -19t4.5 -23t1.5 -20q0 -26 -7 -44zM308 636q-7 0 -15 7t-15 16.5t-11.5 20t-4.5 17.5v-1q-4 0 -6.5 10t-14.5 31q-5 3 -7 3q-4 0 -7 -5l-6 -17q-6 -5 -14 -17q0 -2 0.5 -5t0.5 -6q0 -5 -0.5 -10t-1.5 -11l-13 -17
q-7 -11 -7 -19v-2q-3 -6 -7 -6q-5 0 -11.5 4.5t-16.5 4.5h-5q-18 0 -25 5.5t-9 32.5q7 12 12 22.5t11.5 24t18 32t31.5 45.5q22 -3 29 -3q3 0 6 1t7 1q41 0 71 -58q0 -14 4.5 -27.5t10.5 -24.5t10.5 -18.5t4.5 -9.5q0 -21 -20 -21z" />
    <glyph glyph-name="Edieresis" unicode="&#xcb;" horiz-adv-x="484" 
d="M427 5q-5 -6 -14 -6q-5 0 -10 8.5t-13 8.5q-4 0 -12.5 -10t-10.5 -11q-3 0 -6.5 0.5t-7.5 0.5q-6 0 -13.5 -0.5t-15.5 -1.5q-3 -2 -7 -4q-6 -3 -12 -3q-3 0 -15.5 6t-36.5 6h-88h-70h7h8.5t12.5 1q-40 -2 -45 -11q-15 -4 -27 -4q-6 0 -14.5 3t-16 8t-12.5 12t-5 15
q0 5 9.5 11.5t21 15t21 17.5t9.5 18q2 8 2.5 24.5t1.5 41.5q-2 8 -7 27t-5 42q0 7 1 18t3 26l-2 45l2 57q1 15 -1 37.5t-4 51.5q1 5 1.5 14t0.5 22q-1 16 -8 16q-2 0 -2.5 -0.5t-2.5 -0.5q-15 0 -27.5 13.5t-12.5 28.5q0 26 29 26q18 0 39.5 -5t48.5 -5q8 0 17 2t18 5l18 -3
q8 1 24 2.5t39 4.5q-1 0 9 -3t30 -3q17 0 32 1.5t21 1.5q9 0 21.5 -2t24 -6.5t19.5 -11t8 -15.5q0 -22 -5 -48.5t-16 -50.5q-14 3 -32 15q-1 4 -4 13t-11 20t-29 19.5t-39 17.5q1 0 -3 -0.5l-12 -1.5q-5 1 -13 1h-18q-4 -1 -8 -1h-3q0 -1 2 -1q-6 8 -13 8q-6 0 -12 -6.5
t-11.5 -15t-10 -17.5t-6.5 -15q-2 -8 -2 -12q0 -6 1.5 -11.5t1.5 -7.5q0 -12 -2.5 -25t-2.5 -27t1.5 -29t3.5 -31l6.5 -3.5t17 -8t24 -8t27.5 -3.5q22 0 35 3t19 21q28 27 37 27h5t6 -3.5t5 -12.5t2 -28q0 -11 -2 -18.5t-2 -15.5t2.5 -24t2.5 -24q0 -17 -8 -31.5t-24 -14.5
q-8 0 -13 10t-9.5 22.5t-9 23t-10.5 12.5q-17 12 -43 12q-35 0 -66 -16q-3 -9 -3 -22q0 -6 0.5 -12.5t1.5 -14.5q5 -5 5 -22q0 -5 -0.5 -10.5t-0.5 -10.5q0 -14 2 -20q-10 -3 -10 -23q0 -4 -0.5 -11t2 -14.5t9.5 -13.5t23 -9q13 -15 23 -15h96q25 0 39 7t19 24l15 14
l4.5 4.5t7.5 7t8.5 6.5t7.5 3q6 0 10.5 -8t7.5 -19t4.5 -23t1.5 -20q0 -26 -7 -44zM306 670q-8 -4 -16.5 -10.5t-11.5 -6.5q-2 0 -9.5 5.5t-27.5 21.5q-6 9 -6 24q0 10 3 21.5t8.5 21t13 15.5t16.5 6q7 0 17 -2.5t19 -7t15 -10t6 -10.5q0 -3 -4 -13t-9.5 -21.5t-9.5 -21.5
t-4 -12zM184 675q-9 -4 -17 -10.5t-12 -6.5q-2 0 -5 3.5t-11 11.5q-7 2 -17 10t-10 25t11 30.5t31 13.5q10 0 22.5 -9t12.5 -26q0 -7 -2.5 -21t-2.5 -21z" />
    <glyph glyph-name="Igrave" unicode="&#xcc;" horiz-adv-x="283" 
d="M219 576q6 -5 6 -11q0 -11 -12 -24l-18 -19q-24 -11 -24 -59q0 -8 1 -22t2.5 -28t3 -25.5t1.5 -13.5l4 -58q-13 -62 -13 -87q0 -30 12 -60q0 1 -1 -8.5t-2.5 -22t-2.5 -26t-1 -20.5q0 -23 4 -35l19 -11q14 -8 19 -18t5 -19q0 -19 -30 -19h-20q-12 0 -18 -3q-4 1 -15.5 5
t-18.5 4q-3 0 -13.5 -5t-14.5 -5l-34 11q-6 0 -16.5 -5t-16.5 -5q-16 0 -16 15q0 14 15 27.5t29 13.5q5 0 8.5 18t6 56.5t3.5 98.5t1 145v45t-1 31q-5 8 -5.5 22.5t-2 29.5t-7 28.5t-20.5 19.5q-14 6 -19 17l3 16q48 12 97 12q30 0 40 -7q5 1 35 1h27zM208 605q-6 -3 -11 -3
q-9 0 -13 3.5t-9 9.5t-13 14.5t-24 19.5q-10 7 -23.5 19.5t-30.5 29.5l-28 19q-17 12 -17 24q0 10 6 19.5t15 16.5t20 11t20 4h13q20 -24 39 -46.5t23 -51.5l24 -27q7 -8 9 -20t3 -26q0 -12 -3 -16z" />
    <glyph glyph-name="Iacute" unicode="&#xcd;" horiz-adv-x="283" 
d="M219 576q6 -5 6 -11q0 -11 -12 -24l-18 -19q-24 -11 -24 -59q0 -8 1 -22t2.5 -28t3 -25.5t1.5 -13.5l4 -58q-13 -62 -13 -87q0 -30 12 -60q0 1 -1 -8.5t-2.5 -22t-2.5 -26t-1 -20.5q0 -23 4 -35l19 -11q14 -8 19 -18t5 -19q0 -19 -30 -19h-20q-12 0 -18 -3q-4 1 -15.5 5
t-18.5 4q-3 0 -13.5 -5t-14.5 -5l-34 11q-6 0 -16.5 -5t-16.5 -5q-16 0 -16 15q0 14 15 27.5t29 13.5q5 0 8.5 18t6 56.5t3.5 98.5t1 145v45t-1 31q-5 8 -5.5 22.5t-2 29.5t-7 28.5t-20.5 19.5q-14 6 -19 17l3 16q48 12 97 12q30 0 40 -7q5 1 35 1h27zM219 732
q-1 -7 -18 -23.5t-39.5 -33.5t-45 -30t-33.5 -13q-8 0 -12.5 5.5t-4.5 11.5q0 8 16.5 34t46.5 73q5 5 18 8t23 18l24 -1q14 -19 19.5 -30t5.5 -19z" />
    <glyph glyph-name="Icircumflex" unicode="&#xce;" horiz-adv-x="283" 
d="M219 576q6 -5 6 -11q0 -11 -12 -24l-18 -19q-24 -11 -24 -59q0 -8 1 -22t2.5 -28t3 -25.5t1.5 -13.5l4 -58q-13 -62 -13 -87q0 -30 12 -60q0 1 -1 -8.5t-2.5 -22t-2.5 -26t-1 -20.5q0 -23 4 -35l19 -11q14 -8 19 -18t5 -19q0 -19 -30 -19h-20q-12 0 -18 -3q-4 1 -15.5 5
t-18.5 4q-3 0 -13.5 -5t-14.5 -5l-34 11q-6 0 -16.5 -5t-16.5 -5q-16 0 -16 15q0 14 15 27.5t29 13.5q5 0 8.5 18t6 56.5t3.5 98.5t1 145v45t-1 31q-5 8 -5.5 22.5t-2 29.5t-7 28.5t-20.5 19.5q-14 6 -19 17l3 16q48 12 97 12q30 0 40 -7q5 1 35 1h27zM208 636q-7 0 -15 7
t-15 16.5t-11.5 20t-4.5 17.5v-1q-4 0 -6.5 10t-14.5 31q-5 3 -7 3q-4 0 -7 -5l-6 -17q-6 -5 -14 -17q0 -2 0.5 -5t0.5 -6q0 -5 -0.5 -10t-1.5 -11l-13 -17q-7 -11 -7 -19v-2q-3 -6 -7 -6q-5 0 -11.5 4.5t-16.5 4.5h-5q-18 0 -25 5.5t-9 32.5q7 12 12 22.5t11.5 24t18 32
t31.5 45.5q22 -3 29 -3q3 0 6 1t7 1q41 0 71 -58q0 -14 4.5 -27.5t10.5 -24.5t10.5 -18.5t4.5 -9.5q0 -21 -20 -21z" />
    <glyph glyph-name="Idieresis" unicode="&#xcf;" horiz-adv-x="283" 
d="M219 576q6 -5 6 -11q0 -11 -12 -24l-18 -19q-24 -11 -24 -59q0 -8 1 -22t2.5 -28t3 -25.5t1.5 -13.5l4 -58q-13 -62 -13 -87q0 -30 12 -60q0 1 -1 -8.5t-2.5 -22t-2.5 -26t-1 -20.5q0 -23 4 -35l19 -11q14 -8 19 -18t5 -19q0 -19 -30 -19h-20q-12 0 -18 -3q-4 1 -15.5 5
t-18.5 4q-3 0 -13.5 -5t-14.5 -5l-34 11q-6 0 -16.5 -5t-16.5 -5q-16 0 -16 15q0 14 15 27.5t29 13.5q5 0 8.5 18t6 56.5t3.5 98.5t1 145v45t-1 31q-5 8 -5.5 22.5t-2 29.5t-7 28.5t-20.5 19.5q-14 6 -19 17l3 16q48 12 97 12q30 0 40 -7q5 1 35 1h27zM216 651
q-8 -3 -16.5 -10t-11.5 -7q-1 0 -37 27q-6 9 -6 24q0 10 3 21.5t8.5 21t13 15.5t16.5 6q7 0 17 -2.5t19 -7t15 -9.5t6 -10q0 -3 -4 -13.5t-9.5 -22t-9.5 -21t-4 -12.5zM95 675q-8 -4 -16.5 -10.5t-11.5 -6.5q-1 0 -37 27q-7 10 -7 23q0 17 11 30.5t31 13.5q10 0 22.5 -8.5
t12.5 -26.5q0 -7 -2.5 -21t-2.5 -21z" />
    <glyph glyph-name="Eth" unicode="&#xd0;" horiz-adv-x="600" 
d="M457 187q-4 -4 -4 -12q0 -10 6 -10q13 0 13 11t-12 11h-3zM202 376q4 1 13 1q12 0 24.5 -4t23 -10.5t17 -14.5t6.5 -17q0 -4 -4 -10.5t-11.5 -13t-19 -11.5t-26.5 -5q-11 0 -27 4l-22 4q-9 -5 -31 -9q-2 -6 -2 -12.5v-14.5v-16.5t2 -18.5q0 -5 -1.5 -18t-3 -28t-2.5 -29
t-1 -20q0 -60 41 -80q9 -4 21 -16q4 2 10 2q5 0 9 -0.5t9 -0.5q6 0 8 1l10 -3q98 35 114 47q20 16 32 44.5t30 76.5q4 8 4 14t-4 10q0 3 3 18t3 23t-3 11v24q0 162 -97 194q-2 2 -10 8.5t-18.5 13.5t-20.5 12.5t-16 5.5q-10 0 -16.5 -1t-9.5 -1q-11 0 -20.5 2t-17.5 2
q-53 0 -53 -55q0 -35 3 -59q1 -14 3 -27q0 -3 -0.5 -6t-0.5 -5zM-15 527q-1 1 -1 5q0 15 42 40q2 2 8 2q5 0 8 -1l17 -4q7 2 22.5 4.5t32.5 2.5q3 0 8 -3q3 3 9 3q3 0 9.5 -1.5t13.5 -3.5t13.5 -3.5t9.5 -1.5q1 0 13.5 3t29 7t32.5 7t25 3q19 0 35.5 -6t26.5 -10l10 1
q177 -89 177 -270q0 -24 -5 -59t-16 -69t-30.5 -61.5t-47.5 -36.5l-7 -12q-25 -13 -46 -24q-18 -9 -35 -17t-22 -8q-27 -2 -57 -7t-62 -13h-3q-5 0 -18 2.5t-27 5t-26 5t-14 2.5q-6 0 -15 -2t-18.5 -4t-18 -4t-14.5 -2q-22 0 -41 16q1 12 16 22q16 10 21 25t5 42
q-1 8 -1 15.5v12.5q0 13 1 16l3 13q-4 15 -4 31q0 7 0.5 12.5t1.5 14t1.5 20t0.5 30.5q-1 11 -8.5 17t-16.5 9t-16 4t-7 2l-7 22q-3 7 -3 14q0 20 8 30.5t22 10.5h5l26 14q-2 25 -4.5 49t-6.5 42t-11.5 29t-19.5 11q-4 0 -12 -2z" />
    <glyph glyph-name="Ntilde" unicode="&#xd1;" horiz-adv-x="639" 
d="M527 -16q-11 3 -27 8.5t-37 13.5q-4 4 -9 14t-10.5 20.5t-10.5 19.5t-8 13q-16 20 -31.5 36.5t-28.5 29.5l-22.5 22.5t-12.5 16.5q-4 15 -8 21q-2 3 -7 5t-10.5 4.5t-10 5t-4.5 5.5l-36 65q-11 2 -34 17q-5 40 -19.5 64t-38.5 24q-14 0 -14 -21q0 -37 1 -37v1
q-3 -10 -3.5 -50t-0.5 -109q0 -74 4 -81q5 -11 21.5 -20.5t34 -18.5t31.5 -17t14 -16q0 -7 -5.5 -15t-13.5 -14.5t-17 -11t-16 -4.5q-4 0 -6 1l-22 20q-8 -4 -13 -6t-8 -2q-5 0 -9.5 1.5t-9.5 3.5q-8 -5 -17 -5q-4 0 -5 1q-29 16 -31 16q-7 0 -20.5 -6.5t-23.5 -6.5
q-27 0 -27 28q0 14 8 23.5t36 20.5q35 14 35 43q0 8 -3 21.5t-3 20.5q0 8 3 26t3 26q0 9 -5.5 26.5t-5.5 28.5q0 22 16 53q1 19 1.5 36.5t0.5 33.5q0 103 -23 131q-3 0 -12.5 4t-20 8t-20.5 7.5t-16 3.5l16 33q5 9 20 10h66q70 0 105 -84q49 -34 104 -127l60 -54
q1 -2 13.5 -21.5t28.5 -42.5t31.5 -42t23.5 -19q19 0 19 56q0 7 -0.5 16t-0.5 17q-1 10 -1 19q5 17 5 65q0 97 -9 139t-33 42q-5 0 -25 -5l-25 8q-16 7 -16 18q0 17 11 23.5t14 6.5q39 -5 118 -9q8 4 32 4q49 0 49 -17q0 -2 -8 -8.5t-18.5 -14.5t-20 -16.5t-11.5 -15.5
q-1 -1 -9 -221q-6 -183 -6 -226q0 -8 5.5 -25.5t5.5 -32.5q0 -16 -17 -25zM429 753q0 -1 0.5 -3t0.5 -6q0 -5 -0.5 -10t-0.5 -13l-5 -41q-3 -12 -12 -18.5t-19.5 -10.5t-20.5 -5t-14 -1q-29 0 -33 12l-26 34q-8 10 -17.5 13.5t-18.5 4.5q-49 0 -58 -62h-10q-13 0 -20.5 2.5
t-7.5 14.5q0 8 4.5 19t12 23t17 23.5t18.5 19.5q5 2 18 7t27 5q10 0 24 -3q1 0 3 -5t7 -5q2 0 5 1.5t5 1.5q9 0 43 -25q4 -4 10 -4q1 0 9 5t18 11t20.5 11t17.5 5q2 0 3 -1z" />
    <glyph glyph-name="Ograve" unicode="&#xd2;" horiz-adv-x="636" 
d="M495 292l-2 54t-5 50.5t-12 42t-22 29.5q-47 81 -114 81q-12 0 -27 -5q-12 5 -34 8q-7 0 -27.5 -6t-56.5 -16q-42 -26 -68.5 -64t-26.5 -76v-11q0 -3 -3 -17.5t-7 -30.5l-7 -28l-3 -12q0 -38 12 -81t38 -69q8 -44 76 -67q19 -27 55 -27q6 0 15.5 2t18.5 4t16.5 4t9.5 2h1
q18 -6 30 -8.5t20 -2.5h4l20 15q7 4 26 7q25 21 39 35t22 28.5t11.5 31t6.5 42.5q2 13 6 26t3 19q0 13 -15 40zM68 198q5 3 5 9q0 10 -7 10q-12 0 -12 -8q0 -11 11 -11h3zM385 605q4 -3 12.5 -5.5t18 -5t17.5 -5.5t13 -6l21 -23q12 -5 25 -15t24 -20.5t18.5 -19t8.5 -8.5
q13 -17 19 -34t8.5 -31.5t4 -25.5t5.5 -15q4 -5 8.5 -9t8.5 -10t6.5 -16t2.5 -27q0 -18 -3 -43.5t-8 -50t-10.5 -44.5t-10.5 -28q2 -10 2 -17q0 -26 -20.5 -52t-52 -48.5t-68 -38t-68.5 -19.5q-8 -1 -15 -9t-10 -8q-2 0 -7.5 3t-11.5 6.5t-11 6.5t-6 3q-5 1 -19 1
q-13 0 -32 -2t-29 -2q-5 0 -8 0.5t-5 0.5l-23 16q-5 0 -21 -9q-7 0 -20 8.5t-28.5 21t-32 27.5t-29.5 28.5t-21.5 23.5t-8.5 13t1.5 11t1.5 12q0 14 -16 24l-3 35q-2 10 -5 15.5t-6 10.5t-5.5 13t-2.5 24q0 20 2.5 47.5t7.5 65.5q1 9 10 21.5t11 18.5q0 6 1.5 15t3.5 22
q5 5 8.5 10t7 12t9.5 18t17 29q105 91 164 91q7 0 22.5 -3t32.5 -6t32 -6t21 -3q19 0 31 9q-9 0 -13.5 3t-9 9t-12.5 14.5t-24 19.5q-20 13 -55 49l-27 19q-17 12 -17 24q0 10 6 19.5t15 16.5t20 11t20 4h12q21 -24 40.5 -47.5t22.5 -50.5l24 -27q7 -8 9 -20t3 -26
q0 -15 -4 -16z" />
    <glyph glyph-name="Oacute" unicode="&#xd3;" horiz-adv-x="636" 
d="M574 163q2 -10 2 -17q0 -26 -20.5 -52t-52 -48.5t-68 -38t-68.5 -19.5q-8 -1 -15 -9t-10 -8q-2 0 -7.5 3t-11.5 6.5t-11 6.5t-6 3q-5 1 -19 1q-13 0 -32 -2t-29 -2q-5 0 -8 0.5t-5 0.5l-23 16q-5 0 -21 -9q-7 0 -20 8.5t-28.5 21t-32 27.5t-29.5 28.5t-21.5 23.5t-8.5 13
t1.5 11t1.5 12q0 14 -16 24l-3 35q-2 10 -5 15.5t-6 10.5t-5.5 13t-2.5 24q0 20 2.5 47.5t7.5 65.5q1 9 10 21.5t11 18.5q0 6 1.5 15t3.5 22q5 5 8.5 10t7 12t9.5 18t17 29q105 91 164 91q7 0 22.5 -3t32.5 -6t32 -6t21 -3q20 0 34 11h6q4 -3 12.5 -5.5t18 -5t18 -5.5
t13.5 -6l21 -23q12 -5 25 -15t24 -20.5t18.5 -19t8.5 -8.5q13 -17 19 -34t8.5 -31.5t4 -25.5t5.5 -15q4 -5 8.5 -9t8.5 -10t6.5 -16t2.5 -27q0 -18 -3 -43.5t-8 -50t-10.5 -44.5t-10.5 -28zM495 292l-2 54t-5 50.5t-12 42t-22 29.5q-47 81 -114 81q-12 0 -27 -5q-12 5 -34 8
q-7 0 -27.5 -6t-56.5 -16q-42 -26 -68.5 -64t-26.5 -76v-11q0 -3 -3 -17.5t-7 -30.5l-7 -28l-3 -12q0 -38 12 -81t38 -69q8 -44 76 -67q19 -27 55 -27q6 0 15.5 2t18.5 4t16.5 4t9.5 2h1q18 -6 30 -8.5t20 -2.5h4l20 15q7 4 26 7q25 21 39 35t22 28.5t11.5 31t6.5 42.5
q2 13 6 26t3 19q0 13 -15 40zM68 198q5 3 5 9q0 10 -7 10q-12 0 -12 -8q0 -11 11 -11h3zM364 732q-1 -7 -18 -23.5t-39.5 -33.5t-45 -30t-34.5 -13q-8 0 -12.5 5.5t-4.5 11.5q0 8 17 34.5t46 72.5q2 2 7 3.5t11 3.5t12 6.5t11 12.5l25 -1q13 -19 19 -30t6 -19z" />
    <glyph glyph-name="Ocircumflex" unicode="&#xd4;" horiz-adv-x="636" 
d="M574 163q2 -10 2 -17q0 -26 -20.5 -52t-52 -48.5t-68 -38t-68.5 -19.5q-8 -1 -15 -9t-10 -8q-2 0 -7.5 3t-11.5 6.5t-11 6.5t-6 3q-5 1 -19 1q-13 0 -32 -2t-29 -2q-5 0 -8 0.5t-5 0.5l-23 16q-5 0 -21 -9q-7 0 -20 8.5t-28.5 21t-32 27.5t-29.5 28.5t-21.5 23.5t-8.5 13
t1.5 11t1.5 12q0 14 -16 24l-3 35q-2 10 -5 15.5t-6 10.5t-5.5 13t-2.5 24q0 20 2.5 47.5t7.5 65.5q1 9 10 21.5t11 18.5q0 6 1.5 15t3.5 22q5 5 8.5 10t7 12t9.5 18t17 29q105 91 164 91q7 0 22.5 -3t32.5 -6t32 -6t21 -3q20 0 34 11h6q4 -3 12.5 -5.5t18 -5t18 -5.5
t13.5 -6l21 -23q12 -5 25 -15t24 -20.5t18.5 -19t8.5 -8.5q13 -17 19 -34t8.5 -31.5t4 -25.5t5.5 -15q4 -5 8.5 -9t8.5 -10t6.5 -16t2.5 -27q0 -18 -3 -43.5t-8 -50t-10.5 -44.5t-10.5 -28zM495 292l-2 54t-5 50.5t-12 42t-22 29.5q-47 81 -114 81q-12 0 -27 -5q-12 5 -34 8
q-7 0 -27.5 -6t-56.5 -16q-42 -26 -68.5 -64t-26.5 -76v-11q0 -3 -3 -17.5t-7 -30.5l-7 -28l-3 -12q0 -38 12 -81t38 -69q8 -44 76 -67q19 -27 55 -27q6 0 15.5 2t18.5 4t16.5 4t9.5 2h1q18 -6 30 -8.5t20 -2.5h4l20 15q7 4 26 7q25 21 39 35t22 28.5t11.5 31t6.5 42.5
q2 13 6 26t3 19q0 13 -15 40zM68 198q5 3 5 9q0 10 -7 10q-12 0 -12 -8q0 -11 11 -11h3zM408 636q-7 0 -15 7t-15 16.5t-11.5 20t-4.5 17.5v-1q-4 0 -6.5 10t-14.5 31q-5 3 -7 3q-4 0 -7 -5l-6 -17q-6 -5 -14 -17q0 -2 0.5 -5t0.5 -6q0 -5 -0.5 -10t-1.5 -11l-13 -17
q-7 -11 -7 -19v-2q-3 -6 -7 -6q-5 0 -11.5 4.5t-16.5 4.5h-5q-18 0 -25 5.5t-9 32.5q7 12 12 22.5t11.5 24t18 32t31.5 45.5q22 -3 29 -3q3 0 6 1t7 1q41 0 71 -58q0 -14 4.5 -27.5t10.5 -24.5t10.5 -18.5t4.5 -9.5q0 -21 -20 -21z" />
    <glyph glyph-name="Otilde" unicode="&#xd5;" horiz-adv-x="636" 
d="M574 163q2 -10 2 -17q0 -26 -20.5 -52t-52 -48.5t-68 -38t-68.5 -19.5q-8 -1 -15 -9t-10 -8q-2 0 -7.5 3t-11.5 6.5t-11 6.5t-6 3q-5 1 -19 1q-13 0 -32 -2t-29 -2q-5 0 -8 0.5t-5 0.5l-23 16q-5 0 -21 -9q-7 0 -20 8.5t-28.5 21t-32 27.5t-29.5 28.5t-21.5 23.5t-8.5 13
t1.5 11t1.5 12q0 14 -16 24l-3 35q-2 10 -5 15.5t-6 10.5t-5.5 13t-2.5 24q0 20 2.5 47.5t7.5 65.5q1 9 10 21.5t11 18.5q0 6 1.5 15t3.5 22q5 5 8.5 10t7 12t9.5 18t17 29q105 91 164 91q7 0 22.5 -3t32.5 -6t32 -6t21 -3q20 0 34 11h6q4 -3 12.5 -5.5t18 -5t18 -5.5
t13.5 -6l21 -23q12 -5 25 -15t24 -20.5t18.5 -19t8.5 -8.5q13 -17 19 -34t8.5 -31.5t4 -25.5t5.5 -15q4 -5 8.5 -9t8.5 -10t6.5 -16t2.5 -27q0 -18 -3 -43.5t-8 -50t-10.5 -44.5t-10.5 -28zM495 292l-2 54t-5 50.5t-12 42t-22 29.5q-47 81 -114 81q-12 0 -27 -5q-12 5 -34 8
q-7 0 -27.5 -6t-56.5 -16q-42 -26 -68.5 -64t-26.5 -76v-11q0 -3 -3 -17.5t-7 -30.5l-7 -28l-3 -12q0 -38 12 -81t38 -69q8 -44 76 -67q19 -27 55 -27q6 0 15.5 2t18.5 4t16.5 4t9.5 2h1q18 -6 30 -8.5t20 -2.5h4l20 15q7 4 26 7q25 21 39 35t22 28.5t11.5 31t6.5 42.5
q2 13 6 26t3 19q0 13 -15 40zM68 198q5 3 5 9q0 10 -7 10q-12 0 -12 -8q0 -11 11 -11h3zM429 753q0 -1 0.5 -3t0.5 -6q0 -5 -0.5 -10t-0.5 -13l-5 -41q-3 -12 -12 -18.5t-19.5 -10.5t-20.5 -5t-14 -1q-29 0 -33 12l-26 34q-8 10 -17.5 13.5t-18.5 4.5q-49 0 -58 -62h-10
q-13 0 -20.5 2.5t-7.5 14.5q0 8 4.5 19t12 23t17 23.5t18.5 19.5q5 2 18 7t27 5q10 0 24 -3q1 0 3 -5t7 -5q2 0 5 1.5t5 1.5q9 0 43 -25q4 -4 10 -4q1 0 9 5t18 11t20.5 11t17.5 5q2 0 3 -1z" />
    <glyph glyph-name="Odieresis" unicode="&#xd6;" horiz-adv-x="636" 
d="M574 163q2 -10 2 -17q0 -26 -20.5 -52t-52 -48.5t-68 -38t-68.5 -19.5q-8 -1 -15 -9t-10 -8q-2 0 -7.5 3t-11.5 6.5t-11 6.5t-6 3q-5 1 -19 1q-13 0 -32 -2t-29 -2q-5 0 -8 0.5t-5 0.5l-23 16q-5 0 -21 -9q-7 0 -20 8.5t-28.5 21t-32 27.5t-29.5 28.5t-21.5 23.5t-8.5 13
t1.5 11t1.5 12q0 14 -16 24l-3 35q-2 10 -5 15.5t-6 10.5t-5.5 13t-2.5 24q0 20 2.5 47.5t7.5 65.5q1 9 10 21.5t11 18.5q0 6 1.5 15t3.5 22q5 5 8.5 10t7 12t9.5 18t17 29q105 91 164 91q7 0 22.5 -3t32.5 -6t32 -6t21 -3q20 0 34 11h6q4 -3 12.5 -5.5t18 -5t18 -5.5
t13.5 -6l21 -23q12 -5 25 -15t24 -20.5t18.5 -19t8.5 -8.5q13 -17 19 -34t8.5 -31.5t4 -25.5t5.5 -15q4 -5 8.5 -9t8.5 -10t6.5 -16t2.5 -27q0 -18 -3 -43.5t-8 -50t-10.5 -44.5t-10.5 -28zM495 292l-2 54t-5 50.5t-12 42t-22 29.5q-47 81 -114 81q-12 0 -27 -5q-12 5 -34 8
q-7 0 -27.5 -6t-56.5 -16q-42 -26 -68.5 -64t-26.5 -76v-11q0 -3 -3 -17.5t-7 -30.5l-7 -28l-3 -12q0 -38 12 -81t38 -69q8 -44 76 -67q19 -27 55 -27q6 0 15.5 2t18.5 4t16.5 4t9.5 2h1q18 -6 30 -8.5t20 -2.5h4l20 15q7 4 26 7q25 21 39 35t22 28.5t11.5 31t6.5 42.5
q2 13 6 26t3 19q0 13 -15 40zM68 198q5 3 5 9q0 10 -7 10q-12 0 -12 -8q0 -11 11 -11h3zM395 670q-8 -4 -16.5 -10.5t-11.5 -6.5q-2 0 -9.5 5.5t-27.5 21.5q-6 9 -6 24q0 10 3 21.5t8.5 21t13 15.5t16.5 6q7 0 17 -2.5t19 -7t15 -10t6 -10.5q0 -3 -4 -13t-9.5 -21.5
t-9.5 -21.5t-4 -12zM273 675q-9 -4 -17 -10.5t-12 -6.5q-2 0 -5 3.5t-11 11.5q-7 2 -17 10t-10 25t11 30.5t31 13.5q10 0 22.5 -9t12.5 -26q0 -7 -2.5 -21t-2.5 -21z" />
    <glyph glyph-name="multiply" unicode="&#xd7;" horiz-adv-x="531" 
d="M337 62q-6 5 -20.5 20t-32 32.5l-34 34t-25.5 24.5q-7 -8 -30 -32.5t-64 -64.5q-12 -12 -26 -18t-25 -6q-8 0 -13.5 3.5t-5.5 10.5q0 9 8.5 19t25 25t40.5 37t54 55l-41 30q-44 32 -67 53t-22 32q0 4 2 6q-1 4 -1 10q0 13 9.5 14.5t16.5 1.5q11 0 27.5 -11.5t35 -28.5
t37.5 -36t34 -33q18 24 34 44.5t29.5 36.5t24.5 25t19 9q5 0 7 -2.5t10 -2.5h7t9 2q6 -12 6 -21q0 -7 -3 -11q-49 -50 -106 -112q8 -6 32 -29t66 -64q5 -5 12.5 -11t15 -11.5t13 -10.5t5.5 -8q-5 -9 -10 -15q-5 -5 -11.5 -9.5t-14.5 -4.5q-11 0 -28 17z" />
    <glyph glyph-name="Oslash" unicode="&#xd8;" horiz-adv-x="636" 
d="M606 328q0 -19 -3.5 -44t-8 -49.5t-10.5 -44t-10 -27.5q3 -9 3 -19q0 -23 -17 -46.5t-45.5 -44.5t-67 -38t-80.5 -27q-2 -2 -10 -9.5t-15 -7.5q-6 0 -16 7l-20 12q-5 1 -10 1.5t-11 0.5q-3 0 -10 -1t-16.5 -1.5t-19.5 -1.5t-17 -1q-3 0 -5 0.5t-4 0.5l-23 16q-8 0 -21 -9
q-10 1 -43 25q-5 -8 -14.5 -20t-20 -23.5t-20.5 -19.5t-14 -8q-8 0 -8 15q0 8 1 13q-26 12 -26 26q0 5 14 19t36 41q-12 11 -20.5 20t-13.5 18t-7 19t-3 24q-2 13 -14 20q-2 18 -4 36.5t-14 29.5q-3 7 -3 28q0 14 1 32t2.5 34.5t3 30.5t2.5 20q2 8 10.5 21t10.5 19
q0 6 1.5 15t3.5 22q5 5 8.5 10t7 12t9.5 18t17 29q16 16 38 32.5t44.5 29.5t43 21t34.5 8q6 0 21.5 -3t33 -6t33.5 -6t23 -3q21 0 35 11h6q21 -11 48 -15q25 27 53 27q19 0 19 -18t-21 -49q16 -9 30.5 -21.5t25 -27t17 -30t7.5 -30.5q5 -8 7 -15t3 -13t2 -11.5t5 -10.5t9 -9
t8.5 -10.5t6 -16.5t2.5 -27zM501 207q1 8 5 24t4 21q0 14 -15 40l-4 94q-8 60 -37 82l-15 22l-70 -96t-62.5 -87t-45.5 -66t-19 -34q-32 -29 -78 -114q8 -5 18.5 -10t23.5 -9q19 -27 53 -27q6 0 16 2t19.5 4t16.5 4t9 2h2q41 -11 51 -11h3l21 15q5 2 11 4t14 3
q25 21 39 35.5t21.5 28t11 30t7.5 43.5zM404 525q-32 23 -64 23q-15 0 -27 -4q-21 8 -32 8q-2 0 -24 -5.5t-62 -16.5q-33 -17 -52 -43.5t-31 -58.5t-18.5 -67.5t-13.5 -70.5l12 -79q11 -43 38 -70l1 -6q53 69 89 116t60.5 80.5t41 56t29 43t24.5 42t29 52.5zM68 198q5 3 5 9
q0 10 -7 10q-12 0 -12 -8q0 -11 11 -11h3z" />
    <glyph glyph-name="Ugrave" unicode="&#xd9;" horiz-adv-x="629" 
d="M565 547q0 -29 -23 -29h-6q-3 1 -7 1q-17 0 -29 -15t-15 -27q1 1 1 -104q0 -4 -1.5 -24.5t-3 -45.5t-3 -48t-1.5 -32v-12t1 -10l-3 -19q1 -11 6 -28t5 -24q-1 -5 -1.5 -9t-0.5 -8q0 -19 4.5 -28.5t13 -15t21 -10t28.5 -13.5q3 -6 3 -12q0 -15 -8.5 -22.5t-32.5 -17.5
q-12 -5 -18 -5q-11 0 -16.5 0.5t-6.5 0.5l-43 -4h-6q-7 0 -15.5 1t-15.5 5t-12 10.5t-5 17.5q0 5 1.5 17.5t1.5 18.5q0 22 -21 27l-57 -61q-13 -14 -27.5 -22.5t-29.5 -13.5q-6 3 -39 3h-20.5t-24.5 -1q-8 7 -19 14.5t-24 15.5q-17 0 -30.5 14t-27.5 39v4q0 4 -1.5 8.5
t-3.5 11.5t-3.5 18t-1.5 29q0 19 6 33q-4 9 -4 27q0 23 1.5 35.5t1.5 14.5q-3 40 -7 52l-7 23q1 8 1.5 17t0.5 19q0 27 -3 60q-5 12 -5 21q0 6 1.5 15.5t1.5 14.5q0 21 -14 29t-40 23q-19 10 -19 34q0 12 6 20t19 8q12 0 32 -1.5t40 -4t36.5 -4t21.5 -1.5q26 0 38 12
q4 -2 8 -2.5t9.5 -2.5t12.5 -7.5t18 -15.5q2 -4 2 -8q0 -6 -3 -12.5t-7 -11.5t-7.5 -8.5t-4.5 -3.5q-3 0 -10 5.5t-12 5.5q-3 0 -12.5 -13t-9.5 -48q0 -4 2.5 -8t6.5 -12l-2 -120l3 -43q5 -20 7 -39q0 -4 -1.5 -10t-3.5 -12l-3.5 -10.5t-1.5 -5.5q0 -10 4 -21t11 -34l-3 -31
q13 -13 22 -23.5t18 -18t19.5 -12t27.5 -4.5q14 0 22 0.5t16.5 6t21 17t35.5 32.5q14 6 21 11t10.5 13.5t4.5 22.5t4 38v28.5t-1 81.5l-5 10t-2 7q0 8 3.5 19t3.5 26q0 17 1.5 28t1.5 16q-7 57 -19 78t-26 22q-17 1 -30 13t-13 25q0 14 14 20t32 6t42.5 -6.5t47.5 -6.5
q3 0 11 0.5t19 1.5t22.5 1.5t20.5 0.5h10h-2q2 0 6 1q3 0 7.5 0.5t11.5 0.5q14 0 21 -9.5t7 -20.5zM386 605q-6 -3 -12 -3q-9 0 -13 3.5t-8.5 9.5t-12.5 14.5t-24 19.5q-20 13 -55 49l-27 19q-17 12 -17 24q0 10 6 19.5t15 16.5t20 11t20 4h12q21 -24 40.5 -47.5t22.5 -50.5
l24 -27q7 -8 9 -20t3 -26q0 -12 -3 -16z" />
    <glyph glyph-name="Uacute" unicode="&#xda;" horiz-adv-x="629" 
d="M565 547q0 -29 -23 -29h-6q-3 1 -7 1q-17 0 -29 -15t-15 -27q1 1 1 -104q0 -4 -1.5 -24.5t-3 -45.5t-3 -48t-1.5 -32v-12t1 -10l-3 -19q1 -11 6 -28t5 -24q-1 -5 -1.5 -9t-0.5 -8q0 -19 4.5 -28.5t13 -15t21 -10t28.5 -13.5q3 -6 3 -12q0 -15 -8.5 -22.5t-32.5 -17.5
q-12 -5 -18 -5q-11 0 -16.5 0.5t-6.5 0.5l-43 -4h-6q-7 0 -15.5 1t-15.5 5t-12 10.5t-5 17.5q0 5 1.5 17.5t1.5 18.5q0 22 -21 27l-57 -61q-13 -14 -27.5 -22.5t-29.5 -13.5q-6 3 -39 3h-20.5t-24.5 -1q-8 7 -19 14.5t-24 15.5q-17 0 -30.5 14t-27.5 39v4q0 4 -1.5 8.5
t-3.5 11.5t-3.5 18t-1.5 29q0 19 6 33q-4 9 -4 27q0 23 1.5 35.5t1.5 14.5q-3 40 -7 52l-7 23q1 8 1.5 17t0.5 19q0 27 -3 60q-5 12 -5 21q0 6 1.5 15.5t1.5 14.5q0 21 -14 29t-40 23q-19 10 -19 34q0 12 6 20t19 8q12 0 32 -1.5t40 -4t36.5 -4t21.5 -1.5q26 0 38 12
q4 -2 8 -2.5t9.5 -2.5t12.5 -7.5t18 -15.5q2 -4 2 -8q0 -6 -3 -12.5t-7 -11.5t-7.5 -8.5t-4.5 -3.5q-3 0 -10 5.5t-12 5.5q-3 0 -12.5 -13t-9.5 -48q0 -4 2.5 -8t6.5 -12l-2 -120l3 -43q5 -20 7 -39q0 -4 -1.5 -10t-3.5 -12l-3.5 -10.5t-1.5 -5.5q0 -10 4 -21t11 -34l-3 -31
q13 -13 22 -23.5t18 -18t19.5 -12t27.5 -4.5q14 0 22 0.5t16.5 6t21 17t35.5 32.5q14 6 21 11t10.5 13.5t4.5 22.5t4 38v28.5t-1 81.5l-5 10t-2 7q0 8 3.5 19t3.5 26q0 17 1.5 28t1.5 16q-7 57 -19 78t-26 22q-17 1 -30 13t-13 25q0 14 14 20t32 6t42.5 -6.5t47.5 -6.5
q3 0 11 0.5t19 1.5t22.5 1.5t20.5 0.5h10h-2q2 0 6 1q3 0 7.5 0.5t11.5 0.5q14 0 21 -9.5t7 -20.5zM353 732q-1 -7 -18 -23.5t-39.5 -33.5t-45 -30t-34.5 -13q-8 0 -12.5 5.5t-4.5 11.5q0 8 17 34.5t46 72.5q2 2 7 3.5t11 3.5t12 6.5t11 12.5l25 -1q13 -19 19 -30t6 -19z
" />
    <glyph glyph-name="Ucircumflex" unicode="&#xdb;" horiz-adv-x="629" 
d="M565 547q0 -29 -23 -29h-6q-3 1 -7 1q-17 0 -29 -15t-15 -27q1 1 1 -104q0 -4 -1.5 -24.5t-3 -45.5t-3 -48t-1.5 -32v-12t1 -10l-3 -19q1 -11 6 -28t5 -24q-1 -5 -1.5 -9t-0.5 -8q0 -19 4.5 -28.5t13 -15t21 -10t28.5 -13.5q3 -6 3 -12q0 -15 -8.5 -22.5t-32.5 -17.5
q-12 -5 -18 -5q-11 0 -16.5 0.5t-6.5 0.5l-43 -4h-6q-7 0 -15.5 1t-15.5 5t-12 10.5t-5 17.5q0 5 1.5 17.5t1.5 18.5q0 22 -21 27l-57 -61q-13 -14 -27.5 -22.5t-29.5 -13.5q-6 3 -39 3h-20.5t-24.5 -1q-8 7 -19 14.5t-24 15.5q-17 0 -30.5 14t-27.5 39v4q0 4 -1.5 8.5
t-3.5 11.5t-3.5 18t-1.5 29q0 19 6 33q-4 9 -4 27q0 23 1.5 35.5t1.5 14.5q-3 40 -7 52l-7 23q1 8 1.5 17t0.5 19q0 27 -3 60q-5 12 -5 21q0 6 1.5 15.5t1.5 14.5q0 21 -14 29t-40 23q-19 10 -19 34q0 12 6 20t19 8q12 0 32 -1.5t40 -4t36.5 -4t21.5 -1.5q26 0 38 12
q4 -2 8 -2.5t9.5 -2.5t12.5 -7.5t18 -15.5q2 -4 2 -8q0 -6 -3 -12.5t-7 -11.5t-7.5 -8.5t-4.5 -3.5q-3 0 -10 5.5t-12 5.5q-3 0 -12.5 -13t-9.5 -48q0 -4 2.5 -8t6.5 -12l-2 -120l3 -43q5 -20 7 -39q0 -4 -1.5 -10t-3.5 -12l-3.5 -10.5t-1.5 -5.5q0 -10 4 -21t11 -34l-3 -31
q13 -13 22 -23.5t18 -18t19.5 -12t27.5 -4.5q14 0 22 0.5t16.5 6t21 17t35.5 32.5q14 6 21 11t10.5 13.5t4.5 22.5t4 38v28.5t-1 81.5l-5 10t-2 7q0 8 3.5 19t3.5 26q0 17 1.5 28t1.5 16q-7 57 -19 78t-26 22q-17 1 -30 13t-13 25q0 14 14 20t32 6t42.5 -6.5t47.5 -6.5
q3 0 11 0.5t19 1.5t22.5 1.5t20.5 0.5h10h-2q2 0 6 1q3 0 7.5 0.5t11.5 0.5q14 0 21 -9.5t7 -20.5zM364 636q-8 0 -16 7t-14.5 16.5t-11 20t-4.5 17.5v-1q-5 0 -7.5 9.5t-14.5 31.5q-5 3 -7 3t-10 -13.5t-16 -25.5v-7q0 -9 -2 -20t-13 -22q-7 -11 -7 -19v-2q-3 -6 -7 -6
t-11 4.5t-16 4.5h-5q-18 0 -25 5.5t-9 32.5q7 12 12 22.5t11.5 24t18 32t31.5 45.5q22 -3 28 -3q3 0 6.5 1t6.5 1q41 0 71 -58q2 -18 7 -31.5t10.5 -23t9.5 -16t4 -9.5q0 -21 -20 -21z" />
    <glyph glyph-name="Udieresis" unicode="&#xdc;" horiz-adv-x="629" 
d="M565 547q0 -29 -23 -29h-6q-3 1 -7 1q-17 0 -29 -15t-15 -27q1 1 1 -104q0 -4 -1.5 -24.5t-3 -45.5t-3 -48t-1.5 -32v-12t1 -10l-3 -19q1 -11 6 -28t5 -24q-1 -5 -1.5 -9t-0.5 -8q0 -19 4.5 -28.5t13 -15t21 -10t28.5 -13.5q3 -6 3 -12q0 -15 -8.5 -22.5t-32.5 -17.5
q-12 -5 -18 -5q-11 0 -16.5 0.5t-6.5 0.5l-43 -4h-6q-7 0 -15.5 1t-15.5 5t-12 10.5t-5 17.5q0 5 1.5 17.5t1.5 18.5q0 22 -21 27l-57 -61q-13 -14 -27.5 -22.5t-29.5 -13.5q-6 3 -39 3h-20.5t-24.5 -1q-8 7 -19 14.5t-24 15.5q-17 0 -30.5 14t-27.5 39v4q0 4 -1.5 8.5
t-3.5 11.5t-3.5 18t-1.5 29q0 19 6 33q-4 9 -4 27q0 23 1.5 35.5t1.5 14.5q-3 40 -7 52l-7 23q1 8 1.5 17t0.5 19q0 27 -3 60q-5 12 -5 21q0 6 1.5 15.5t1.5 14.5q0 21 -14 29t-40 23q-19 10 -19 34q0 12 6 20t19 8q12 0 32 -1.5t40 -4t36.5 -4t21.5 -1.5q26 0 38 12
q4 -2 8 -2.5t9.5 -2.5t12.5 -7.5t18 -15.5q2 -4 2 -8q0 -6 -3 -12.5t-7 -11.5t-7.5 -8.5t-4.5 -3.5q-3 0 -10 5.5t-12 5.5q-3 0 -12.5 -13t-9.5 -48q0 -4 2.5 -8t6.5 -12l-2 -120l3 -43q5 -20 7 -39q0 -4 -1.5 -10t-3.5 -12l-3.5 -10.5t-1.5 -5.5q0 -10 4 -21t11 -34l-3 -31
q13 -13 22 -23.5t18 -18t19.5 -12t27.5 -4.5q14 0 22 0.5t16.5 6t21 17t35.5 32.5q14 6 21 11t10.5 13.5t4.5 22.5t4 38v28.5t-1 81.5l-5 10t-2 7q0 8 3.5 19t3.5 26q0 17 1.5 28t1.5 16q-7 57 -19 78t-26 22q-17 1 -30 13t-13 25q0 14 14 20t32 6t42.5 -6.5t47.5 -6.5
q3 0 11 0.5t19 1.5t22.5 1.5t20.5 0.5h10h-2q2 0 6 1q3 0 7.5 0.5t11.5 0.5q14 0 21 -9.5t7 -20.5zM373 670q-9 -4 -17 -10.5t-12 -6.5q-2 0 -5 3t-11 12q-6 1 -16 8.5t-10 27.5q0 10 3 21.5t8.5 21t13 15.5t16.5 6q7 0 17 -2.5t19 -7t15 -10t6 -10.5q0 -3 -4 -13
t-9.5 -21.5t-9.5 -21.5t-4 -12zM250 675q-8 -4 -16.5 -10.5t-11.5 -6.5q-2 0 -5 3.5t-11 11.5q-7 2 -17 10t-10 25t11 30.5t31 13.5q10 0 22.5 -9t12.5 -26q0 -7 -3 -21t-3 -21z" />
    <glyph glyph-name="Yacute" unicode="&#xdd;" horiz-adv-x="572" 
d="M329 271q0 -5 4.5 -10.5t4.5 -11.5q0 -5 -3 -11q4 0 4 -50q0 -33 -3.5 -55.5t-3.5 -31.5q0 -20 4.5 -29t12 -12.5t17.5 -3.5t21 -1l7 -6v-7q0 -48 -60 -48h-7.5t-11.5 1h-18q-20 0 -28 -4q-3 1 -7 2q-5 1 -12 1.5t-18 0.5q-14 0 -22.5 -4t-13.5 -4q-6 4 -16.5 5.5
t-30.5 10.5q-4 5 -4 11q0 28 65 45q23 5 23 36q0 10 -5 17.5t-5 12.5q0 7 2.5 22t7.5 39q0 7 -2.5 16.5t-2.5 11.5l-6 22q-3 10 -3 19q0 2 0.5 4.5t0.5 4.5l-18 30q-14 23 -32 42t-39 19q2 6 2 9q-1 8 -7 19t-21 25l-38 34q-10 10 -11 13t-4 6t-13 9t-39 23q-8 21 -8 36
q0 32 27 44q4 0 7.5 -0.5t7.5 -0.5q10 0 18 1t13 3l48 -8q13 -3 26 -3q32 0 50 3t20 3q9 0 20 -3t20.5 -8t16 -11.5t6.5 -14.5q0 -5 -11 -11t-24.5 -13t-24.5 -13.5t-11 -13.5q0 -6 4 -11l38 -37q0 -2 -0.5 -3.5t-0.5 -3.5q0 -29 37 -57q1 -19 13 -26q5 1 13 14t15.5 28
t12.5 28t5 14q1 10 15 39q12 6 12 16q0 16 -40 44q-1 5 -1.5 9.5t-0.5 8.5q0 10 6 18.5t28 8.5q6 0 15.5 -1t19 -1.5t16.5 -1.5t9 -1q19 1 41 5t33 4q8 0 16.5 -1t18.5 -3q18 -26 18 -45q0 -6 -0.5 -12t-4.5 -11t-13 -8.5t-26 -4.5q-36 -2 -50 -13t-14 -34q0 -7 1 -11
q-8 -8 -19 -21.5t-25 -30.5l-8 -20q-4 -11 -15 -16q-14 -5 -19.5 -11t-7.5 -14.5t-4.5 -21t-9.5 -28.5zM404 713q-1 -7 -18.5 -23.5t-40 -33.5t-45 -30t-33.5 -13q-8 0 -12.5 5.5t-4.5 11.5t17 35t46 72q2 2 7 3.5t11 3.5t12 6.5t11 12.5l25 -1q13 -19 19 -30t6 -19z" />
    <glyph glyph-name="Thorn" unicode="&#xde;" horiz-adv-x="477" 
d="M176 417l7 -101q-13 -62 -13 -87q0 -30 12 -60q0 -1 -0.5 -4.5l-1.5 -10.5q10 7 15.5 11.5t12.5 6.5t17.5 3t30.5 3q24 2 40 20t20 55l4 62l-6 21v5q0 35 -83 91h-3q-11 0 -25.5 -7.5t-23.5 -7.5h-3zM219 576q6 -5 6 -11q0 -11 -12 -24l-18 -19q-14 -5 -19 -21.5
t-5 -42.5l16 10q13 -5 21 -12q22 5 37 5t32 -7t32.5 -16t27.5 -16.5t18 -8.5q15 -2 22 -9.5t10.5 -18t5 -23t4.5 -25.5q3 -14 5.5 -26t2.5 -23q0 -56 -56 -118q-2 -30 -31 -30q-4 0 -8 0.5t-9 1.5q-5 -3 -9 -6.5t-12 -7.5t-22 -6.5t-39 -2.5h-20.5t-22.5 1q-1 -8 -1.5 -15.5
t-0.5 -13.5q0 -21 5 -34l19 -11q14 -8 19 -18t5 -19q0 -19 -30 -19h-20q-12 0 -18 -3q-4 1 -15.5 5t-18.5 4q-3 0 -13.5 -5t-14.5 -5l-34 11q-6 0 -16.5 -5t-16.5 -5q-16 0 -16 15q0 14 15 27.5t29 13.5q5 0 8.5 18t6 56.5t3.5 98.5t1 145v45t-1 31q-5 8 -5.5 22.5t-2 29.5
t-7 28.5t-20.5 19.5q-14 6 -19 17l3 16q48 12 97 12q30 0 40 -7q5 1 35 1h27z" />
    <glyph glyph-name="germandbls" unicode="&#xdf;" horiz-adv-x="442" 
d="M333 524q18 -14 18 -33q0 -3 -0.5 -6t-0.5 -6q0 -13 4 -21q-1 -3 -2 -7t-2 -8.5t-3 -11.5q0 -10 0.5 -18.5t-1.5 -18t-9 -22.5t-22 -33q-15 -21 -15 -37q0 -2 7 -6.5t16 -10.5t17.5 -12t10.5 -12q4 -10 13.5 -18t13.5 -14q-1 0 -1 -3q0 -5 2.5 -12l5 -14t5 -11t2.5 -3
q4 -11 4 -34q0 -13 -1 -22t-5 -16t-12 -14.5t-23 -17.5q-2 -10 -6 -22l-53 -42q-3 -10 -10 -14.5t-15 -6t-17 -1t-17 0.5q-26 2 -41.5 11t-15.5 38q0 12 4 20.5t10.5 14.5t14.5 11t16 12q1 0 8 -5t15 -11.5t15 -11.5l7 -5q15 3 24.5 15t15 26.5t8 27t2.5 16.5q0 9 -4.5 29.5
t-15 41.5t-27 37.5t-40.5 16.5q-12 -2 -25 -10t-16 -8q-2 0 -11 9t-9 25q0 10 7.5 18t33.5 12q12 1 12 10v2q24 28 31.5 53.5t7.5 51.5q0 27 -10.5 47t-24 33.5t-26.5 20.5t-18 7q-9 0 -17.5 -8.5t-15 -21.5t-10.5 -29t-4 -31v-5l-6 -10q-4 -32 -6 -49t-2 -20q0 -21 6 -37
q-2 -9 -5 -48.5t-3 -98.5q0 -37 3 -47q-9 -47 -9 -57q0 -27 25 -52q0 -2 0.5 -4t0.5 -4q0 -14 -7.5 -22t-19.5 -8h-4l-9 -8h-4q-14 0 -30.5 2.5t-30.5 5.5t-24 6t-10 5q0 6 4.5 13t10.5 16t10.5 19.5t4.5 22.5q0 5 -2.5 21.5t-2.5 29.5q0 8 1 11q5 37 7.5 61.5t2.5 37.5
q0 16 -1 24.5t-4 14.5t-8.5 11t-14.5 14q-3 4 -3 11q0 4 5.5 14.5t11.5 22.5t11.5 24t5.5 19q0 5 -1 8.5t-1 8.5q0 13 7.5 35.5t18.5 45t23 40.5t21 23l44 24q27 15 53 15q55 0 126 -74z" />
    <glyph glyph-name="agrave" unicode="&#xe0;" 
d="M295 52q9 -11 9 -19q0 -24 -46 -28q-5 -1 -21 -4.5t-25 -3.5q-10 0 -14.5 3.5t-7 10t-5 15t-8.5 18.5q-1 1 -4 1t-6 -3.5t-6.5 -7.5t-6.5 -7.5t-4 -3.5q-21 -7 -34 -15.5t-26 -11.5q-1 0 -5 1.5t-7 1.5q-4 0 -8 -1.5t-8 -1.5q-8 0 -19 4.5t-21.5 14t-17.5 23.5t-7 33
q0 15 5.5 36t21.5 32l18 6q3 2 9.5 10t3.5 8q1 0 19 11.5t47 28.5l34 8q8 2 20 9.5t12 15.5q0 3 -3 12q-9 30 -9 42q0 2 0.5 4.5t0.5 4.5q0 7 -4.5 13.5t-11 11.5t-13.5 8t-11 3q-5 0 -8 -3t-8 -13l-10 -18q-11 -11 -11 -22q0 -5 3 -14.5t3 -14.5q0 -6 -6.5 -10.5t-15 -6.5
t-15.5 -3t-8 -1q-8 0 -16 2t-15 8t-11 17.5t-4 30.5q0 21 7.5 34.5t33.5 30.5q23 16 37 19q7 -2 14 -5t14 -3q11 0 23.5 4.5t26.5 4.5q55 0 86 -34q2 -7 6 -16.5t11 -22.5q1 -23 1 -38.5v-24.5v-10v-52q0 -12 -2.5 -31.5t-2.5 -27.5q0 -31 26 -63zM183 164q-3 6 -20 6
q-10 -1 -24 -8t-26.5 -17.5t-21.5 -22t-9 -20.5q0 -8 12.5 -18.5t36.5 -10.5t40.5 21.5t16.5 47.5q0 10 -5 22zM250 399q-6 -3 -11 -3q-9 0 -13 3.5t-8.5 9.5t-12.5 14.5t-25 19.5q-10 6 -23.5 19t-30.5 30l-27 19q-18 12 -18 24q0 10 6 19.5t15 16.5t20 11t20 4h13
q20 -24 39 -46.5t23 -51.5q9 -9 23 -26.5t14 -46.5q0 -12 -4 -16z" />
    <glyph glyph-name="aacute" unicode="&#xe1;" 
d="M295 52q9 -11 9 -19q0 -24 -46 -28q-5 -1 -21 -4.5t-25 -3.5q-10 0 -14.5 3.5t-7 10t-5 15t-8.5 18.5q-1 1 -4 1t-6 -3.5t-6.5 -7.5t-6.5 -7.5t-4 -3.5q-21 -7 -34 -15.5t-26 -11.5q-1 0 -5 1.5t-7 1.5q-4 0 -8 -1.5t-8 -1.5q-8 0 -19 4.5t-21.5 14t-17.5 23.5t-7 33
q0 15 5.5 36t21.5 32l18 6q3 2 9.5 10t3.5 8q1 0 19 11.5t47 28.5l34 8q8 2 20 9.5t12 15.5q0 3 -3 12q-9 30 -9 42q0 2 0.5 4.5t0.5 4.5q0 7 -4.5 13.5t-11 11.5t-13.5 8t-11 3q-5 0 -8 -3t-8 -13l-10 -18q-11 -11 -11 -22q0 -5 3 -14.5t3 -14.5q0 -6 -6.5 -10.5t-15 -6.5
t-15.5 -3t-8 -1q-8 0 -16 2t-15 8t-11 17.5t-4 30.5q0 21 7.5 34.5t33.5 30.5q23 16 37 19q7 -2 14 -5t14 -3q11 0 23.5 4.5t26.5 4.5q55 0 86 -34q2 -7 6 -16.5t11 -22.5q1 -23 1 -38.5v-24.5v-10v-52q0 -12 -2.5 -31.5t-2.5 -27.5q0 -31 26 -63zM183 164q-3 6 -20 6
q-10 -1 -24 -8t-26.5 -17.5t-21.5 -22t-9 -20.5q0 -8 12.5 -18.5t36.5 -10.5t40.5 21.5t16.5 47.5q0 10 -5 22zM262 522q0 -6 -17.5 -22.5t-40.5 -33.5t-45.5 -30.5t-33.5 -13.5q-8 0 -12.5 6.5t-4.5 11.5q0 10 17 33.5t46 73.5q6 5 19 8t22 18l25 -1q14 -19 19.5 -31
t5.5 -19z" />
    <glyph glyph-name="acircumflex" unicode="&#xe2;" 
d="M295 52q9 -11 9 -19q0 -24 -46 -28q-5 -1 -21 -4.5t-25 -3.5q-10 0 -14.5 3.5t-7 10t-5 15t-8.5 18.5q-1 1 -4 1t-6 -3.5t-6.5 -7.5t-6.5 -7.5t-4 -3.5q-21 -7 -34 -15.5t-26 -11.5q-1 0 -5 1.5t-7 1.5q-4 0 -8 -1.5t-8 -1.5q-8 0 -19 4.5t-21.5 14t-17.5 23.5t-7 33
q0 15 5.5 36t21.5 32l18 6q3 2 9.5 10t3.5 8q1 0 19 11.5t47 28.5l34 8q8 2 20 9.5t12 15.5q0 3 -3 12q-9 30 -9 42q0 2 0.5 4.5t0.5 4.5q0 7 -4.5 13.5t-11 11.5t-13.5 8t-11 3q-5 0 -8 -3t-8 -13l-10 -18q-11 -11 -11 -22q0 -5 3 -14.5t3 -14.5q0 -6 -6.5 -10.5t-15 -6.5
t-15.5 -3t-8 -1q-8 0 -16 2t-15 8t-11 17.5t-4 30.5q0 21 7.5 34.5t33.5 30.5q23 16 37 19q7 -2 14 -5t14 -3q11 0 23.5 4.5t26.5 4.5q55 0 86 -34q2 -7 6 -16.5t11 -22.5q1 -23 1 -38.5v-24.5v-10v-52q0 -12 -2.5 -31.5t-2.5 -27.5q0 -31 26 -63zM183 164q-3 6 -20 6
q-10 -1 -24 -8t-26.5 -17.5t-21.5 -22t-9 -20.5q0 -8 12.5 -18.5t36.5 -10.5t40.5 21.5t16.5 47.5q0 10 -5 22zM250 402q-7 0 -15 7t-15 16.5t-11.5 20t-4.5 17.5v-1q-4 0 -6.5 9.5t-14.5 31.5q-5 3 -7 3q-4 0 -7 -5l-6 -17q-4 -3 -13 -17v-7q0 -5 -0.5 -11t-1.5 -14
l-13 -17q-7 -11 -7 -18v-2q-4 -7 -7 -7q-4 0 -10.5 4.5t-16.5 4.5h-5q-19 0 -26 5.5t-9 32.5q7 12 12 22.5t11.5 23.5t18 31.5t31.5 47.5q12 -2 19 -3t10 -1t6.5 1t6.5 1q41 0 71 -58q0 -13 4.5 -26.5t10.5 -25t10.5 -19.5t4.5 -9q0 -21 -20 -21z" />
    <glyph glyph-name="atilde" unicode="&#xe3;" 
d="M295 52q9 -11 9 -19q0 -24 -46 -28q-5 -1 -21 -4.5t-25 -3.5q-10 0 -14.5 3.5t-7 10t-5 15t-8.5 18.5q-1 1 -4 1t-6 -3.5t-6.5 -7.5t-6.5 -7.5t-4 -3.5q-21 -7 -34 -15.5t-26 -11.5q-1 0 -5 1.5t-7 1.5q-4 0 -8 -1.5t-8 -1.5q-8 0 -19 4.5t-21.5 14t-17.5 23.5t-7 33
q0 15 5.5 36t21.5 32l18 6q3 2 9.5 10t3.5 8q1 0 19 11.5t47 28.5l34 8q8 2 20 9.5t12 15.5q0 3 -3 12q-9 30 -9 42q0 2 0.5 4.5t0.5 4.5q0 7 -4.5 13.5t-11 11.5t-13.5 8t-11 3q-5 0 -8 -3t-8 -13l-10 -18q-11 -11 -11 -22q0 -5 3 -14.5t3 -14.5q0 -6 -6.5 -10.5t-15 -6.5
t-15.5 -3t-8 -1q-8 0 -16 2t-15 8t-11 17.5t-4 30.5q0 21 7.5 34.5t33.5 30.5q23 16 37 19q7 -2 14 -5t14 -3q11 0 23.5 4.5t26.5 4.5q55 0 86 -34q2 -7 6 -16.5t11 -22.5q1 -23 1 -38.5v-24.5v-10v-52q0 -12 -2.5 -31.5t-2.5 -27.5q0 -31 26 -63zM183 164q-3 6 -20 6
q-10 -1 -24 -8t-26.5 -17.5t-21.5 -22t-9 -20.5q0 -8 12.5 -18.5t36.5 -10.5t40.5 21.5t16.5 47.5q0 10 -5 22zM315 522q0 -1 0.5 -2.5t0.5 -3.5q0 -5 -0.5 -11t-1.5 -15l-4 -41q-3 -12 -12 -18.5t-19.5 -10.5t-20 -5t-13.5 -1q-30 0 -34 13l-26 33q-8 10 -17.5 13.5
t-18.5 4.5q-49 0 -58 -61q-4 -1 -12 -1q-11 0 -18.5 3t-7.5 14q0 8 4.5 19t12 23t17 23.5t18.5 19.5q5 2 19.5 7t28.5 5q8 0 12.5 -2t7.5 -4.5t5 -4.5t6 -2q2 0 5 1.5t5 1.5q10 0 43 -24q4 -4 10 -4q9 0 22 11l18 10q17 10 25 10q2 0 3 -1z" />
    <glyph glyph-name="adieresis" unicode="&#xe4;" 
d="M295 52q9 -11 9 -19q0 -24 -46 -28q-5 -1 -21 -4.5t-25 -3.5q-10 0 -14.5 3.5t-7 10t-5 15t-8.5 18.5q-1 1 -4 1t-6 -3.5t-6.5 -7.5t-6.5 -7.5t-4 -3.5q-21 -7 -34 -15.5t-26 -11.5q-1 0 -5 1.5t-7 1.5q-4 0 -8 -1.5t-8 -1.5q-8 0 -19 4.5t-21.5 14t-17.5 23.5t-7 33
q0 15 5.5 36t21.5 32l18 6q3 2 9.5 10t3.5 8q1 0 19 11.5t47 28.5l34 8q8 2 20 9.5t12 15.5q0 3 -3 12q-9 30 -9 42q0 2 0.5 4.5t0.5 4.5q0 7 -4.5 13.5t-11 11.5t-13.5 8t-11 3q-5 0 -8 -3t-8 -13l-10 -18q-11 -11 -11 -22q0 -5 3 -14.5t3 -14.5q0 -6 -6.5 -10.5t-15 -6.5
t-15.5 -3t-8 -1q-8 0 -16 2t-15 8t-11 17.5t-4 30.5q0 21 7.5 34.5t33.5 30.5q23 16 37 19q7 -2 14 -5t14 -3q11 0 23.5 4.5t26.5 4.5q55 0 86 -34q2 -7 6 -16.5t11 -22.5q1 -23 1 -38.5v-24.5v-10v-52q0 -12 -2.5 -31.5t-2.5 -27.5q0 -31 26 -63zM183 164q-3 6 -20 6
q-10 -1 -24 -8t-26.5 -17.5t-21.5 -22t-9 -20.5q0 -8 12.5 -18.5t36.5 -10.5t40.5 21.5t16.5 47.5q0 10 -5 22zM240 439q-9 -4 -17.5 -10.5t-11.5 -6.5q-2 0 -5 3t-11 12q-6 1 -16 8.5t-10 27.5q0 23 12 43.5t28 20.5q8 0 18 -2.5t19 -7t15 -10t6 -10.5q0 -3 -4 -12.5
t-9.5 -21t-9.5 -21t-4 -12.5v-1zM143 438q-8 -4 -16.5 -10.5t-11.5 -6.5t-5 1l-12 14q-5 1 -15.5 9t-10.5 25t11 30.5t31 13.5q10 0 22.5 -9t12.5 -26q0 -6 -3 -20.5t-3 -20.5z" />
    <glyph glyph-name="aring" unicode="&#xe5;" 
d="M295 52q9 -11 9 -19q0 -24 -46 -28q-5 -1 -21 -4.5t-25 -3.5q-10 0 -14.5 3.5t-7 10t-5 15t-8.5 18.5q-1 1 -4 1t-6 -3.5t-6.5 -7.5t-6.5 -7.5t-4 -3.5q-21 -7 -34 -15.5t-26 -11.5q-1 0 -5 1.5t-7 1.5q-4 0 -8 -1.5t-8 -1.5q-8 0 -19 4.5t-21.5 14t-17.5 23.5t-7 33
q0 15 5.5 36t21.5 32l18 6q3 2 9.5 10t3.5 8q1 0 19 11.5t47 28.5l34 8q8 2 20 9.5t12 15.5q0 3 -3 12q-9 30 -9 42q0 2 0.5 4.5t0.5 4.5q0 7 -4.5 13.5t-11 11.5t-13.5 8t-11 3q-5 0 -8 -3t-8 -13l-10 -18q-11 -11 -11 -22q0 -5 3 -14.5t3 -14.5q0 -6 -6.5 -10.5t-15 -6.5
t-15.5 -3t-8 -1q-8 0 -16 2t-15 8t-11 17.5t-4 30.5q0 21 7.5 34.5t33.5 30.5q23 16 37 19q7 -2 14 -5t14 -3q11 0 23.5 4.5t26.5 4.5q55 0 86 -34q2 -7 6 -16.5t11 -22.5q1 -23 1 -38.5v-24.5v-10v-52q0 -12 -2.5 -31.5t-2.5 -27.5q0 -31 26 -63zM183 164q-3 6 -20 6
q-10 -1 -24 -8t-26.5 -17.5t-21.5 -22t-9 -20.5q0 -8 12.5 -18.5t36.5 -10.5t40.5 21.5t16.5 47.5q0 10 -5 22zM91 514q5 5 9 13.5t8.5 17.5t11 16t16.5 10l21 4q7 4 17 9t24 10q20 -11 41 -23.5t43 -28.5q-1 -5 -1 -17v-10.5t1 -11.5q1 -4 9 -16t8 -21q0 -16 -9 -28
t-24 -20t-34 -12t-38 -4q-46 0 -78.5 21.5t-32.5 56.5q0 15 8 34zM188 528q-8 -3 -22 -3q-2 0 -4.5 0.5t-5.5 0.5q-19 -7 -19 -32q0 -5 2 -12t8.5 -13.5t19.5 -11t34 -4.5q5 0 17 10t12 30q0 29 -42 35z" />
    <glyph glyph-name="ae" unicode="&#xe6;" horiz-adv-x="495" 
d="M395 22q-16 -14 -30.5 -21t-27 -10t-24 -3h-22.5h-25t-20 3.5t-17 12.5t-15 27q-12 30 -21 30q-4 0 -8 -3l-42 -41q-22 -20 -70 -20q-9 0 -20.5 5.5t-21.5 14t-18 18.5t-9 19q-3 13 -3 29q0 12 2 24t5 24q16 8 30 18t26.5 19t23.5 15t22 6q2 0 7.5 -0.5t11 -1.5t9.5 -3.5
t4 -5.5q0 -10 -12 -17.5t-26 -15.5t-26 -16.5t-12 -19.5q0 -14 18.5 -23.5t39.5 -9.5q49 0 49 42q0 6 -3.5 18.5t-7.5 24.5t-7.5 21.5l-3.5 9.5l4 2t8.5 6t8.5 8t4 7q0 6 -5.5 14t-5.5 13q-2 34 -6 56t-11.5 34.5t-19 17t-27.5 4.5l-14 -18q-20 -11 -21 -37l-2 -46
q-20 -14 -39 -14q-20 0 -32 18l12 56q10 27 27 43t33.5 24t28.5 10.5t13 2.5h3q14 0 34 -11q10 6 22 6q17 0 31 -12q12 -1 19 -5.5t11.5 -9.5t8.5 -9t11 -4q4 0 11 4.5t15 10t15 10t12 4.5h2q15 12 34 12q24 0 77 -31q27 -35 27 -68q0 -19 -15.5 -40t-55.5 -25
q-60 -6 -77 -19q-5 4 -11 4q-25 0 -25 -39q0 -12 5 -20q-1 -4 -1 -13q0 -14 6.5 -27t18 -23.5t26 -17t29.5 -6.5q51 0 82 58q27 -2 27 -33q0 -13 -6 -23zM335 330q-2 0 -4 0.5t-4 0.5q-12 0 -23.5 -6.5t-20.5 -16.5t-14.5 -22.5t-6.5 -23.5l9 -10q5 0 11.5 0.5t16.5 1.5
q2 -1 8 -1q9 0 19.5 3t19.5 8t15 11.5t6 14.5q0 19 -32 40z" />
    <glyph glyph-name="ccedilla" unicode="&#xe7;" horiz-adv-x="368" 
d="M160 -197q-10 -2 -23 -6t-30 -9q-27 0 -61 7q-36 24 -36 44q0 16 10 31t18 15q4 0 12 -7t16 -15t15.5 -15t11.5 -7q8 0 19.5 17.5t11.5 59.5q0 12 0.5 20t3 14.5t7.5 13.5t14 17l-65 27q-39 16 -47 45q-20 18 -25.5 31t-5.5 38v11q-4 10 -12 22v21.5t1.5 12.5t5.5 15
l12 27q2 6 2 13q0 5 -0.5 10.5t-0.5 10.5q0 17 15.5 37t38.5 37t50.5 28t51.5 11q31 0 47 -19q10 2 15 2q14 0 32 -13l29 -22q13 -27 13 -51q0 -33 -27 -46q-4 2 -49 56q-38 45 -54 45q-14 0 -31 -14.5t-31.5 -35t-24 -43t-9.5 -39.5q0 -23 11 -47l14 -38q6 -17 17.5 -27.5
t24 -16t24.5 -7.5t20 -2q12 0 25.5 6t25 12.5t20.5 12.5t12 6q9 0 17 -10.5t8 -20.5q0 -18 -20 -33.5t-41 -19.5q-7 -2 -15 -11l-12 -16q-5 -5 -18 -6l-3 -19q0 -4 -2.5 -10t-6 -12t-6 -11t-2.5 -7q0 -6 2.5 -16t5 -20.5t5 -19.5t2.5 -12q0 -13 -9.5 -26t-18.5 -26z" />
    <glyph glyph-name="egrave" unicode="&#xe8;" horiz-adv-x="335" 
d="M277 109q-2 -17 -6 -30t-10 -23.5t-12.5 -20t-13.5 -21.5q-43 -16 -87 -23q-64 17 -89 33q-7 4 -14.5 17.5t-13.5 18.5q-5 5 -7.5 18t-5.5 17q-20 38 -20 73q0 12 4 31.5t9 40t9.5 37.5t5.5 23l58 51q17 14 33 21t30 7q25 0 53 -20q13 -1 19 -1t11.5 -2.5t14 -10
t26.5 -22.5q12 -29 12 -49q0 -50 -76 -50q-8 0 -23 1t-31 2.5t-29.5 3t-17.5 1.5q-35 0 -35 -29q0 -9 16 -51q-2 -6 -2 -8q0 -12 22 -32.5t54 -37.5q12 -5 21 -5t21.5 8t24.5 17.5t22.5 17.5t16.5 8zM204 283q3 4 3 10q0 7 -4 14.5t-10.5 13.5t-13.5 10t-13 4q-5 0 -16 -6
t-21.5 -14.5t-18.5 -17t-8 -13.5q0 -12 27 -12h8t9 1q8 -1 15.5 -1h15.5q19 0 27 11zM250 399q-6 -3 -11 -3q-9 0 -13 3.5t-8.5 9.5t-12.5 14.5t-25 19.5q-10 6 -23.5 19t-30.5 30l-27 19q-18 12 -18 24q0 10 6 19.5t15 16.5t20 11t20 4h13q20 -24 39 -46.5t23 -51.5
q9 -9 23 -26.5t14 -46.5q0 -12 -4 -16z" />
    <glyph glyph-name="eacute" unicode="&#xe9;" horiz-adv-x="335" 
d="M277 109q-2 -17 -6 -30t-10 -23.5t-12.5 -20t-13.5 -21.5q-43 -16 -87 -23q-64 17 -89 33q-7 4 -14.5 17.5t-13.5 18.5q-5 5 -7.5 18t-5.5 17q-20 38 -20 73q0 12 4 31.5t9 40t9.5 37.5t5.5 23l58 51q17 14 33 21t30 7q25 0 53 -20q13 -1 19 -1t11.5 -2.5t14 -10
t26.5 -22.5q12 -29 12 -49q0 -50 -76 -50q-8 0 -23 1t-31 2.5t-29.5 3t-17.5 1.5q-35 0 -35 -29q0 -9 16 -51q-2 -6 -2 -8q0 -12 22 -32.5t54 -37.5q12 -5 21 -5t21.5 8t24.5 17.5t22.5 17.5t16.5 8zM204 283q3 4 3 10q0 7 -4 14.5t-10.5 13.5t-13.5 10t-13 4q-5 0 -16 -6
t-21.5 -14.5t-18.5 -17t-8 -13.5q0 -12 27 -12h8t9 1q8 -1 15.5 -1h15.5q19 0 27 11zM262 522q0 -6 -17.5 -22.5t-40.5 -33.5t-45.5 -30.5t-33.5 -13.5q-8 0 -12.5 6.5t-4.5 11.5q0 10 17 33.5t46 73.5q6 5 19 8t22 18l25 -1q14 -19 19.5 -31t5.5 -19z" />
    <glyph glyph-name="ecircumflex" unicode="&#xea;" horiz-adv-x="335" 
d="M277 109q-2 -17 -6 -30t-10 -23.5t-12.5 -20t-13.5 -21.5q-43 -16 -87 -23q-64 17 -89 33q-7 4 -14.5 17.5t-13.5 18.5q-5 5 -7.5 18t-5.5 17q-20 38 -20 73q0 12 4 31.5t9 40t9.5 37.5t5.5 23l58 51q17 14 33 21t30 7q25 0 53 -20q13 -1 19 -1t11.5 -2.5t14 -10
t26.5 -22.5q12 -29 12 -49q0 -50 -76 -50q-8 0 -23 1t-31 2.5t-29.5 3t-17.5 1.5q-35 0 -35 -29q0 -9 16 -51q-2 -6 -2 -8q0 -12 22 -32.5t54 -37.5q12 -5 21 -5t21.5 8t24.5 17.5t22.5 17.5t16.5 8zM204 283q3 4 3 10q0 7 -4 14.5t-10.5 13.5t-13.5 10t-13 4q-5 0 -16 -6
t-21.5 -14.5t-18.5 -17t-8 -13.5q0 -12 27 -12h8t9 1q8 -1 15.5 -1h15.5q19 0 27 11zM250 402q-7 0 -15 7t-15 16.5t-11.5 20t-4.5 17.5v-1q-4 0 -6.5 9.5t-14.5 31.5q-5 3 -7 3q-4 0 -7 -5l-6 -17q-4 -3 -13 -17v-7q0 -5 -0.5 -11t-1.5 -14l-13 -17q-7 -11 -7 -18v-2
q-4 -7 -7 -7q-4 0 -10.5 4.5t-16.5 4.5h-5q-19 0 -26 5.5t-9 32.5q7 12 12 22.5t11.5 23.5t18 31.5t31.5 47.5q12 -2 19 -3t10 -1t6.5 1t6.5 1q41 0 71 -58q0 -13 4.5 -26.5t10.5 -25t10.5 -19.5t4.5 -9q0 -21 -20 -21z" />
    <glyph glyph-name="edieresis" unicode="&#xeb;" horiz-adv-x="335" 
d="M277 109q-2 -17 -6 -30t-10 -23.5t-12.5 -20t-13.5 -21.5q-43 -16 -87 -23q-64 17 -89 33q-7 4 -14.5 17.5t-13.5 18.5q-5 5 -7.5 18t-5.5 17q-20 38 -20 73q0 12 4 31.5t9 40t9.5 37.5t5.5 23l58 51q17 14 33 21t30 7q25 0 53 -20q13 -1 19 -1t11.5 -2.5t14 -10
t26.5 -22.5q12 -29 12 -49q0 -50 -76 -50q-8 0 -23 1t-31 2.5t-29.5 3t-17.5 1.5q-35 0 -35 -29q0 -9 16 -51q-2 -6 -2 -8q0 -12 22 -32.5t54 -37.5q12 -5 21 -5t21.5 8t24.5 17.5t22.5 17.5t16.5 8zM204 283q3 4 3 10q0 7 -4 14.5t-10.5 13.5t-13.5 10t-13 4q-5 0 -16 -6
t-21.5 -14.5t-18.5 -17t-8 -13.5q0 -12 27 -12h8t9 1q8 -1 15.5 -1h15.5q19 0 27 11zM240 439q-9 -4 -17.5 -10.5t-11.5 -6.5q-2 0 -5 3t-11 12q-6 1 -16 8.5t-10 27.5q0 23 12 43.5t28 20.5q8 0 18 -2.5t19 -7t15 -10t6 -10.5q0 -3 -4 -12.5t-9.5 -21t-9.5 -21t-4 -12.5v-1
zM143 438q-8 -4 -16.5 -10.5t-11.5 -6.5t-5 1l-12 14q-5 1 -15.5 9t-10.5 25t11 30.5t31 13.5q10 0 22.5 -9t12.5 -26q0 -6 -3 -20.5t-3 -20.5z" />
    <glyph glyph-name="igrave" unicode="&#xec;" horiz-adv-x="215" 
d="M182 31q-5 -41 -48 -41q-7 0 -19 1t-17 1h-48q-32 0 -32 25q0 10 6 17t13 14t13 16.5t6 23.5q0 5 -0.5 9t-0.5 8q0 11 1 16t1.5 7t1.5 3.5t1 5.5t-4 10.5t-4 17.5q0 3 3.5 10.5t4.5 11.5q0 -1 -1 -1l-3 43q9 10 9 21q-3 13 -7 18.5t-4 16.5v5q-29 15 -29 44q0 3 0.5 9
t1.5 16q9 0 21.5 5t26 11.5t26.5 11.5t22 5q16 0 26.5 -5t10.5 -32q0 -3 -0.5 -7t-0.5 -8v-9q0 -6 -1 -20t-3.5 -28t-5 -25t-5.5 -11v2v-46q0 -3 2 -12.5t2 -22.5q0 -7 -1.5 -15t-1.5 -18q0 -5 0.5 -10t1.5 -10q-1 -3 -1 -8q0 -10 4 -22.5t9.5 -23.5t11.5 -19.5t11 -10.5z
M215 408q-3 -1 -5.5 -1.5t-5.5 -0.5q-9 0 -12.5 2.5t-7.5 7t-12.5 12t-26.5 17.5q-10 5 -23.5 15.5t-30.5 24.5l-27 15q-17 8 -17 20q0 7 5.5 14.5t14.5 13.5t19 10t19 4h3h12q21 -19 40.5 -39t22.5 -41q8 -8 22 -22.5t14 -38.5q0 -9 -4 -13z" />
    <glyph glyph-name="iacute" unicode="&#xed;" horiz-adv-x="215" 
d="M182 31q-5 -41 -48 -41q-7 0 -19 1t-17 1h-48q-32 0 -32 25q0 10 6 17t13 14t13 16.5t6 23.5q0 5 -0.5 9t-0.5 8q0 11 1 16t1.5 7t1.5 3.5t1 5.5t-4 10.5t-4 17.5q0 3 3.5 10.5t4.5 11.5q0 -1 -1 -1l-3 43q9 10 9 21q-3 13 -7 18.5t-4 16.5v5q-29 15 -29 44q0 3 0.5 9
t1.5 16q9 0 21.5 5t26 11.5t26.5 11.5t22 5q16 0 26.5 -5t10.5 -32q0 -3 -0.5 -7t-0.5 -8v-9q0 -6 -1 -20t-3.5 -28t-5 -25t-5.5 -11v2v-46q0 -3 2 -12.5t2 -22.5q0 -7 -1.5 -15t-1.5 -18q0 -5 0.5 -10t1.5 -10q-1 -3 -1 -8q0 -10 4 -22.5t9.5 -23.5t11.5 -19.5t11 -10.5z
M218 522q-1 -6 -18.5 -22.5t-40.5 -34t-45.5 -30.5t-33.5 -13q-8 0 -12 6t-4 12q0 8 17 34.5t46 72.5q4 4 16.5 6.5t24.5 19.5l25 -1q25 -37 25 -50z" />
    <glyph glyph-name="icircumflex" unicode="&#xee;" horiz-adv-x="215" 
d="M182 31q-5 -41 -48 -41q-7 0 -19 1t-17 1h-48q-32 0 -32 25q0 10 6 17t13 14t13 16.5t6 23.5q0 5 -0.5 9t-0.5 8q0 11 1 16t1.5 7t1.5 3.5t1 5.5t-4 10.5t-4 17.5q0 3 3.5 10.5t4.5 11.5q0 -1 -1 -1l-3 43q9 10 9 21q-3 13 -7 18.5t-4 16.5v5q-29 15 -29 44q0 3 0.5 9
t1.5 16q9 0 21.5 5t26 11.5t26.5 11.5t22 5q16 0 26.5 -5t10.5 -32q0 -3 -0.5 -7t-0.5 -8v-9q0 -6 -1 -20t-3.5 -28t-5 -25t-5.5 -11v2v-46q0 -3 2 -12.5t2 -22.5q0 -7 -1.5 -15t-1.5 -18q0 -5 0.5 -10t1.5 -10q-1 -3 -1 -8q0 -10 4 -22.5t9.5 -23.5t11.5 -19.5t11 -10.5z
M187 410q-6 0 -13 7.5t-12 17.5t-8.5 20.5t-3.5 16.5v-1q-5 0 -6 9.5t-12 32.5q-3 3 -5 3q-4 0 -6 -7t-5 -15l-11 -18v-7v-11t-1 -14l-10 -18q-6 -12 -6 -18v-2q-3 -6 -6 -6q-2 0 -8 4.5t-14 4.5h-4q-15 0 -20.5 5t-7.5 33q6 12 10 22.5t9.5 24t14.5 32.5t26 47q24 -3 25 -3
q6 2 8 2q22 0 36.5 -21.5t25.5 -67.5q20 -43 20 -51q0 -22 -16 -22z" />
    <glyph glyph-name="idieresis" unicode="&#xef;" horiz-adv-x="215" 
d="M182 31q-5 -41 -48 -41q-7 0 -19 1t-17 1h-48q-32 0 -32 25q0 10 6 17t13 14t13 16.5t6 23.5q0 5 -0.5 9t-0.5 8q0 11 1 16t1.5 7t1.5 3.5t1 5.5t-4 10.5t-4 17.5q0 3 3.5 10.5t4.5 11.5q0 -1 -1 -1l-3 43q9 10 9 21q-3 13 -7 18.5t-4 16.5v5q-29 15 -29 44q0 3 0.5 9
t1.5 16q9 0 21.5 5t26 11.5t26.5 11.5t22 5q16 0 26.5 -5t10.5 -32q0 -3 -0.5 -7t-0.5 -8v-9q0 -6 -1 -20t-3.5 -28t-5 -25t-5.5 -11v2v-46q0 -3 2 -12.5t2 -22.5q0 -7 -1.5 -15t-1.5 -18q0 -5 0.5 -10t1.5 -10q-1 -3 -1 -8q0 -10 4 -22.5t9.5 -23.5t11.5 -19.5t11 -10.5z
M201 428q-7 -3 -14 -9t-9 -6t-8 5.5t-23 19.5q-5 8 -5 21q0 23 8.5 40.5t26.5 17.5q6 0 14.5 -2.5t15.5 -6.5t12 -8.5t5 -8.5q0 -3 -3.5 -12t-8 -19.5t-8 -19.5t-3.5 -12zM110 422q-8 -3 -16.5 -9.5t-11.5 -6.5q-4 0 -5 1l-12 13q-7 2 -17 10t-10 25t11 30.5t31 13.5
q10 0 22.5 -8.5t12.5 -26.5q0 -7 -2.5 -21t-2.5 -21z" />
    <glyph glyph-name="eth" unicode="&#xf0;" horiz-adv-x="388" 
d="M262 259q0 13 -4 26.5t-12.5 25t-22.5 19.5t-35 10q-18 -20 -34.5 -26t-30 -13t-21.5 -20.5t-8 -47.5q0 -20 2 -47t10.5 -52.5t25.5 -43t47 -17.5q42 0 67 41.5t27 115.5zM28 399q-1 2 -10 19t-9 37q0 24 28 34q5 -2 9 -2h8q11 0 16 2l-1 16q-9 2 -21 8.5t-22 15t-17 18
t-7 18.5q0 13 7 19.5t17 6.5q24 0 53 -27q5 -5 12 -6.5t14 -1.5h12.5t7.5 -1l16 -3q11 -1 16 -10l30 20q18 15 50 15q47 0 47 -28q0 -5 -3 -13t-9.5 -16.5t-16.5 -17t-24 -12.5q8 -12 29 -28q1 -10 7 -17.5t12.5 -14t12 -11t7.5 -8.5q1 -5 3 -14t5.5 -19.5t9 -20t14.5 -15.5
q0 -5 -0.5 -9.5t-0.5 -9.5q0 -17 1 -36.5t2.5 -37.5t2.5 -31t1 -15q0 -67 -58 -140l-13 -24q-6 -11 -17 -11q-6 0 -10 1q-14 -18 -51 -24q0 -6 -8 -12t-13 -6q-2 0 -9 4.5t-16 10.5l-16.5 11t-9.5 5q-19 2 -40 5t-32 19q-38 53 -38 97q-9 13 -9 39q0 9 2 26.5t5 34.5
q3 20 7 42q25 30 38.5 46t23.5 23.5t18.5 8.5t23.5 1h8l20 -3q1 7 9 11.5t16.5 7.5t15.5 5t7 5q-7 10 -12 19q-5 8 -9 15t-5 10q-2 2 -8 3.5t-13 2.5t-13 2.5t-8 3.5l-25 -22h-2q-3 0 -13 -3.5t-21 -8t-20 -8t-10 -3.5q-2 0 -4 2z" />
    <glyph glyph-name="ntilde" unicode="&#xf1;" horiz-adv-x="419" 
d="M361 21q-3 -7 -14 -12t-22.5 -8.5t-20 -5l-8.5 -1.5l-2 -1q-4 0 -9.5 3.5t-7.5 3.5l-25 -3q-17 1 -25 1.5t-7 0.5q-20 23 -20 32q0 5 7.5 10l16.5 11t16.5 13.5t7.5 16.5v56q-2 5 -3 9q-2 10 -2 12q0 3 5 11.5t5 13.5v28q-1 16 -11 19q3 6 3 14q0 12 -4.5 24t-12 21.5
t-17.5 16t-20 6.5q-7 0 -14 -3h-4q-16 0 -34 -14t-24 -34v-56q-5 -22 -5 -50q0 -9 -0.5 -25t2 -32.5t9 -30t20.5 -17.5q23 -8 24 -20q-5 -11 -17 -18l-21 -12q-5 0 -16.5 2.5t-18.5 2.5q-13 0 -23 -6q-4 1 -9 1h-11q-3 -1 -8 -1q-18 0 -35.5 12.5t-19.5 30.5l8.5 8.5
t11 12.5t9.5 15t4 15v3q9 13 9 26q0 12 -7 19q1 24 1 41.5t1 29.5q0 14 1 24l-8 21q1 3 1 11t-4 14.5t-8.5 12.5t-8.5 11.5t-4 12.5q0 31 55 58q12 -15 31 -15q2 0 3.5 0.5t3.5 0.5q32 -32 36 -32q3 0 7 3t8.5 7t8.5 8t6 5q7 1 16 2.5t21 4.5l18 8q12 6 19 6h3l41 -21
q24 -13 37.5 -25.5t20.5 -25t9 -25.5t2 -28v-45q0 -1 -3.5 -10t-4.5 -13v1l3 -15q1 -8 2 -18t1 -22q0 -13 -1 -26.5t-1 -21.5q0 -4 0.5 -11t2.5 -14t5.5 -12.5t8.5 -5.5t8 -4.5t3 -8.5q0 -3 -1 -4zM315 522q0 -1 0.5 -2.5t0.5 -3.5q0 -5 -0.5 -11t-1.5 -15l-4 -41
q-3 -12 -12 -18.5t-19.5 -10.5t-20 -5t-13.5 -1q-30 0 -34 13l-26 33q-8 10 -17.5 13.5t-18.5 4.5q-49 0 -58 -61q-4 -1 -12 -1q-11 0 -18.5 3t-7.5 14q0 8 4.5 19t12 23t17 23.5t18.5 19.5q5 2 19.5 7t28.5 5q8 0 12.5 -2t7.5 -4.5t5 -4.5t6 -2q2 0 5 1.5t5 1.5
q10 0 43 -24q4 -4 10 -4q9 0 22 11l18 10q17 10 25 10q2 0 3 -1z" />
    <glyph glyph-name="ograve" unicode="&#xf2;" horiz-adv-x="400" 
d="M350 117q-2 -26 -27 -54l-48 -46l-59 -27q-1 -1 -5 -1q-7 0 -22 6q-6 -7 -16 -7t-23 6q-8 -4 -24 -4q-11 3 -22 6.5t-20.5 8t-16.5 10.5t-8 15q-61 34 -61 104q0 13 3 24q0 2 -3.5 14.5t-3.5 18.5q0 16 -1 32.5t-1 32.5q0 13 7 29t16.5 30t18.5 24.5t12 12.5l38 22
q10 6 24 12t24 6q14 0 30.5 -3.5t18.5 -3.5q54 0 87.5 -16t52 -41.5t25 -57.5t6.5 -63q0 -2 -1.5 -18.5t-3.5 -45.5zM266 266q-1 6 -3.5 9t-7 6.5t-10.5 10.5t-14 21q-12 21 -24.5 27t-34.5 6q-18 0 -33 -4.5t-26.5 -17t-21 -34t-16.5 -55.5l-6.5 -13t-5.5 -20
q0 -46 2.5 -64.5t7.5 -24t11.5 -6t14.5 -10.5q2 -7 4.5 -14.5t8.5 -15t17 -14.5t30 -14q18 -7 31 -7q6 0 8 1h4q20 0 32 26l15 41q5 6 15 23q-1 4 -1 17q0 19 4 40t4 41t-5 45zM250 399q-6 -3 -11 -3q-9 0 -13 3.5t-8.5 9.5t-12.5 14.5t-25 19.5q-10 6 -23.5 19t-30.5 30
l-27 19q-18 12 -18 24q0 10 6 19.5t15 16.5t20 11t20 4h13q20 -24 39 -46.5t23 -51.5q9 -9 23 -26.5t14 -46.5q0 -12 -4 -16z" />
    <glyph glyph-name="oacute" unicode="&#xf3;" horiz-adv-x="400" 
d="M350 117q-2 -26 -27 -54l-48 -46l-59 -27q-1 -1 -5 -1q-7 0 -22 6q-6 -7 -16 -7t-23 6q-8 -4 -24 -4q-11 3 -22 6.5t-20.5 8t-16.5 10.5t-8 15q-61 34 -61 104q0 13 3 24q0 2 -3.5 14.5t-3.5 18.5q0 16 -1 32.5t-1 32.5q0 13 7 29t16.5 30t18.5 24.5t12 12.5l38 22
q10 6 24 12t24 6q14 0 30.5 -3.5t18.5 -3.5q54 0 87.5 -16t52 -41.5t25 -57.5t6.5 -63q0 -2 -1.5 -18.5t-3.5 -45.5zM266 266q-1 6 -3.5 9t-7 6.5t-10.5 10.5t-14 21q-12 21 -24.5 27t-34.5 6q-18 0 -33 -4.5t-26.5 -17t-21 -34t-16.5 -55.5l-6.5 -13t-5.5 -20
q0 -46 2.5 -64.5t7.5 -24t11.5 -6t14.5 -10.5q2 -7 4.5 -14.5t8.5 -15t17 -14.5t30 -14q18 -7 31 -7q6 0 8 1h4q20 0 32 26l15 41q5 6 15 23q-1 4 -1 17q0 19 4 40t4 41t-5 45zM262 522q0 -6 -17.5 -22.5t-40.5 -33.5t-45.5 -30.5t-33.5 -13.5q-8 0 -12.5 6.5t-4.5 11.5
q0 10 17 33.5t46 73.5q6 5 19 8t22 18l25 -1q14 -19 19.5 -31t5.5 -19z" />
    <glyph glyph-name="ocircumflex" unicode="&#xf4;" horiz-adv-x="400" 
d="M266 266q-1 6 -3.5 9t-7 6.5t-10.5 10.5t-14 21q-12 21 -24.5 27t-34.5 6q-18 0 -33 -4.5t-26.5 -17t-21 -34t-16.5 -55.5l-6.5 -13t-5.5 -20q0 -46 2.5 -64.5t7.5 -24t11.5 -6t14.5 -10.5q2 -7 4.5 -14.5t8.5 -15t17 -14.5t30 -14q18 -7 31 -7q6 0 8 1h4q20 0 32 26
l15 41q5 6 15 23q-1 4 -1 17q0 19 4 40t4 41t-5 45zM284 401q-8 0 -17 8t-16.5 19t-12.5 23t-5 21v-1q-3 0 -7.5 11.5t-16.5 37.5q-5 3 -8 3t-11.5 -14.5t-17.5 -31.5v-8q0 -6 -0.5 -13t-1.5 -16l-14 -21q-9 -12 -9 -20q0 -3 1 -4l-4 -4q26 -5 43.5 -7t31.5 -3.5t26 -4
t28 -9.5q29 -13 45 -34t23.5 -44t9 -45t1.5 -37q0 -2 -1.5 -18.5t-3.5 -45.5l3 -26q-2 -26 -27 -54l-48 -46l-59 -27q-1 -1 -5 -1q-7 0 -22 6q-6 -7 -16 -7t-23 6q-8 -4 -24 -4q-11 3 -22 6.5t-20.5 8t-16.5 10.5t-8 15q-61 34 -61 104q0 13 3 24q0 2 -3.5 14.5t-3.5 18.5
q0 16 -1 32.5t-1 32.5q0 13 7.5 29t17 30t18.5 24.5t12 12.5l42 24q14 8 25 11t19 5q-11 7 -25 7h-5q-20 0 -27.5 6t-9.5 38q8 14 13 26.5t12.5 28t20 37.5t35.5 55q13 -2 21 -3t11 -1t6 1t8 1q10 0 21.5 -5.5t22 -15.5t20 -22.5t15.5 -25.5q2 -21 7.5 -37t11.5 -27.5
t10.5 -19t4.5 -10.5q0 -9 -6.5 -16.5t-15.5 -7.5z" />
    <glyph glyph-name="otilde" unicode="&#xf5;" horiz-adv-x="400" 
d="M350 117q-2 -26 -27 -54l-48 -46l-59 -27q-1 -1 -5 -1q-7 0 -22 6q-6 -7 -16 -7t-23 6q-8 -4 -24 -4q-11 3 -22 6.5t-20.5 8t-16.5 10.5t-8 15q-61 34 -61 104q0 13 3 24q0 2 -3.5 14.5t-3.5 18.5q0 16 -1 32.5t-1 32.5q0 13 7 29t16.5 30t18.5 24.5t12 12.5l38 22
q10 6 24 12t24 6q14 0 30.5 -3.5t18.5 -3.5q54 0 87.5 -16t52 -41.5t25 -57.5t6.5 -63q0 -2 -1.5 -18.5t-3.5 -45.5zM266 266q-1 6 -3.5 9t-7 6.5t-10.5 10.5t-14 21q-12 21 -24.5 27t-34.5 6q-18 0 -33 -4.5t-26.5 -17t-21 -34t-16.5 -55.5l-6.5 -13t-5.5 -20
q0 -46 2.5 -64.5t7.5 -24t11.5 -6t14.5 -10.5q2 -7 4.5 -14.5t8.5 -15t17 -14.5t30 -14q18 -7 31 -7q6 0 8 1h4q20 0 32 26l15 41q5 6 15 23q-1 4 -1 17q0 19 4 40t4 41t-5 45zM315 522q0 -1 0.5 -2.5t0.5 -3.5q0 -5 -0.5 -11t-1.5 -15l-4 -41q-3 -12 -12 -18.5t-19.5 -10.5
t-20 -5t-13.5 -1q-30 0 -34 13l-26 33q-8 10 -17.5 13.5t-18.5 4.5q-49 0 -58 -61q-4 -1 -12 -1q-11 0 -18.5 3t-7.5 14q0 8 4.5 19t12 23t17 23.5t18.5 19.5q5 2 19.5 7t28.5 5q8 0 12.5 -2t7.5 -4.5t5 -4.5t6 -2q2 0 5 1.5t5 1.5q10 0 43 -24q4 -4 10 -4q9 0 22 11l18 10
q17 10 25 10q2 0 3 -1z" />
    <glyph glyph-name="odieresis" unicode="&#xf6;" horiz-adv-x="400" 
d="M350 117q-2 -26 -27 -54l-48 -46l-59 -27q-1 -1 -5 -1q-7 0 -22 6q-6 -7 -16 -7t-23 6q-8 -4 -24 -4q-11 3 -22 6.5t-20.5 8t-16.5 10.5t-8 15q-61 34 -61 104q0 13 3 24q0 2 -3.5 14.5t-3.5 18.5q0 16 -1 32.5t-1 32.5q0 13 7 29t16.5 30t18.5 24.5t12 12.5l38 22
q10 6 24 12t24 6q14 0 30.5 -3.5t18.5 -3.5q54 0 87.5 -16t52 -41.5t25 -57.5t6.5 -63q0 -2 -1.5 -18.5t-3.5 -45.5zM266 266q-1 6 -3.5 9t-7 6.5t-10.5 10.5t-14 21q-12 21 -24.5 27t-34.5 6q-18 0 -33 -4.5t-26.5 -17t-21 -34t-16.5 -55.5l-6.5 -13t-5.5 -20
q0 -46 2.5 -64.5t7.5 -24t11.5 -6t14.5 -10.5q2 -7 4.5 -14.5t8.5 -15t17 -14.5t30 -14q18 -7 31 -7q6 0 8 1h4q20 0 32 26l15 41q5 6 15 23q-1 4 -1 17q0 19 4 40t4 41t-5 45zM240 439q-9 -4 -17.5 -10.5t-11.5 -6.5q-2 0 -5 3t-11 12q-6 1 -16 8.5t-10 27.5q0 23 12 43.5
t28 20.5q8 0 18 -2.5t19 -7t15 -10t6 -10.5q0 -3 -4 -12.5t-9.5 -21t-9.5 -21t-4 -12.5v-1zM143 438q-8 -4 -16.5 -10.5t-11.5 -6.5t-5 1l-12 14q-5 1 -15.5 9t-10.5 25t11 30.5t31 13.5q10 0 22.5 -9t12.5 -26q0 -6 -3 -20.5t-3 -20.5z" />
    <glyph glyph-name="divide" unicode="&#xf7;" horiz-adv-x="531" 
d="M86 167q-9 -3 -17 -3q-23 0 -32.5 6t-9.5 12q0 7 9 15q-1 4 -1 10q0 20 10 21q10 -3 20 -3t30.5 4t32.5 4q4 0 14 -2.5l14 -3.5q3 1 9 1l-8 3q-1 0 -1 1h2q2 0 3.5 0.5t4.5 0.5q6 -1 15 -2t20 -2q1 0 67 3q8 -1 18.5 -1.5t24.5 -0.5q11 0 23.5 0.5t26.5 0.5q11 0 25 -2
t26 -6.5t20.5 -11.5t8.5 -17q0 -17 -35 -17h-63t-41 1l-43 5l-61 -3q-2 0 -5 0.5t-7 0.5q-12 0 -30.5 -2t-44.5 -5zM255 280q-5 -8 -10.5 -11t-9.5 -3q-3 0 -10.5 6.5t-15.5 14t-13.5 13.5t-3.5 5q-3 2 -8.5 4t-11 5.5t-9.5 9t-4 15.5q0 18 8 27.5t19 16t21.5 12t15.5 16.5
q8 16 11 19l11.5 -8t25 -20.5t24.5 -28t11 -30.5q0 -9 -14.5 -23.5t-28.5 -25.5zM291 107q16 -16 16 -44q0 -40 -35 -60q-1 -5 -5.5 -15.5t-21.5 -14.5h-29q-11 7 -18 24l-12 24q-6 5 -18.5 18t-12.5 28q0 10 2.5 18t10 17t22 20.5t37.5 29.5q4 3 8 3t13 -7t18 -16t16 -16.5
t9 -8.5z" />
    <glyph glyph-name="oslash" unicode="&#xf8;" horiz-adv-x="385" 
d="M338 163q-9 -25 -15.5 -50.5t-17.5 -47t-29.5 -37.5t-49.5 -22q-24 -15 -35 -15q-10 0 -21 8.5t-13 9.5q-1 0 -7 -3t-17 -3q-5 0 -12 1.5l-14 3t-13 3t-9 1.5q-10 0 -25 -6.5t-22 -6.5q-20 0 -20 12q0 8 14 29l16 24v2q0 6 -6 14l-13 15q-3 4 -12 38q3 6 3 11
q0 13 -13 22q-3 16 -3 33q0 30 17 90q69 84 101 84q7 0 12 -5q16 13 42 13q51 0 95 -38l26 19q11 8 17.5 12.5t11.5 3.5q12 0 12 -18q0 -26 -28 -60l3 -17q3 -18 18 -33zM229 295q-15 59 -64 59q-32 0 -53 -34t-21 -95v-17t1.5 -24t4 -21t8.5 -9q40 0 85 95q7 5 15 12.5
t19 17.5zM238 237l-70 -74q0 -6 -23 -38l-29 -40l39 -33q12 -11 22 -14.5t18 -4.5q10 0 18.5 10t15 22.5t10 24.5t3.5 17q17 29 17 112q0 12 -2 20z" />
    <glyph glyph-name="ugrave" unicode="&#xf9;" horiz-adv-x="411" 
d="M359 -3q-3 -11 -47 -11q-5 0 -14 -0.5t-19 0.5t-17.5 4t-9.5 9v17q0 8 -3 10.5t-10 2.5q-9 0 -24.5 -5.5t-32.5 -12t-33.5 -12t-27.5 -5.5q-43 0 -64.5 28t-22.5 77v13v18.5t-1 24.5v8q0 8 -1.5 22t-1.5 30q0 23 9 35q-9 8 -17 30q1 3 1 7q0 6 -5 10t-11 9t-11 11.5
t-5 18.5t5 21t11.5 15t13 9t9.5 3q1 -1 6 -1q9 0 17 1t13 1q25 0 41.5 -11.5t16.5 -34.5q0 -8 -1.5 -18.5l-3.5 -24.5q1 -25 2.5 -62t1.5 -91q-3 -14 -4 -22t-1 -13q0 -12 6.5 -20.5t16 -14t20.5 -8.5t20 -3q11 0 19.5 0.5t17.5 6t18.5 18.5t22.5 38q0 9 -3 21t-3 16t3 14
t3 11l2 74q3 10 3 18q0 11 -3 16t-7.5 7.5t-11.5 6t-14 11.5q-6 7 -14 7t-14.5 -0.5t-11.5 2t-5 14.5q0 11 14 26.5t43 15.5q10 0 12.5 -2t8.5 -2q11 0 22.5 1t14.5 1q7 0 17 -1.5t19 -8t15 -19.5t6 -35q0 -7 -0.5 -16.5t-1.5 -22.5l-3 -46v-53l1 -8l-2 -66q-2 -8 -2 -12
q0 -6 4 -15.5t8.5 -19t8.5 -18.5t4 -14q0 -15 -13 -31zM250 399q-6 -3 -11 -3q-9 0 -13 3.5t-8.5 9.5t-12.5 14.5t-25 19.5q-10 6 -23.5 19t-30.5 30l-27 19q-18 12 -18 24q0 10 6 19.5t15 16.5t20 11t20 4h13q20 -24 39 -46.5t23 -51.5q9 -9 23 -26.5t14 -46.5
q0 -12 -4 -16z" />
    <glyph glyph-name="uacute" unicode="&#xfa;" horiz-adv-x="411" 
d="M359 -3q-3 -11 -47 -11q-5 0 -14 -0.5t-19 0.5t-17.5 4t-9.5 9v17q0 8 -3 10.5t-10 2.5q-9 0 -24.5 -5.5t-32.5 -12t-33.5 -12t-27.5 -5.5q-43 0 -64.5 28t-22.5 77v13v18.5t-1 24.5v8q0 8 -1.5 22t-1.5 30q0 23 9 35q-9 8 -17 30q1 3 1 7q0 6 -5 10t-11 9t-11 11.5
t-5 18.5t5 21t11.5 15t13 9t9.5 3q1 -1 6 -1q9 0 17 1t13 1q25 0 41.5 -11.5t16.5 -34.5q0 -8 -1.5 -18.5l-3.5 -24.5q1 -25 2.5 -62t1.5 -91q-3 -14 -4 -22t-1 -13q0 -12 6.5 -20.5t16 -14t20.5 -8.5t20 -3q11 0 19.5 0.5t17.5 6t18.5 18.5t22.5 38q0 9 -3 21t-3 16t3 14
t3 11l2 74q3 10 3 18q0 11 -3 16t-7.5 7.5t-11.5 6t-14 11.5q-6 7 -14 7t-14.5 -0.5t-11.5 2t-5 14.5q0 11 14 26.5t43 15.5q10 0 12.5 -2t8.5 -2q11 0 22.5 1t14.5 1q7 0 17 -1.5t19 -8t15 -19.5t6 -35q0 -7 -0.5 -16.5t-1.5 -22.5l-3 -46v-53l1 -8l-2 -66q-2 -8 -2 -12
q0 -6 4 -15.5t8.5 -19t8.5 -18.5t4 -14q0 -15 -13 -31zM295 522q-1 -6 -18 -22.5t-40 -34t-45.5 -30.5t-33.5 -13q-8 0 -12 6t-4 12q0 8 16.5 34t46.5 73q5 5 18 8t23 18l24 -1q14 -19 19.5 -31t5.5 -19z" />
    <glyph glyph-name="ucircumflex" unicode="&#xfb;" horiz-adv-x="411" 
d="M359 -3q-3 -11 -47 -11q-5 0 -14 -0.5t-19 0.5t-17.5 4t-9.5 9v17q0 8 -3 10.5t-10 2.5q-9 0 -24.5 -5.5t-32.5 -12t-33.5 -12t-27.5 -5.5q-43 0 -64.5 28t-22.5 77v13v18.5t-1 24.5v8q0 8 -1.5 22t-1.5 30q0 23 9 35q-9 8 -17 30q1 3 1 7q0 6 -5 10t-11 9t-11 11.5
t-5 18.5t5 21t11.5 15t13 9t9.5 3q1 -1 6 -1q9 0 17 1t13 1q25 0 41.5 -11.5t16.5 -34.5q0 -8 -1.5 -18.5l-3.5 -24.5q1 -25 2.5 -62t1.5 -91q-3 -14 -4 -22t-1 -13q0 -12 6.5 -20.5t16 -14t20.5 -8.5t20 -3q11 0 19.5 0.5t17.5 6t18.5 18.5t22.5 38q0 9 -3 21t-3 16t3 14
t3 11l2 74q3 10 3 18q0 11 -3 16t-7.5 7.5t-11.5 6t-14 11.5q-6 7 -14 7t-14.5 -0.5t-11.5 2t-5 14.5q0 11 14 26.5t43 15.5q10 0 12.5 -2t8.5 -2q11 0 22.5 1t14.5 1q7 0 17 -1.5t19 -8t15 -19.5t6 -35q0 -7 -0.5 -16.5t-1.5 -22.5l-3 -46v-53l1 -8l-2 -66q-2 -8 -2 -12
q0 -6 4 -15.5t8.5 -19t8.5 -18.5t4 -14q0 -15 -13 -31zM273 402q-8 0 -16 7t-14.5 16.5t-11 20t-4.5 17.5v-1q-5 0 -7.5 9.5t-14.5 31.5q-5 3 -7 3q-4 0 -7 -5l-6 -17q-6 -6 -13 -17v-7q0 -9 -2 -20t-13 -22q-7 -11 -7 -18v-2q-4 -7 -7 -7q-4 0 -11 4.5t-16 4.5h-5
q-19 0 -25.5 5.5t-9.5 32.5q7 12 12 22.5t12 23.5t18.5 31.5t31.5 47.5q11 -2 18 -3t10 -1t6.5 1t6.5 1q41 0 71 -58q0 -13 5 -26.5t10.5 -25t10.5 -19t5 -9.5q0 -21 -20 -21z" />
    <glyph glyph-name="udieresis" unicode="&#xfc;" horiz-adv-x="411" 
d="M359 -3q-3 -11 -47 -11q-5 0 -14 -0.5t-19 0.5t-17.5 4t-9.5 9v17q0 8 -3 10.5t-10 2.5q-9 0 -24.5 -5.5t-32.5 -12t-33.5 -12t-27.5 -5.5q-43 0 -64.5 28t-22.5 77v13v18.5t-1 24.5v8q0 8 -1.5 22t-1.5 30q0 23 9 35q-9 8 -17 30q1 3 1 7q0 6 -5 10t-11 9t-11 11.5
t-5 18.5t5 21t11.5 15t13 9t9.5 3q1 -1 6 -1q9 0 17 1t13 1q25 0 41.5 -11.5t16.5 -34.5q0 -8 -1.5 -18.5l-3.5 -24.5q1 -25 2.5 -62t1.5 -91q-3 -14 -4 -22t-1 -13q0 -12 6.5 -20.5t16 -14t20.5 -8.5t20 -3q11 0 19.5 0.5t17.5 6t18.5 18.5t22.5 38q0 9 -3 21t-3 16t3 14
t3 11l2 74q3 10 3 18q0 11 -3 16t-7.5 7.5t-11.5 6t-14 11.5q-6 7 -14 7t-14.5 -0.5t-11.5 2t-5 14.5q0 11 14 26.5t43 15.5q10 0 12.5 -2t8.5 -2q11 0 22.5 1t14.5 1q7 0 17 -1.5t19 -8t15 -19.5t6 -35q0 -7 -0.5 -16.5t-1.5 -22.5l-3 -46v-53l1 -8l-2 -66q-2 -8 -2 -12
q0 -6 4 -15.5t8.5 -19t8.5 -18.5t4 -14q0 -15 -13 -31zM262 439q-9 -4 -17 -10.5t-12 -6.5q-2 0 -5 3t-11 12q-6 1 -16 8.5t-10 27.5q0 10 3 21.5t8.5 21t13 15.5t16.5 6q7 0 17 -2.5t19 -7t15 -10t6 -10.5q0 -3 -4 -13t-9.5 -21.5t-9.5 -21.5t-4 -12zM165 438
q-8 -4 -16.5 -10.5t-11.5 -6.5t-5 1l-11 14q-7 2 -17 10t-10 24q0 17 11 30.5t31 13.5q10 0 22.5 -9t12.5 -26q0 -6 -3 -20.5t-3 -20.5z" />
    <glyph glyph-name="yacute" unicode="&#xfd;" horiz-adv-x="401" 
d="M364 323q-12 8 -21 8q-13 0 -24 -20t-16 -47q-9 -42 -22.5 -63t-13.5 -25q0 -6 1.5 -12.5t1.5 -8.5q0 -6 -5.5 -19t-12.5 -28.5t-12.5 -32t-5.5 -28.5q-1 0 -5 -10.5t-9 -23t-9 -24t-4 -14.5v-1q-5 -10 -10 -19t-9 -18l-16 -53q1 -5 1 -9v-8q0 -11 -2.5 -18.5t-7.5 -7.5
q-1 0 -1 0.5t-1 0.5q-5 -56 -33 -56q-8 0 -15 4.5t-21 4.5q-23 0 -36.5 -2t-15.5 -2q-22 0 -31 15t-9 24q0 25 38 51q7 -3 15 -3q18 0 33.5 14.5t27.5 35t18.5 41.5t6.5 33q0 35 -10.5 67.5t-44.5 62.5q3 7 3 17q0 20 -16 42v15q-11 26 -14.5 43.5t-6 29.5t-8 20.5
t-21.5 15.5q-31 13 -31 33q0 26 54 34q22 -12 46 -12q8 0 18.5 2t21.5 5t20 5t14 2q12 0 20 -5.5t8 -18.5q0 -10 -10 -12t-22 -3.5t-22.5 -6.5t-11.5 -22q19 -29 48 -92q-1 -2 -1 -8q0 -14 7.5 -30t18.5 -16q6 0 9 4t5.5 12t6.5 20.5t12 29.5q17 34 17 64q0 7 -1 14t-13 21
q-12 15 -12 23q0 7 7 14q1 1 34 3.5t87 2.5q15 0 23 -1.5t11.5 -4.5t4 -7.5t0.5 -10.5q0 -31 -26 -31zM60 -181q8 13 8 19q0 9 -9 9q-5 0 -8 -6t-3 -13q0 -10 7 -10q3 0 5 1zM345 522q0 -6 -17.5 -22.5t-40.5 -33.5t-45.5 -30.5t-33.5 -13.5q-8 0 -12.5 6.5t-4.5 11.5
q0 10 17 33.5t46 73.5q6 5 19 8t22 18l25 -1q14 -19 19.5 -31t5.5 -19z" />
    <glyph glyph-name="thorn" unicode="&#xfe;" horiz-adv-x="414" 
d="M131 301l-21 -103l8 -40q6 -29 6 -42q0 -9 -3 -16q2 -19 10 -27v-10q16 -10 35 -10q33 0 56 24q1 -1 3 -1q10 0 20 25l16 15q-4 11 -4 24q0 6 1.5 19t1.5 23q0 5 -1.5 21.5t-5.5 35.5t-10.5 35t-16.5 20l-14 6q-23 20 -36 20q-3 0 -11.5 -3t-16.5 -3q-11 0 -20 4zM27 436
q4 11 4 25v8l-4 38q-34 22 -34 41q0 17 26.5 28t61.5 11h23.5t13.5 -6.5t7 -22t3 -46.5q1 -69 3 -78q-8 -30 -8 -61q15 2 28.5 3.5t24.5 1.5q29 0 51 -10t35 -10h3q12 -7 36 -29q1 -9 8.5 -26t16 -36t15.5 -37t7 -30q0 -18 -6 -38t-18 -62q0 -3 -4 -7.5t-8 -10t-7.5 -11
t-3.5 -10.5q-27 -35 -56 -35q-8 -8 -16 -10.5t-15.5 -3.5t-14.5 -1.5t-12 -5.5q-12 0 -29 -1.5t-39 -3.5q-7 -8 -10 -21.5t-6 -25.5q3 -5 6 -18.5t6 -29t5.5 -28t4.5 -13.5h3q10 0 22.5 -11.5t12.5 -22.5q0 -19 -37 -20q-23 -21 -60 -21q-9 0 -19 1.5t-18.5 5.5t-14.5 9
t-6 13q0 6 2 12t3 11q5 23 6.5 48t1.5 53v22l-10 29v2q0 5 7.5 9.5t10.5 8.5l-11 34l1 14q1 10 1.5 22.5t0.5 27.5q0 20 -1 47.5t-1 48.5q0 15 0.5 28.5t1.5 24.5l-7 13q2 11 5 37t3 55q0 24 -3 32q0 18 8 39z" />
    <glyph glyph-name="ydieresis" unicode="&#xff;" horiz-adv-x="401" 
d="M364 323q-12 8 -21 8q-13 0 -24 -20t-16 -47q-9 -42 -22.5 -63t-13.5 -25q0 -6 1.5 -12.5t1.5 -8.5q0 -6 -5.5 -19t-12.5 -28.5t-12.5 -32t-5.5 -28.5q-1 0 -5 -10.5t-9 -23t-9 -24t-4 -14.5v-1q-5 -10 -10 -19t-9 -18l-16 -53q1 -5 1 -9v-8q0 -11 -2.5 -18.5t-7.5 -7.5
q-1 0 -1 0.5t-1 0.5q-5 -56 -33 -56q-8 0 -15 4.5t-21 4.5q-23 0 -36.5 -2t-15.5 -2q-22 0 -31 15t-9 24q0 25 38 51q7 -3 15 -3q18 0 33.5 14.5t27.5 35t18.5 41.5t6.5 33q0 35 -10.5 67.5t-44.5 62.5q3 7 3 17q0 20 -16 42v15q-11 26 -14.5 43.5t-6 29.5t-8 20.5
t-21.5 15.5q-31 13 -31 33q0 26 54 34q22 -12 46 -12q8 0 18.5 2t21.5 5t20 5t14 2q12 0 20 -5.5t8 -18.5q0 -10 -10 -12t-22 -3.5t-22.5 -6.5t-11.5 -22q19 -29 48 -92q-1 -2 -1 -8q0 -14 7.5 -30t18.5 -16q6 0 9 4t5.5 12t6.5 20.5t12 29.5q17 34 17 64q0 7 -1 14t-13 21
q-12 15 -12 23q0 7 7 14q1 1 34 3.5t87 2.5q15 0 23 -1.5t11.5 -4.5t4 -7.5t0.5 -10.5q0 -31 -26 -31zM60 -181q8 13 8 19q0 9 -9 9q-5 0 -8 -6t-3 -13q0 -10 7 -10q3 0 5 1zM289 471q-9 -4 -17 -10.5t-12 -6.5q-2 0 -5 3.5t-11 11.5q-6 1 -16 8.5t-10 27.5q0 10 3 21.5
t8.5 21t13 15.5t16.5 6q7 0 17 -2.5t19 -7t15 -10t6 -10.5q0 -3 -4 -13t-9.5 -21.5t-9.5 -21.5t-4 -12zM193 470q-9 -4 -17.5 -10.5t-11.5 -6.5q-2 0 -5 3t-11 12q-7 2 -17 10t-10 24q0 17 11 31t31 14q9 0 22 -9t13 -26q0 -7 -2.5 -21.5t-2.5 -20.5z" />
    <glyph glyph-name="dotlessi" unicode="&#x131;" horiz-adv-x="215" 
d="M182 31q-5 -41 -48 -41q-7 0 -19 1t-17 1h-48q-32 0 -32 25q0 10 6 17t13 14t13 16.5t6 23.5q0 5 -0.5 9t-0.5 8q0 11 1 16t1.5 7t1.5 3.5t1 5.5t-4 10.5t-4 17.5q0 3 3.5 10.5t4.5 11.5q0 -1 -1 -1l-3 43q9 10 9 21q-3 13 -7 18.5t-4 16.5v5q-29 15 -29 44q0 3 0.5 9
t1.5 16q9 0 21.5 5t26 11.5t26.5 11.5t22 5q16 0 26.5 -5t10.5 -32q0 -3 -0.5 -7t-0.5 -8v-9q0 -6 -1 -20t-3.5 -28t-5 -25t-5.5 -11v2v-46q0 -3 2 -12.5t2 -22.5q0 -7 -1.5 -15t-1.5 -18q0 -5 0.5 -10t1.5 -10q-1 -3 -1 -8q0 -10 4 -22.5t9.5 -23.5t11.5 -19.5t11 -10.5z
" />
    <glyph glyph-name="OE" unicode="&#x152;" horiz-adv-x="708" 
d="M620 -9q-5 3 -7 3q-4 0 -4 -4q-4 2 -8.5 3t-10.5 1q-7 0 -14.5 -2.5t-17.5 -2.5q-6 0 -10.5 6.5t-10.5 6.5q-20 -4 -32.5 -5.5t-17.5 -1.5q-2 0 -8.5 2.5t-22.5 2.5q-5 0 -17 -0.5t-26.5 -1.5t-27 -1.5t-17.5 -0.5q-28 0 -38 6l-8.5 -2t-19.5 -4.5t-21 -5t-12 -2.5
q-8 0 -17 2t-17 2q-7 0 -16 -1t-12 -1q-12 0 -21 13h-15l-18 15l-16 -8q-7 1 -23.5 15t-34.5 31.5t-32.5 34.5t-17.5 24q-1 3 -1 8q0 4 1.5 10.5t1.5 10.5q0 12 -13 21q-2 16 -3.5 31t-10.5 29q-4 7 -4 30q0 13 3 37.5t7.5 50.5t9.5 49.5t9 36.5q8 10 12.5 22t20.5 41
q70 79 123 84q9 0 23.5 -1.5t19.5 -1.5q20 0 34 15q10 -4 29 -4.5t29 -5.5h55q31 -7 69 -7q19 0 42.5 2.5t43.5 5.5t32.5 5.5t11.5 2.5q18 0 35 -23q0 -27 -1 -46.5t-3 -33.5t-4.5 -24t-6.5 -19q-15 3 -33 15q-3 16 -7.5 26t-12.5 18.5t-22 17.5t-38 21q-15 3 -27 3
q-22 0 -33 -7t-11 -9l33 -45q9 -13 11 -35q14 -23 14 -39q0 -12 8 -33t8 -62q3 0 9 -5t11 -5q1 1 2 1l15 33q22 20 23 20q5 0 13 -8q2 -48 3.5 -71.5t1.5 -22.5q0 -38 -6 -53.5t-20 -15.5q-6 0 -8 12.5t-4.5 27.5t-8 27.5t-19.5 12.5q-8 0 -11.5 -5.5t-5 -13t-1.5 -16v-15.5
q-7 -37 -25 -73q-61 -74 -61 -90q0 -8 11 -10t41 -9l74 8q55 10 61 35q14 16 38 34h10q20 -26 20 -69q0 -22 -8 -43zM400 309q-3 101 -19.5 148t-34.5 47q-6 0 -12.5 -8.5t-8.5 -8.5q-1 0 -1 1q-5 -10 -5 -59q0 -38 -0.5 -62t2.5 -38t12.5 -19.5t30.5 -5.5q7 0 18 2.5
t15 2.5h3zM396 259q-9 0 -21.5 2t-17.5 2q-7 0 -13 -2t-10.5 -9t-7 -21.5t-2.5 -39.5q5 -5 5 -22q0 -5 -0.5 -10.5t-0.5 -10.5q0 -13 2 -19q-4 -20 -4 -34q0 -16 9 -16q2 0 3 0.5t3 0.5q1 0 1.5 -0.5t1.5 -0.5q19 20 31 35t19 29.5t10 30.5t3 37q0 19 -8 48h-3zM240 65
q3 13 3 88q0 59 -1 109.5t-2.5 89.5t-3 63.5t-2.5 31.5q2 6 2 14v19q0 4 0.5 11t0 13.5t-4 11.5t-10.5 5q-6 0 -18 -5l-20 -9q-21 -4 -35 -14.5t-23.5 -35t-17.5 -65t-18 -104.5q2 -31 5.5 -63t23.5 -57q12 -73 46 -86q15 -24 43 -24q17 0 32 7z" />
    <glyph glyph-name="oe" unicode="&#x153;" horiz-adv-x="649" 
d="M605 250q0 -2 0.5 -3t0.5 -3q0 -14 -8 -21t-21.5 -10t-30.5 -3h-36q-52 0 -80.5 0.5t-33.5 0.5q-2 -1 -7.5 -2.5t-11.5 -4t-10.5 -6.5t-4.5 -11q0 -9 3.5 -22t8.5 -25.5t11 -23t11 -14.5q21 -18 41 -24.5t40 -6.5q7 0 16 3t29 17q16 11 25 17.5t12 8.5q27 -11 27 -32
q0 -2 -4 -12t-14 -23t-25.5 -26.5t-37.5 -21.5q-3 0 -6 0.5t-8 0.5q-12 0 -20 -3.5t-28 -12.5h-2q-3 0 -12 4t-19 9t-19.5 9t-13.5 4h-3q-11 7 -25 14t-33 15q-41 -30 -64 -30q-7 0 -13 3q-37 -22 -70 -22q-27 0 -42 15h-14.5t-12 3t-15 10.5t-22.5 23.5l-43 37l-6 22
q-6 6 -10 16.5t-4 27.5q0 70 10 97l2 5q-1 3 -1 7v9t-0.5 10t1 11.5t7.5 15t20 22.5q7 7 9.5 14t9.5 12q14 8 23.5 11t18.5 5.5t19 5t27 9.5q21 8 33 8q2 0 4.5 -0.5t4.5 -0.5t4 0.5t5 0.5q15 0 42.5 -16t74.5 -39q1 -1 3 -1q5 0 14 6.5t19.5 14.5t21.5 14.5t21 6.5
q5 0 13.5 -2t19.5 -2q10 0 23 4t27 4q23 0 43 -10.5t36.5 -28.5t29 -41.5t20.5 -49.5zM513 256q6 10 6 21q0 40 -64 40q-5 0 -14 -1t-18 -5.5t-15.5 -13t-6.5 -23.5q0 -12 14 -18t27 -6q9 0 19.5 4t20.5 4q4 0 10 -2t11 -2q6 0 10 2zM288 138q0 25 -2.5 44.5t-6 34
t-6.5 24.5t-4 16q0 12 -5 22.5t-12 19.5t-13.5 15t-10.5 9q-19 16 -47 18q-3 -2 -6.5 -5t-8.5 -5h-6q-9 0 -19.5 -9t-20 -21.5t-16.5 -27t-9 -26.5q-2 -9 -6 -64q3 -5 5 -18.5t4 -29.5t4 -30t6 -19q20 -29 75 -43q29 6 48.5 21.5t31 32t17.5 29t8 12.5z" />
    <glyph glyph-name="Scaron" unicode="&#x160;" horiz-adv-x="419" 
d="M286 20q-4 0 -11 -3l-19 -8h-7q-11 0 -20 -3t-30 -13q-5 -1 -9 -1h-7q-17 0 -24.5 4t-15.5 7q-5 -2 -10.5 -4t-13.5 -4l-22 17q-14 9 -26 9q-5 0 -10.5 -3.5t-11.5 -8t-12 -8t-12 -3.5q-6 4 -8 11t-2.5 19t-2 30t-5.5 42q-2 13 -2.5 23t-0.5 18q0 17 4.5 34.5t14.5 17.5
q6 0 16 -5t13 -10l3 -18q1 -10 7 -23t14 -25.5t17 -23t17 -16.5l19 -3q31 -15 43 -15q11 0 15.5 4.5t17.5 15.5q49 9 49 51q0 2 -1.5 14.5t-5.5 28t-11.5 29.5t-18.5 20q-11 4 -15.5 6t-10.5 5t-17.5 8.5t-36.5 17.5q-29 2 -50.5 17.5t-36.5 36.5t-25 43.5t-17 37.5
q-6 22 -6 56q0 20 3.5 31.5t9.5 19.5t14 15t16 18q6 21 30.5 36t49.5 15h5q4 0 13.5 1.5t14.5 1.5q19 0 34 -17q-1 0 14 5q-2 -1 28 -4q8 -11 15 -11q4 0 11 4t14 9.5t12.5 9.5t6.5 4q19 0 19 -35q0 -6 -0.5 -11t-1.5 -10q6 -18 6 -46q0 -21 -4 -38.5t-12 -17.5
q-5 0 -11.5 7t-13 15.5t-11.5 15.5t-6 8q-15 47 -68 47q-17 0 -33 -8h-6q-47 0 -47 -64q0 -18 3.5 -27.5t18 -18t42 -21t75.5 -37.5q5 -14 13.5 -21t18.5 -12.5t19.5 -11.5t15.5 -16v-2q0 -6 9.5 -17t10.5 -17q13 -64 13 -109q0 -17 -1.5 -25t-5 -14t-8 -12.5t-10.5 -21.5
q-10 -25 -30 -43h-2zM299 726q-19 -35 -37 -65t-37 -53q-42 5 -61 8.5t-28.5 12t-16 25.5t-23.5 50q-14 27 -14 38q0 18 19 18q8 0 16 -6.5t14.5 -15.5t11 -19t5.5 -16q4 -8 9 -17.5t12 -20.5l14 2q3 12 11 20t9 12q0 2 -0.5 3t-0.5 3q0 9 3 24l13 17q7 8 7 16v3l11 4
q11 -8 24 -8q5 0 9 1h8q20 0 22 -36z" />
    <glyph glyph-name="scaron" unicode="&#x161;" horiz-adv-x="303" 
d="M253 143q4 -7 4 -24q0 -47 -15 -68t-52 -31l-44 -12q-29 -15 -48 -15q-12 0 -36 8q-2 1 -7 7.5t-10 6.5q-3 0 -9.5 -3t-12.5 -6t-11.5 -6t-7.5 -3q-5 0 -6 8.5t-1 20.5q0 38 6.5 59.5t14.5 24.5q10 0 15 -8.5t9 -17.5q26 -35 57 -35q27 0 45.5 12.5t18.5 44.5q0 19 -8 33
q-4 -2 -6 -2q-3 0 -9.5 3t-14 6.5t-14.5 7t-11 4.5q-6 -2 -12 -2q-2 0 -3 0.5t-3 0.5l-46 32q-39 24 -39 66q0 6 4 23t13 35.5t23.5 33.5t35.5 16q29 4 40 8t18 4q4 0 11.5 -3t15 -6.5t13 -6.5t6.5 -3t1.5 -0.5t1.5 -0.5q7 0 17 6t15 6t8.5 -6.5t5.5 -14.5t3 -16.5t1 -11.5
q0 -31 -26 -45q-10 11 -23.5 26t-32.5 35q-1 0 -1.5 0.5t-1.5 0.5t-13 -2t-26 -7.5t-25.5 -15t-11.5 -23.5q0 -8 3.5 -16t10.5 -10h15q15 -13 27 -19.5t21 -9.5t15.5 -4t10.5 -3q7 -11 14.5 -14t14 -4.5t13 -4t11.5 -11.5zM260 526q-37 -71 -75 -118q-41 4 -60 7.5t-29 12.5
t-16.5 26t-23.5 49q-8 14 -10.5 24t-3.5 15q0 18 19 18q8 0 16.5 -6.5t15 -16t11 -19t4.5 -15.5q4 -8 9 -17.5t13 -20.5l13 1q3 13 11 21t9 12q0 2 -0.5 3t-0.5 3q0 9 3 24l13 17q7 8 7 16v3l11 4q11 -8 24 -8h9q3 1 8 1q20 0 23 -36z" />
    <glyph glyph-name="Ydieresis" unicode="&#x178;" horiz-adv-x="572" 
d="M329 271q0 -5 4.5 -10.5t4.5 -11.5q0 -5 -3 -11q4 0 4 -50q0 -33 -3.5 -55.5t-3.5 -31.5q0 -20 4.5 -29t12 -12.5t17.5 -3.5t21 -1l7 -6v-7q0 -48 -60 -48h-7.5t-11.5 1h-18q-20 0 -28 -4q-3 1 -7 2q-5 1 -12 1.5t-18 0.5q-14 0 -22.5 -4t-13.5 -4q-6 4 -16.5 5.5
t-30.5 10.5q-4 5 -4 11q0 28 65 45q23 5 23 36q0 10 -5 17.5t-5 12.5q0 7 2.5 22t7.5 39q0 7 -2.5 16.5t-2.5 11.5l-6 22q-3 10 -3 19q0 2 0.5 4.5t0.5 4.5l-18 30q-14 23 -32 42t-39 19q2 6 2 9q-1 8 -7 19t-21 25l-38 34q-10 10 -11 13t-4 6t-13 9t-39 23q-8 21 -8 36
q0 32 27 44q4 0 7.5 -0.5t7.5 -0.5q10 0 18 1t13 3l48 -8q13 -3 26 -3q32 0 50 3t20 3q9 0 20 -3t20.5 -8t16 -11.5t6.5 -14.5q0 -5 -11 -11t-24.5 -13t-24.5 -13.5t-11 -13.5q0 -6 4 -11l38 -37q0 -2 -0.5 -3.5t-0.5 -3.5q0 -29 37 -57q1 -19 13 -26q5 1 13 14t15.5 28
t12.5 28t5 14q1 10 15 39q12 6 12 16q0 16 -40 44q-1 5 -1.5 9.5t-0.5 8.5q0 10 6 18.5t28 8.5q6 0 15.5 -1t19 -1.5t16.5 -1.5t9 -1q19 1 41 5t33 4q8 0 16.5 -1t18.5 -3q18 -26 18 -45q0 -6 -0.5 -12t-4.5 -11t-13 -8.5t-26 -4.5q-36 -2 -50 -13t-14 -34q0 -7 1 -11
q-8 -8 -19 -21.5t-25 -30.5l-8 -20q-4 -11 -15 -16q-14 -5 -19.5 -11t-7.5 -14.5t-4.5 -21t-9.5 -28.5zM365 635q-9 -4 -17 -10.5t-12 -6.5q-2 0 -5 3t-11 12q-6 1 -16 8.5t-10 27.5q0 10 3 21.5t8.5 21t13 15.5t16.5 6q7 0 17 -2.5t19 -7t15 -10t6 -10.5q0 -3 -4 -13
t-9.5 -21.5t-9.5 -21.5t-4 -12zM268 634q-8 -4 -16.5 -10.5t-11.5 -6.5t-5 1l-11 14q-7 2 -17 10t-10 24q0 17 11 30.5t31 13.5q10 0 22.5 -9t12.5 -26q0 -6 -3 -20.5t-3 -20.5z" />
    <glyph glyph-name="Zcaron" unicode="&#x17d;" horiz-adv-x="598" 
d="M565 139q4 -4 4 -12q0 -5 -4.5 -17t-10 -26.5t-10 -27.5t-4.5 -19q0 -7 3 -13q-26 -26 -46 -26q-5 0 -6 1q-23 -9 -52 -9q-6 0 -17 1t-22.5 1.5t-22.5 1.5t-17 1q-21 0 -36 -4q-18 5 -59 5q-45 0 -57 -5h2q0 -1 -78 -1q-135 0 -135 36q0 13 20 33q115 109 159 195
q8 15 23 27q1 5 9.5 13t18.5 16t18.5 14t8.5 8q0 4 -7 5q13 8 14 27q39 27 39 59v5q45 43 45 49q0 5 -14 13l-42 22l-7 -3q-7 5 -31 5q-12 0 -29.5 -1.5t-39.5 -3.5q-25 13 -30 13t-9.5 -5.5t-8.5 -5.5t-17 -16.5t-26.5 -36.5t-25 -37t-12.5 -17q-8 -4 -24 -6.5t-23 -8.5
l-15 4q-2 6 -2 13q0 12 6 41t14.5 61t16.5 59.5t12 36.5q8 8 16 8q5 0 17 -7t26 -16t26 -16.5t17 -7.5q3 0 15 -2.5t25.5 -5.5t25.5 -5t16 -2q6 0 12 2h10q18 0 38 4l46 10l5 -3h3q7 0 22 -2.5t38 -2.5q15 0 25 6.5t23 7.5q5 -2 13 -3t18 -1q4 0 7.5 0.5t7.5 0.5l36 -16
q22 -13 22 -28q0 -1 -5 -10.5t-10 -20.5t-8.5 -19t-1.5 -6q-10 -3 -29.5 -18t-39 -34t-34 -37t-14.5 -27q0 -2 2 -6q-32 0 -48 -30q-7 -4 -17.5 -12t-20 -17.5t-16.5 -18.5t-7 -15q0 -8 8.5 -12t8.5 -5q0 -3 -8 -8l-7 -5q-15 -6 -41 -20q-5 -3 -10.5 -10t-11 -14.5
t-11 -14.5t-9.5 -10q0 -2 -8.5 -14.5t-18.5 -28.5t-18 -31t-8 -21q0 -15 15 -19l100 -3q11 -1 21.5 -1h20.5q23 0 41.5 1.5t35 7t32.5 17t34 31.5q40 46 83 46h8t9 -1zM400 713q-19 -36 -37.5 -65.5t-36.5 -52.5q-43 4 -62 8t-28 12.5t-15.5 25.5t-23.5 49q-15 28 -15 39
q0 18 19 18q8 0 16.5 -6.5t15 -16t11 -19t4.5 -15.5q4 -8 9 -17.5t13 -21.5l13 2q3 13 11 21t9 12q0 2 -0.5 3t-0.5 3q0 9 3 24l13 17q7 8 7 16v3l11 4q11 -8 24 -8h9q3 1 8 1q20 0 23 -36z" />
    </font>
</defs>
</svg>
